%TF.GenerationSoftware,KiCad,Pcbnew,8.0.6*%
%TF.CreationDate,2024-11-30T03:54:52-08:00*%
%TF.ProjectId,Axion-Board,4178696f-6e2d-4426-9f61-72642e6b6963,rev?*%
%TF.SameCoordinates,Original*%
%TF.FileFunction,Soldermask,Bot*%
%TF.FilePolarity,Negative*%
%FSLAX46Y46*%
G04 Gerber Fmt 4.6, Leading zero omitted, Abs format (unit mm)*
G04 Created by KiCad (PCBNEW 8.0.6) date 2024-11-30 03:54:52*
%MOMM*%
%LPD*%
G01*
G04 APERTURE LIST*
G04 Aperture macros list*
%AMRoundRect*
0 Rectangle with rounded corners*
0 $1 Rounding radius*
0 $2 $3 $4 $5 $6 $7 $8 $9 X,Y pos of 4 corners*
0 Add a 4 corners polygon primitive as box body*
4,1,4,$2,$3,$4,$5,$6,$7,$8,$9,$2,$3,0*
0 Add four circle primitives for the rounded corners*
1,1,$1+$1,$2,$3*
1,1,$1+$1,$4,$5*
1,1,$1+$1,$6,$7*
1,1,$1+$1,$8,$9*
0 Add four rect primitives between the rounded corners*
20,1,$1+$1,$2,$3,$4,$5,0*
20,1,$1+$1,$4,$5,$6,$7,0*
20,1,$1+$1,$6,$7,$8,$9,0*
20,1,$1+$1,$8,$9,$2,$3,0*%
G04 Aperture macros list end*
%ADD10R,1.000000X1.000000*%
%ADD11O,1.000000X1.000000*%
%ADD12RoundRect,0.250000X-0.600000X-0.725000X0.600000X-0.725000X0.600000X0.725000X-0.600000X0.725000X0*%
%ADD13O,1.700000X1.950000*%
%ADD14RoundRect,0.250000X0.600000X0.725000X-0.600000X0.725000X-0.600000X-0.725000X0.600000X-0.725000X0*%
%ADD15RoundRect,0.250000X-0.600000X-0.750000X0.600000X-0.750000X0.600000X0.750000X-0.600000X0.750000X0*%
%ADD16O,1.700000X2.000000*%
%ADD17C,3.650000*%
%ADD18R,1.500000X1.500000*%
%ADD19C,1.500000*%
%ADD20C,0.650000*%
%ADD21O,1.000000X2.100000*%
%ADD22O,1.000000X1.600000*%
G04 APERTURE END LIST*
D10*
%TO.C,J6*%
X163000000Y-83100000D03*
D11*
X163000000Y-81830000D03*
%TD*%
D10*
%TO.C,J2*%
X158800000Y-84075000D03*
D11*
X157530000Y-84075000D03*
X156260000Y-84075000D03*
X154990000Y-84075000D03*
X153720000Y-84075000D03*
%TD*%
D12*
%TO.C,BTN2*%
X151850000Y-102725000D03*
D13*
X154350000Y-102725000D03*
X156850000Y-102725000D03*
X159350000Y-102725000D03*
%TD*%
D12*
%TO.C,BTN7*%
X117850000Y-95775000D03*
D13*
X120350000Y-95775000D03*
X122850000Y-95775000D03*
X125350000Y-95775000D03*
%TD*%
D12*
%TO.C,BTN0*%
X165350000Y-102725000D03*
D13*
X167850000Y-102725000D03*
X170350000Y-102725000D03*
X172850000Y-102725000D03*
%TD*%
D12*
%TO.C,BTN8*%
X111000000Y-102725000D03*
D13*
X113500000Y-102725000D03*
X116000000Y-102725000D03*
X118500000Y-102725000D03*
%TD*%
D12*
%TO.C,BTN6*%
X124600000Y-102725000D03*
D13*
X127100000Y-102725000D03*
X129600000Y-102725000D03*
X132100000Y-102725000D03*
%TD*%
D12*
%TO.C,J16*%
X103367500Y-79937000D03*
D13*
X105867500Y-79937000D03*
X108367500Y-79937000D03*
%TD*%
D12*
%TO.C,J19*%
X142600000Y-55250000D03*
D13*
X145100000Y-55250000D03*
X147600000Y-55250000D03*
X150100000Y-55250000D03*
X152600000Y-55250000D03*
%TD*%
D14*
%TO.C,J17*%
X180850000Y-56300000D03*
D13*
X178350000Y-56300000D03*
X175850000Y-56300000D03*
X173350000Y-56300000D03*
%TD*%
D12*
%TO.C,J15*%
X103442500Y-70950000D03*
D13*
X105942500Y-70950000D03*
X108442500Y-70950000D03*
%TD*%
D14*
%TO.C,J21*%
X119400000Y-64700000D03*
D13*
X116900000Y-64700000D03*
X114400000Y-64700000D03*
%TD*%
D12*
%TO.C,BTN3*%
X144850000Y-95775000D03*
D13*
X147350000Y-95775000D03*
X149850000Y-95775000D03*
X152350000Y-95775000D03*
%TD*%
D14*
%TO.C,J18*%
X110600000Y-56350000D03*
D13*
X108100000Y-56350000D03*
X105600000Y-56350000D03*
X103100000Y-56350000D03*
%TD*%
D14*
%TO.C,J14*%
X119400000Y-71500000D03*
D13*
X116900000Y-71500000D03*
X114400000Y-71500000D03*
%TD*%
D12*
%TO.C,BTN9*%
X159800000Y-55300000D03*
D13*
X162300000Y-55300000D03*
X164800000Y-55300000D03*
X167300000Y-55300000D03*
%TD*%
D12*
%TO.C,BTN5*%
X131350000Y-95775000D03*
D13*
X133850000Y-95775000D03*
X136350000Y-95775000D03*
X138850000Y-95775000D03*
%TD*%
D14*
%TO.C,J3*%
X170075000Y-71225000D03*
D13*
X167575000Y-71225000D03*
X165075000Y-71225000D03*
%TD*%
D10*
%TO.C,J7*%
X103997500Y-104800000D03*
D11*
X105267500Y-104800000D03*
%TD*%
D15*
%TO.C,LED*%
X103331500Y-86795000D03*
D16*
X105831500Y-86795000D03*
%TD*%
D17*
%TO.C,J20*%
X176850000Y-88175000D03*
X176850000Y-76745000D03*
D18*
X170500000Y-86905000D03*
D19*
X167960000Y-85635000D03*
X170500000Y-84365000D03*
X167960000Y-83095000D03*
X170500000Y-81825000D03*
X167960000Y-80555000D03*
X170500000Y-79285000D03*
X167960000Y-78015000D03*
%TD*%
D12*
%TO.C,BTN1*%
X158350000Y-95775000D03*
D13*
X160850000Y-95775000D03*
X163350000Y-95775000D03*
X165850000Y-95775000D03*
%TD*%
D20*
%TO.C,J1*%
X137120000Y-59150000D03*
X131340000Y-59150000D03*
D21*
X138550000Y-59680000D03*
D22*
X138550000Y-55500000D03*
D21*
X129910000Y-59680000D03*
D22*
X129910000Y-55500000D03*
%TD*%
D14*
%TO.C,J4*%
X170075000Y-64425000D03*
D13*
X167575000Y-64425000D03*
X165075000Y-64425000D03*
%TD*%
D12*
%TO.C,BTN10*%
X116600000Y-55300000D03*
D13*
X119100000Y-55300000D03*
X121600000Y-55300000D03*
X124100000Y-55300000D03*
%TD*%
D12*
%TO.C,BTN4*%
X138250000Y-102725000D03*
D13*
X140750000Y-102725000D03*
X143250000Y-102725000D03*
X145750000Y-102725000D03*
%TD*%
M02*
