%TF.GenerationSoftware,KiCad,Pcbnew,8.0.6*%
%TF.CreationDate,2024-11-20T00:52:26-08:00*%
%TF.ProjectId,Axion-Board,4178696f-6e2d-4426-9f61-72642e6b6963,rev?*%
%TF.SameCoordinates,Original*%
%TF.FileFunction,Paste,Top*%
%TF.FilePolarity,Positive*%
%FSLAX46Y46*%
G04 Gerber Fmt 4.6, Leading zero omitted, Abs format (unit mm)*
G04 Created by KiCad (PCBNEW 8.0.6) date 2024-11-20 00:52:26*
%MOMM*%
%LPD*%
G01*
G04 APERTURE LIST*
G04 Aperture macros list*
%AMRoundRect*
0 Rectangle with rounded corners*
0 $1 Rounding radius*
0 $2 $3 $4 $5 $6 $7 $8 $9 X,Y pos of 4 corners*
0 Add a 4 corners polygon primitive as box body*
4,1,4,$2,$3,$4,$5,$6,$7,$8,$9,$2,$3,0*
0 Add four circle primitives for the rounded corners*
1,1,$1+$1,$2,$3*
1,1,$1+$1,$4,$5*
1,1,$1+$1,$6,$7*
1,1,$1+$1,$8,$9*
0 Add four rect primitives between the rounded corners*
20,1,$1+$1,$2,$3,$4,$5,0*
20,1,$1+$1,$4,$5,$6,$7,0*
20,1,$1+$1,$6,$7,$8,$9,0*
20,1,$1+$1,$8,$9,$2,$3,0*%
G04 Aperture macros list end*
%ADD10RoundRect,0.135000X0.185000X-0.135000X0.185000X0.135000X-0.185000X0.135000X-0.185000X-0.135000X0*%
%ADD11RoundRect,0.150000X0.150000X-0.587500X0.150000X0.587500X-0.150000X0.587500X-0.150000X-0.587500X0*%
%ADD12RoundRect,0.140000X-0.021213X0.219203X-0.219203X0.021213X0.021213X-0.219203X0.219203X-0.021213X0*%
%ADD13RoundRect,0.150000X0.587500X0.150000X-0.587500X0.150000X-0.587500X-0.150000X0.587500X-0.150000X0*%
%ADD14RoundRect,0.140000X0.219203X0.021213X0.021213X0.219203X-0.219203X-0.021213X-0.021213X-0.219203X0*%
%ADD15RoundRect,0.150000X-0.587500X-0.150000X0.587500X-0.150000X0.587500X0.150000X-0.587500X0.150000X0*%
%ADD16RoundRect,0.200000X0.200000X0.275000X-0.200000X0.275000X-0.200000X-0.275000X0.200000X-0.275000X0*%
%ADD17RoundRect,0.150000X-0.650000X-0.150000X0.650000X-0.150000X0.650000X0.150000X-0.650000X0.150000X0*%
%ADD18RoundRect,0.250000X-0.375000X-0.625000X0.375000X-0.625000X0.375000X0.625000X-0.375000X0.625000X0*%
%ADD19RoundRect,0.250000X0.292217X-0.292217X0.292217X0.292217X-0.292217X0.292217X-0.292217X-0.292217X0*%
%ADD20RoundRect,0.050000X0.050000X-0.387500X0.050000X0.387500X-0.050000X0.387500X-0.050000X-0.387500X0*%
%ADD21RoundRect,0.050000X0.387500X-0.050000X0.387500X0.050000X-0.387500X0.050000X-0.387500X-0.050000X0*%
%ADD22RoundRect,0.140000X-0.140000X-0.170000X0.140000X-0.170000X0.140000X0.170000X-0.140000X0.170000X0*%
%ADD23RoundRect,0.140000X0.140000X0.170000X-0.140000X0.170000X-0.140000X-0.170000X0.140000X-0.170000X0*%
%ADD24RoundRect,0.135000X0.135000X0.185000X-0.135000X0.185000X-0.135000X-0.185000X0.135000X-0.185000X0*%
%ADD25RoundRect,0.135000X-0.135000X-0.185000X0.135000X-0.185000X0.135000X0.185000X-0.135000X0.185000X0*%
%ADD26RoundRect,0.150000X0.150000X-0.512500X0.150000X0.512500X-0.150000X0.512500X-0.150000X-0.512500X0*%
%ADD27RoundRect,0.140000X0.021213X-0.219203X0.219203X-0.021213X-0.021213X0.219203X-0.219203X0.021213X0*%
%ADD28R,1.050000X0.650000*%
%ADD29R,1.200000X1.400000*%
%ADD30R,0.600000X1.450000*%
%ADD31R,0.300000X1.450000*%
%ADD32RoundRect,0.140000X0.170000X-0.140000X0.170000X0.140000X-0.170000X0.140000X-0.170000X-0.140000X0*%
%ADD33R,1.981200X0.558800*%
%ADD34RoundRect,0.250000X0.850000X0.350000X-0.850000X0.350000X-0.850000X-0.350000X0.850000X-0.350000X0*%
%ADD35RoundRect,0.250000X1.275000X1.125000X-1.275000X1.125000X-1.275000X-1.125000X1.275000X-1.125000X0*%
G04 APERTURE END LIST*
D10*
%TO.C,R2*%
X152750000Y-75540000D03*
X152750000Y-74520000D03*
%TD*%
D11*
%TO.C,Q2*%
X142167500Y-89200000D03*
X144067500Y-89200000D03*
X143117500Y-87325000D03*
%TD*%
%TO.C,Q10*%
X132817500Y-90175000D03*
X134717500Y-90175000D03*
X133767500Y-88300000D03*
%TD*%
D12*
%TO.C,C12*%
X139250000Y-84050000D03*
X138571178Y-84728822D03*
%TD*%
D13*
%TO.C,Q7*%
X125367500Y-62200000D03*
X125367500Y-60300000D03*
X123492500Y-61250000D03*
%TD*%
D10*
%TO.C,R10*%
X103167500Y-101320000D03*
X103167500Y-100300000D03*
%TD*%
D14*
%TO.C,C8*%
X133700000Y-73050000D03*
X133021178Y-72371178D03*
%TD*%
D15*
%TO.C,U4*%
X137125000Y-64350000D03*
X137125000Y-66250000D03*
X139000000Y-65300000D03*
%TD*%
D16*
%TO.C,R6*%
X131800000Y-67000000D03*
X130150000Y-67000000D03*
%TD*%
D11*
%TO.C,Q8*%
X159867500Y-91200000D03*
X161767500Y-91200000D03*
X160817500Y-89325000D03*
%TD*%
D17*
%TO.C,U1*%
X122000000Y-76690000D03*
X122000000Y-77960000D03*
X122000000Y-79230000D03*
X122000000Y-80500000D03*
X129200000Y-80500000D03*
X129200000Y-79230000D03*
X129200000Y-77960000D03*
X129200000Y-76690000D03*
%TD*%
D18*
%TO.C,F1*%
X140600000Y-61900000D03*
X143400000Y-61900000D03*
%TD*%
D14*
%TO.C,C4*%
X133078822Y-73878822D03*
X132400000Y-73200000D03*
%TD*%
D11*
%TO.C,Q4*%
X155067500Y-89900000D03*
X156967500Y-89900000D03*
X156017500Y-88025000D03*
%TD*%
D19*
%TO.C,U3*%
X138112500Y-78000000D03*
X139387500Y-78000000D03*
X138112500Y-76725000D03*
X139387500Y-76725000D03*
D20*
X136150000Y-80800000D03*
X136550000Y-80800000D03*
X136950000Y-80800000D03*
X137350000Y-80800000D03*
X137750000Y-80800000D03*
X138150000Y-80800000D03*
X138550000Y-80800000D03*
X138950000Y-80800000D03*
X139350000Y-80800000D03*
X139750000Y-80800000D03*
X140150000Y-80800000D03*
X140550000Y-80800000D03*
X140950000Y-80800000D03*
X141350000Y-80800000D03*
D21*
X142187500Y-79962500D03*
X142187500Y-79562500D03*
X142187500Y-79162500D03*
X142187500Y-78762500D03*
X142187500Y-78362500D03*
X142187500Y-77962500D03*
X142187500Y-77562500D03*
X142187500Y-77162500D03*
X142187500Y-76762500D03*
X142187500Y-76362500D03*
X142187500Y-75962500D03*
X142187500Y-75562500D03*
X142187500Y-75162500D03*
X142187500Y-74762500D03*
D20*
X141350000Y-73925000D03*
X140950000Y-73925000D03*
X140550000Y-73925000D03*
X140150000Y-73925000D03*
X139750000Y-73925000D03*
X139350000Y-73925000D03*
X138950000Y-73925000D03*
X138550000Y-73925000D03*
X138150000Y-73925000D03*
X137750000Y-73925000D03*
X137350000Y-73925000D03*
X136950000Y-73925000D03*
X136550000Y-73925000D03*
X136150000Y-73925000D03*
D21*
X135312500Y-74762500D03*
X135312500Y-75162500D03*
X135312500Y-75562500D03*
X135312500Y-75962500D03*
X135312500Y-76362500D03*
X135312500Y-76762500D03*
X135312500Y-77162500D03*
X135312500Y-77562500D03*
X135312500Y-77962500D03*
X135312500Y-78362500D03*
X135312500Y-78762500D03*
X135312500Y-79162500D03*
X135312500Y-79562500D03*
X135312500Y-79962500D03*
%TD*%
D11*
%TO.C,Q9*%
X146367500Y-89500000D03*
X148267500Y-89500000D03*
X147317500Y-87625000D03*
%TD*%
D22*
%TO.C,C2*%
X149950000Y-80480000D03*
X150910000Y-80480000D03*
%TD*%
D23*
%TO.C,C14*%
X135820000Y-71725000D03*
X134860000Y-71725000D03*
%TD*%
D22*
%TO.C,C10*%
X145700000Y-76470000D03*
X146660000Y-76470000D03*
%TD*%
D16*
%TO.C,R5*%
X131800000Y-65400000D03*
X130150000Y-65400000D03*
%TD*%
D24*
%TO.C,R1*%
X123910000Y-75160000D03*
X122890000Y-75160000D03*
%TD*%
D23*
%TO.C,C15*%
X134950000Y-82050000D03*
X133990000Y-82050000D03*
%TD*%
%TO.C,C13*%
X133400000Y-76900000D03*
X132440000Y-76900000D03*
%TD*%
D25*
%TO.C,R3*%
X136600000Y-63000000D03*
X137620000Y-63000000D03*
%TD*%
D11*
%TO.C,Q6*%
X147317500Y-64037500D03*
X149217500Y-64037500D03*
X148267500Y-62162500D03*
%TD*%
D23*
%TO.C,C17*%
X141500000Y-66350000D03*
X140540000Y-66350000D03*
%TD*%
%TO.C,C16*%
X141500000Y-64350000D03*
X140540000Y-64350000D03*
%TD*%
D11*
%TO.C,Q1*%
X128167500Y-89800000D03*
X130067500Y-89800000D03*
X129117500Y-87925000D03*
%TD*%
D26*
%TO.C,U2*%
X133400000Y-66100000D03*
X134350000Y-66100000D03*
X135300000Y-66100000D03*
X135300000Y-63825000D03*
X134350000Y-63825000D03*
X133400000Y-63825000D03*
%TD*%
D24*
%TO.C,R7*%
X147580000Y-77520000D03*
X146560000Y-77520000D03*
%TD*%
D23*
%TO.C,C5*%
X132650000Y-77925000D03*
X131690000Y-77925000D03*
%TD*%
D22*
%TO.C,C18*%
X160700000Y-69015000D03*
X161660000Y-69015000D03*
%TD*%
D11*
%TO.C,Q3*%
X112567500Y-89900000D03*
X114467500Y-89900000D03*
X113517500Y-88025000D03*
%TD*%
D27*
%TO.C,C11*%
X140150000Y-72000000D03*
X140828822Y-71321178D03*
%TD*%
D11*
%TO.C,Q5*%
X169867500Y-94500000D03*
X171767500Y-94500000D03*
X170817500Y-92625000D03*
%TD*%
D22*
%TO.C,C19*%
X160685000Y-60990000D03*
X161645000Y-60990000D03*
%TD*%
D10*
%TO.C,R11*%
X104217500Y-101320000D03*
X104217500Y-100300000D03*
%TD*%
D23*
%TO.C,C9*%
X135820000Y-72700000D03*
X134860000Y-72700000D03*
%TD*%
D25*
%TO.C,R8*%
X108222500Y-76875000D03*
X109242500Y-76875000D03*
%TD*%
D28*
%TO.C,SW1*%
X123520000Y-69670000D03*
X127670000Y-69670000D03*
X123520000Y-71820000D03*
X127670000Y-71820000D03*
%TD*%
D29*
%TO.C,Y1*%
X148950000Y-76530000D03*
X148950000Y-78730000D03*
X150650000Y-78730000D03*
X150650000Y-76530000D03*
%TD*%
D30*
%TO.C,J1*%
X137480000Y-60595000D03*
X136680000Y-60595000D03*
D31*
X135480000Y-60595000D03*
X134480000Y-60595000D03*
X133980000Y-60595000D03*
X132980000Y-60595000D03*
D30*
X131780000Y-60595000D03*
X130980000Y-60595000D03*
D31*
X132480000Y-60595000D03*
X133480000Y-60595000D03*
X134980000Y-60595000D03*
X135980000Y-60595000D03*
D30*
X136680000Y-60595000D03*
%TD*%
D22*
%TO.C,C7*%
X140540000Y-65350000D03*
X141500000Y-65350000D03*
%TD*%
D32*
%TO.C,C1*%
X130800000Y-76910000D03*
X130800000Y-75950000D03*
%TD*%
D24*
%TO.C,R4*%
X132100000Y-62400000D03*
X131080000Y-62400000D03*
%TD*%
D11*
%TO.C,Q11*%
X119417500Y-91300000D03*
X121317500Y-91300000D03*
X120367500Y-89425000D03*
%TD*%
D22*
%TO.C,C6*%
X145700000Y-75500000D03*
X146660000Y-75500000D03*
%TD*%
D33*
%TO.C,U5*%
X117900000Y-82890000D03*
X117900000Y-81620000D03*
X117900000Y-80350000D03*
X117900000Y-79080000D03*
X117900000Y-77810000D03*
X117900000Y-76540000D03*
X117900000Y-75270000D03*
X112972400Y-75270000D03*
X112972400Y-76540000D03*
X112972400Y-77810000D03*
X112972400Y-79080000D03*
X112972400Y-80350000D03*
X112972400Y-81620000D03*
X112972400Y-82890000D03*
%TD*%
D22*
%TO.C,C3*%
X148420000Y-74990000D03*
X149380000Y-74990000D03*
%TD*%
D25*
%TO.C,R9*%
X108262500Y-75450000D03*
X109282500Y-75450000D03*
%TD*%
D34*
%TO.C,U6*%
X159825000Y-67305000D03*
D35*
X155200000Y-66550000D03*
X155200000Y-63500000D03*
X151850000Y-66550000D03*
X151850000Y-63500000D03*
D34*
X159825000Y-62745000D03*
%TD*%
M02*
