%TF.GenerationSoftware,KiCad,Pcbnew,7.0.10*%
%TF.CreationDate,2024-03-02T05:30:57-08:00*%
%TF.ProjectId,Axion-Board,4178696f-6e2d-4426-9f61-72642e6b6963,rev?*%
%TF.SameCoordinates,Original*%
%TF.FileFunction,Soldermask,Top*%
%TF.FilePolarity,Negative*%
%FSLAX46Y46*%
G04 Gerber Fmt 4.6, Leading zero omitted, Abs format (unit mm)*
G04 Created by KiCad (PCBNEW 7.0.10) date 2024-03-02 05:30:57*
%MOMM*%
%LPD*%
G01*
G04 APERTURE LIST*
G04 Aperture macros list*
%AMRoundRect*
0 Rectangle with rounded corners*
0 $1 Rounding radius*
0 $2 $3 $4 $5 $6 $7 $8 $9 X,Y pos of 4 corners*
0 Add a 4 corners polygon primitive as box body*
4,1,4,$2,$3,$4,$5,$6,$7,$8,$9,$2,$3,0*
0 Add four circle primitives for the rounded corners*
1,1,$1+$1,$2,$3*
1,1,$1+$1,$4,$5*
1,1,$1+$1,$6,$7*
1,1,$1+$1,$8,$9*
0 Add four rect primitives between the rounded corners*
20,1,$1+$1,$2,$3,$4,$5,0*
20,1,$1+$1,$4,$5,$6,$7,0*
20,1,$1+$1,$6,$7,$8,$9,0*
20,1,$1+$1,$8,$9,$2,$3,0*%
G04 Aperture macros list end*
%ADD10R,1.000000X1.000000*%
%ADD11O,1.000000X1.000000*%
%ADD12RoundRect,0.135000X0.185000X-0.135000X0.185000X0.135000X-0.185000X0.135000X-0.185000X-0.135000X0*%
%ADD13RoundRect,0.150000X-0.587500X-0.150000X0.587500X-0.150000X0.587500X0.150000X-0.587500X0.150000X0*%
%ADD14RoundRect,0.250000X-0.600000X-0.725000X0.600000X-0.725000X0.600000X0.725000X-0.600000X0.725000X0*%
%ADD15O,1.700000X1.950000*%
%ADD16RoundRect,0.140000X-0.021213X0.219203X-0.219203X0.021213X0.021213X-0.219203X0.219203X-0.021213X0*%
%ADD17RoundRect,0.140000X0.219203X0.021213X0.021213X0.219203X-0.219203X-0.021213X-0.021213X-0.219203X0*%
%ADD18RoundRect,0.150000X0.587500X0.150000X-0.587500X0.150000X-0.587500X-0.150000X0.587500X-0.150000X0*%
%ADD19RoundRect,0.200000X0.200000X0.275000X-0.200000X0.275000X-0.200000X-0.275000X0.200000X-0.275000X0*%
%ADD20RoundRect,0.250000X0.600000X0.725000X-0.600000X0.725000X-0.600000X-0.725000X0.600000X-0.725000X0*%
%ADD21RoundRect,0.150000X-0.650000X-0.150000X0.650000X-0.150000X0.650000X0.150000X-0.650000X0.150000X0*%
%ADD22RoundRect,0.250000X-0.375000X-0.625000X0.375000X-0.625000X0.375000X0.625000X-0.375000X0.625000X0*%
%ADD23RoundRect,0.050000X0.050000X-0.387500X0.050000X0.387500X-0.050000X0.387500X-0.050000X-0.387500X0*%
%ADD24RoundRect,0.050000X0.387500X-0.050000X0.387500X0.050000X-0.387500X0.050000X-0.387500X-0.050000X0*%
%ADD25RoundRect,0.144000X1.456000X-1.456000X1.456000X1.456000X-1.456000X1.456000X-1.456000X-1.456000X0*%
%ADD26RoundRect,0.140000X-0.140000X-0.170000X0.140000X-0.170000X0.140000X0.170000X-0.140000X0.170000X0*%
%ADD27RoundRect,0.140000X0.140000X0.170000X-0.140000X0.170000X-0.140000X-0.170000X0.140000X-0.170000X0*%
%ADD28RoundRect,0.135000X0.135000X0.185000X-0.135000X0.185000X-0.135000X-0.185000X0.135000X-0.185000X0*%
%ADD29RoundRect,0.135000X-0.135000X-0.185000X0.135000X-0.185000X0.135000X0.185000X-0.135000X0.185000X0*%
%ADD30RoundRect,0.150000X0.150000X-0.512500X0.150000X0.512500X-0.150000X0.512500X-0.150000X-0.512500X0*%
%ADD31RoundRect,0.140000X0.021213X-0.219203X0.219203X-0.021213X-0.021213X0.219203X-0.219203X0.021213X0*%
%ADD32C,3.650000*%
%ADD33R,1.500000X1.500000*%
%ADD34C,1.500000*%
%ADD35R,1.050000X0.650000*%
%ADD36R,1.200000X1.400000*%
%ADD37C,0.650000*%
%ADD38R,0.600000X1.450000*%
%ADD39R,0.300000X1.450000*%
%ADD40O,1.000000X2.100000*%
%ADD41O,1.000000X1.600000*%
%ADD42RoundRect,0.140000X0.170000X-0.140000X0.170000X0.140000X-0.170000X0.140000X-0.170000X-0.140000X0*%
%ADD43R,1.981200X0.558800*%
%ADD44RoundRect,0.250000X0.850000X0.350000X-0.850000X0.350000X-0.850000X-0.350000X0.850000X-0.350000X0*%
%ADD45RoundRect,0.249997X2.950003X2.650003X-2.950003X2.650003X-2.950003X-2.650003X2.950003X-2.650003X0*%
G04 APERTURE END LIST*
D10*
%TO.C,J6*%
X163000000Y-83100000D03*
D11*
X163000000Y-81830000D03*
%TD*%
D12*
%TO.C,R2*%
X152750000Y-75540000D03*
X152750000Y-74520000D03*
%TD*%
D10*
%TO.C,J2*%
X158800000Y-84075000D03*
D11*
X157530000Y-84075000D03*
X156260000Y-84075000D03*
X154990000Y-84075000D03*
X153720000Y-84075000D03*
%TD*%
D13*
%TO.C,Q2*%
X128150000Y-87750000D03*
X128150000Y-89650000D03*
X130025000Y-88700000D03*
%TD*%
D14*
%TO.C,BTN2*%
X151850000Y-102725000D03*
D15*
X154350000Y-102725000D03*
X156850000Y-102725000D03*
X159350000Y-102725000D03*
%TD*%
D13*
%TO.C,Q6*%
X142175000Y-87750000D03*
X142175000Y-89650000D03*
X144050000Y-88700000D03*
%TD*%
D14*
%TO.C,BTN7*%
X117850000Y-95775000D03*
D15*
X120350000Y-95775000D03*
X122850000Y-95775000D03*
X125350000Y-95775000D03*
%TD*%
D14*
%TO.C,BTN0*%
X165350000Y-102725000D03*
D15*
X167850000Y-102725000D03*
X170350000Y-102725000D03*
X172850000Y-102725000D03*
%TD*%
D14*
%TO.C,BTN8*%
X111000000Y-102725000D03*
D15*
X113500000Y-102725000D03*
X116000000Y-102725000D03*
X118500000Y-102725000D03*
%TD*%
D16*
%TO.C,C12*%
X139250000Y-84050000D03*
X138571178Y-84728822D03*
%TD*%
D12*
%TO.C,R10*%
X103167500Y-101320000D03*
X103167500Y-100300000D03*
%TD*%
D17*
%TO.C,C8*%
X133700000Y-73050000D03*
X133021178Y-72371178D03*
%TD*%
D13*
%TO.C,U4*%
X137125000Y-64350000D03*
X137125000Y-66250000D03*
X139000000Y-65300000D03*
%TD*%
D18*
%TO.C,Q9*%
X125500000Y-62150000D03*
X125500000Y-60250000D03*
X123625000Y-61200000D03*
%TD*%
D14*
%TO.C,BTN6*%
X124600000Y-102725000D03*
D15*
X127100000Y-102725000D03*
X129600000Y-102725000D03*
X132100000Y-102725000D03*
%TD*%
D14*
%TO.C,J16*%
X103367500Y-80250000D03*
D15*
X105867500Y-80250000D03*
X108367500Y-80250000D03*
%TD*%
D19*
%TO.C,R6*%
X131800000Y-67000000D03*
X130150000Y-67000000D03*
%TD*%
D14*
%TO.C,J19*%
X142600000Y-55250000D03*
D15*
X145100000Y-55250000D03*
X147600000Y-55250000D03*
X150100000Y-55250000D03*
X152600000Y-55250000D03*
%TD*%
D13*
%TO.C,Q5*%
X146492500Y-87750000D03*
X146492500Y-89650000D03*
X148367500Y-88700000D03*
%TD*%
D20*
%TO.C,J17*%
X180850000Y-56300000D03*
D15*
X178350000Y-56300000D03*
X175850000Y-56300000D03*
X173350000Y-56300000D03*
%TD*%
D21*
%TO.C,U1*%
X122000000Y-76690000D03*
X122000000Y-77960000D03*
X122000000Y-79230000D03*
X122000000Y-80500000D03*
X129200000Y-80500000D03*
X129200000Y-79230000D03*
X129200000Y-77960000D03*
X129200000Y-76690000D03*
%TD*%
D22*
%TO.C,F1*%
X140600000Y-61900000D03*
X143400000Y-61900000D03*
%TD*%
D17*
%TO.C,C4*%
X133078822Y-73878822D03*
X132400000Y-73200000D03*
%TD*%
D23*
%TO.C,U3*%
X136150000Y-80800000D03*
X136550000Y-80800000D03*
X136950000Y-80800000D03*
X137350000Y-80800000D03*
X137750000Y-80800000D03*
X138150000Y-80800000D03*
X138550000Y-80800000D03*
X138950000Y-80800000D03*
X139350000Y-80800000D03*
X139750000Y-80800000D03*
X140150000Y-80800000D03*
X140550000Y-80800000D03*
X140950000Y-80800000D03*
X141350000Y-80800000D03*
D24*
X142187500Y-79962500D03*
X142187500Y-79562500D03*
X142187500Y-79162500D03*
X142187500Y-78762500D03*
X142187500Y-78362500D03*
X142187500Y-77962500D03*
X142187500Y-77562500D03*
X142187500Y-77162500D03*
X142187500Y-76762500D03*
X142187500Y-76362500D03*
X142187500Y-75962500D03*
X142187500Y-75562500D03*
X142187500Y-75162500D03*
X142187500Y-74762500D03*
D23*
X141350000Y-73925000D03*
X140950000Y-73925000D03*
X140550000Y-73925000D03*
X140150000Y-73925000D03*
X139750000Y-73925000D03*
X139350000Y-73925000D03*
X138950000Y-73925000D03*
X138550000Y-73925000D03*
X138150000Y-73925000D03*
X137750000Y-73925000D03*
X137350000Y-73925000D03*
X136950000Y-73925000D03*
X136550000Y-73925000D03*
X136150000Y-73925000D03*
D24*
X135312500Y-74762500D03*
X135312500Y-75162500D03*
X135312500Y-75562500D03*
X135312500Y-75962500D03*
X135312500Y-76362500D03*
X135312500Y-76762500D03*
X135312500Y-77162500D03*
X135312500Y-77562500D03*
X135312500Y-77962500D03*
X135312500Y-78362500D03*
X135312500Y-78762500D03*
X135312500Y-79162500D03*
X135312500Y-79562500D03*
X135312500Y-79962500D03*
D25*
X138750000Y-77362500D03*
%TD*%
D26*
%TO.C,C2*%
X149950000Y-80480000D03*
X150910000Y-80480000D03*
%TD*%
D27*
%TO.C,C14*%
X135820000Y-71725000D03*
X134860000Y-71725000D03*
%TD*%
D14*
%TO.C,J15*%
X103442500Y-70950000D03*
D15*
X105942500Y-70950000D03*
X108442500Y-70950000D03*
%TD*%
D20*
%TO.C,J21*%
X119400000Y-64700000D03*
D15*
X116900000Y-64700000D03*
X114400000Y-64700000D03*
%TD*%
D14*
%TO.C,BTN3*%
X144850000Y-95775000D03*
D15*
X147350000Y-95775000D03*
X149850000Y-95775000D03*
X152350000Y-95775000D03*
%TD*%
D26*
%TO.C,C10*%
X145700000Y-76470000D03*
X146660000Y-76470000D03*
%TD*%
D19*
%TO.C,R5*%
X131800000Y-65400000D03*
X130150000Y-65400000D03*
%TD*%
D28*
%TO.C,R1*%
X123910000Y-75160000D03*
X122890000Y-75160000D03*
%TD*%
D20*
%TO.C,J18*%
X110600000Y-56350000D03*
D15*
X108100000Y-56350000D03*
X105600000Y-56350000D03*
X103100000Y-56350000D03*
%TD*%
D13*
%TO.C,Q8*%
X155100000Y-87750000D03*
X155100000Y-89650000D03*
X156975000Y-88700000D03*
%TD*%
D27*
%TO.C,C15*%
X134950000Y-82050000D03*
X133990000Y-82050000D03*
%TD*%
D20*
%TO.C,J14*%
X119400000Y-71500000D03*
D15*
X116900000Y-71500000D03*
X114400000Y-71500000D03*
%TD*%
D27*
%TO.C,C13*%
X133400000Y-76900000D03*
X132440000Y-76900000D03*
%TD*%
D29*
%TO.C,R3*%
X136600000Y-63000000D03*
X137620000Y-63000000D03*
%TD*%
D27*
%TO.C,C17*%
X141500000Y-66350000D03*
X140540000Y-66350000D03*
%TD*%
%TO.C,C16*%
X141500000Y-64350000D03*
X140540000Y-64350000D03*
%TD*%
D14*
%TO.C,BTN9*%
X159800000Y-55300000D03*
D15*
X162300000Y-55300000D03*
X164800000Y-55300000D03*
X167300000Y-55300000D03*
%TD*%
D30*
%TO.C,U2*%
X133400000Y-66100000D03*
X134350000Y-66100000D03*
X135300000Y-66100000D03*
X135300000Y-63825000D03*
X134350000Y-63825000D03*
X133400000Y-63825000D03*
%TD*%
D28*
%TO.C,R7*%
X147580000Y-77520000D03*
X146560000Y-77520000D03*
%TD*%
D27*
%TO.C,C5*%
X132650000Y-77925000D03*
X131690000Y-77925000D03*
%TD*%
D26*
%TO.C,C18*%
X160700000Y-69015000D03*
X161660000Y-69015000D03*
%TD*%
D14*
%TO.C,BTN5*%
X131350000Y-95775000D03*
D15*
X133850000Y-95775000D03*
X136350000Y-95775000D03*
X138850000Y-95775000D03*
%TD*%
D13*
%TO.C,Q3*%
X113500000Y-87750000D03*
X113500000Y-89650000D03*
X115375000Y-88700000D03*
%TD*%
D20*
%TO.C,J3*%
X170075000Y-71225000D03*
D15*
X167575000Y-71225000D03*
X165075000Y-71225000D03*
%TD*%
D31*
%TO.C,C11*%
X140150000Y-72000000D03*
X140828822Y-71321178D03*
%TD*%
D13*
%TO.C,Q10*%
X169850000Y-93000000D03*
X169850000Y-94900000D03*
X171725000Y-93950000D03*
%TD*%
D18*
%TO.C,Q11*%
X148867500Y-63800000D03*
X148867500Y-61900000D03*
X146992500Y-62850000D03*
%TD*%
D26*
%TO.C,C19*%
X160685000Y-60990000D03*
X161645000Y-60990000D03*
%TD*%
D10*
%TO.C,J7*%
X103997500Y-104800000D03*
D11*
X105267500Y-104800000D03*
%TD*%
D12*
%TO.C,R11*%
X104217500Y-101320000D03*
X104217500Y-100300000D03*
%TD*%
D27*
%TO.C,C9*%
X135820000Y-72700000D03*
X134860000Y-72700000D03*
%TD*%
D32*
%TO.C,J20*%
X176850000Y-88175000D03*
X176850000Y-76745000D03*
D33*
X170500000Y-86905000D03*
D34*
X167960000Y-85635000D03*
X170500000Y-84365000D03*
X167960000Y-83095000D03*
X170500000Y-81825000D03*
X167960000Y-80555000D03*
X170500000Y-79285000D03*
X167960000Y-78015000D03*
%TD*%
D29*
%TO.C,R8*%
X108222500Y-76875000D03*
X109242500Y-76875000D03*
%TD*%
D35*
%TO.C,SW1*%
X123520000Y-69670000D03*
X127670000Y-69670000D03*
X123520000Y-71820000D03*
X127670000Y-71820000D03*
%TD*%
D14*
%TO.C,BTN1*%
X158350000Y-95775000D03*
D15*
X160850000Y-95775000D03*
X163350000Y-95775000D03*
X165850000Y-95775000D03*
%TD*%
D36*
%TO.C,Y1*%
X148950000Y-76530000D03*
X148950000Y-78730000D03*
X150650000Y-78730000D03*
X150650000Y-76530000D03*
%TD*%
D37*
%TO.C,J1*%
X137120000Y-59150000D03*
X131340000Y-59150000D03*
D38*
X137480000Y-60595000D03*
X136680000Y-60595000D03*
D39*
X135480000Y-60595000D03*
X134480000Y-60595000D03*
X133980000Y-60595000D03*
X132980000Y-60595000D03*
D38*
X131780000Y-60595000D03*
X130980000Y-60595000D03*
X130980000Y-60595000D03*
X131780000Y-60595000D03*
D39*
X132480000Y-60595000D03*
X133480000Y-60595000D03*
X134980000Y-60595000D03*
X135980000Y-60595000D03*
D38*
X136680000Y-60595000D03*
X137480000Y-60595000D03*
D40*
X138550000Y-59680000D03*
D41*
X138550000Y-55500000D03*
D40*
X129910000Y-59680000D03*
D41*
X129910000Y-55500000D03*
%TD*%
D26*
%TO.C,C7*%
X140540000Y-65350000D03*
X141500000Y-65350000D03*
%TD*%
D42*
%TO.C,C1*%
X130800000Y-76910000D03*
X130800000Y-75950000D03*
%TD*%
D28*
%TO.C,R4*%
X132100000Y-62400000D03*
X131080000Y-62400000D03*
%TD*%
D13*
%TO.C,Q7*%
X160875000Y-87750000D03*
X160875000Y-89650000D03*
X162750000Y-88700000D03*
%TD*%
D26*
%TO.C,C6*%
X145700000Y-75500000D03*
X146660000Y-75500000D03*
%TD*%
D43*
%TO.C,U5*%
X117900000Y-82890000D03*
X117900000Y-81620000D03*
X117900000Y-80350000D03*
X117900000Y-79080000D03*
X117900000Y-77810000D03*
X117900000Y-76540000D03*
X117900000Y-75270000D03*
X112972400Y-75270000D03*
X112972400Y-76540000D03*
X112972400Y-77810000D03*
X112972400Y-79080000D03*
X112972400Y-80350000D03*
X112972400Y-81620000D03*
X112972400Y-82890000D03*
%TD*%
D26*
%TO.C,C3*%
X148420000Y-74990000D03*
X149380000Y-74990000D03*
%TD*%
D20*
%TO.C,J4*%
X170075000Y-64425000D03*
D15*
X167575000Y-64425000D03*
X165075000Y-64425000D03*
%TD*%
D29*
%TO.C,R9*%
X108262500Y-75450000D03*
X109282500Y-75450000D03*
%TD*%
D44*
%TO.C,U6*%
X159825000Y-67305000D03*
D45*
X153525000Y-65025000D03*
D44*
X159825000Y-62745000D03*
%TD*%
D14*
%TO.C,BTN10*%
X116600000Y-55300000D03*
D15*
X119100000Y-55300000D03*
X121600000Y-55300000D03*
X124100000Y-55300000D03*
%TD*%
D14*
%TO.C,BTN4*%
X138250000Y-102725000D03*
D15*
X140750000Y-102725000D03*
X143250000Y-102725000D03*
X145750000Y-102725000D03*
%TD*%
D13*
%TO.C,Q1*%
X119625000Y-87750000D03*
X119625000Y-89650000D03*
X121500000Y-88700000D03*
%TD*%
%TO.C,Q4*%
X133667500Y-87750000D03*
X133667500Y-89650000D03*
X135542500Y-88700000D03*
%TD*%
M02*
