M48
; DRILL file {KiCad 7.0.10} date Sat Mar  2 05:30:57 2024
; FORMAT={-:-/ absolute / inch / decimal}
; #@! TF.CreationDate,2024-03-02T05:30:57-08:00
; #@! TF.GenerationSoftware,Kicad,Pcbnew,7.0.10
; #@! TF.FileFunction,Plated,1,2,PTH
FMAT,2
INCH
; #@! TA.AperFunction,Plated,PTH,ViaDrill
T1C0.0118
; #@! TA.AperFunction,Plated,PTH,ComponentDrill
T2C0.0138
; #@! TA.AperFunction,Plated,PTH,ComponentDrill
T3C0.0236
; #@! TA.AperFunction,Plated,PTH,ComponentDrill
T4C0.0256
; #@! TA.AperFunction,Plated,PTH,ComponentDrill
T5C0.0354
; #@! TA.AperFunction,Plated,PTH,ComponentDrill
T6C0.0374
%
G90
G05
T1
X4.2904Y-2.1063
X4.2999Y-3.5689
X4.3156Y-3.5965
X4.3531Y-3.1811
X4.3767Y-3.063
X4.4085Y-3.436
X4.4193Y-3.9567
X4.4488Y-2.4409
X4.5223Y-3.0197
X4.5696Y-2.9961
X4.5735Y-3.063
X4.609Y-3.998
X4.6112Y-3.6398
X4.6122Y-3.501
X4.6208Y-3.3071
X4.7008Y-2.628
X4.7008Y-2.6791
X4.7094Y-3.2461
X4.815Y-3.3583
X4.872Y-3.0315
X4.8898Y-3.1693
X4.9685Y-3.3622
X4.983Y-3.0276
X5.0197Y-2.4508
X5.1142Y-2.7598
X5.1181Y-3.4449
X5.1188Y-4.1024
X5.1365Y-2.9035
X5.1476Y-3.0679
X5.2087Y-2.5236
X5.2352Y-2.6811
X5.2559Y-2.4587
X5.2566Y-3.8898
X5.2913Y-3.1969
X5.2999Y-2.9075
X5.3094Y-2.7929
X5.311Y-2.7303
X5.3209Y-2.4587
X5.3327Y-2.7067
X5.3622Y-3.0315
X5.374Y-2.687
X5.438Y-3.4567
X5.4724Y-2.7264
X5.4823Y-2.5157
X5.4898Y-3.1346
X5.5236Y-2.7362
X5.5236Y-3.5295
X5.5246Y-3.3671
X5.5571Y-3.0472
X5.5748Y-2.7776
X5.5915Y-3.3819
X5.6211Y-2.2884
X5.622Y-2.624
X5.6464Y-3.252
X5.6555Y-2.874
X5.6713Y-3.436
X5.6972Y-3.0264
X5.7244Y-3.1171
X5.7271Y-3.9429
X5.748Y-3.6811
X5.7648Y-2.6299
X5.7726Y-2.6742
X5.7992Y-3.0945
X5.8118Y-3.0154
X5.8602Y-3.5591
X5.8661Y-3.1685
X5.8826Y-2.5748
X5.8976Y-2.7126
X5.9141Y-2.9587
X5.9259Y-2.3996
X5.9961Y-3.3907
X6.0157Y-3.0161
X6.1211Y-3.3888
X6.128Y-3.0945
X6.1739Y-2.1594
X6.189Y-2.7126
X6.1929Y-2.8386
X6.2057Y-3.6407
X6.2231Y-2.124
X6.2559Y-3.9449
X6.2608Y-3.6398
X6.2618Y-3.4675
X6.2815Y-2.9213
X6.3386Y-2.8346
X6.3636Y-2.4337
X6.3898Y-2.9213
X6.3898Y-3.0394
X6.4311Y-2.2323
X6.5Y-2.1
X6.5597Y-2.7185
X6.6306Y-3.498
X6.6476Y-2.1752
X6.7402Y-4.126
X6.8701Y-2.1654
X7.0453Y-2.1181
X7.126Y-2.2933
T2
X5.4124Y-2.9956
X5.4124Y-3.0458
X5.4124Y-3.096
X5.4626Y-2.9956
X5.4626Y-3.0458
X5.4626Y-3.096
X5.5128Y-2.9956
X5.5128Y-3.0458
X5.5128Y-3.096
T4
X4.0944Y-4.126
X4.1444Y-4.126
X6.052Y-3.31
X6.102Y-3.31
X6.152Y-3.31
X6.202Y-3.31
X6.252Y-3.31
X6.4173Y-3.2217
X6.4173Y-3.2717
T5
X6.6126Y-3.0715
X6.6126Y-3.1715
X6.6126Y-3.2715
X6.6126Y-3.3715
X6.7126Y-3.1215
X6.7126Y-3.2215
X6.7126Y-3.3215
X6.7126Y-3.4215
T6
X4.0591Y-2.2185
X4.0696Y-3.1594
X4.0725Y-2.7933
X4.1575Y-2.2185
X4.168Y-3.1594
X4.171Y-2.7933
X4.2559Y-2.2185
X4.2664Y-3.1594
X4.2694Y-2.7933
X4.3543Y-2.2185
X4.3701Y-4.0443
X4.4685Y-4.0443
X4.5039Y-2.5472
X4.5039Y-2.815
X4.5669Y-4.0443
X4.5906Y-2.1772
X4.6024Y-2.5472
X4.6024Y-2.815
X4.6398Y-3.7707
X4.6654Y-4.0443
X4.689Y-2.1772
X4.7008Y-2.5472
X4.7008Y-2.815
X4.7382Y-3.7707
X4.7874Y-2.1772
X4.8366Y-3.7707
X4.8858Y-2.1772
X4.9055Y-4.0443
X4.935Y-3.7707
X5.0039Y-4.0443
X5.1024Y-4.0443
X5.1713Y-3.7707
X5.2008Y-4.0443
X5.2697Y-3.7707
X5.3681Y-3.7707
X5.4429Y-4.0443
X5.4665Y-3.7707
X5.5413Y-4.0443
X5.6142Y-2.1752
X5.6398Y-4.0443
X5.7028Y-3.7707
X5.7126Y-2.1752
X5.7382Y-4.0443
X5.8012Y-3.7707
X5.811Y-2.1752
X5.8996Y-3.7707
X5.9094Y-2.1752
X5.9783Y-4.0443
X5.998Y-3.7707
X6.0079Y-2.1752
X6.0768Y-4.0443
X6.1752Y-4.0443
X6.2343Y-3.7707
X6.2736Y-4.0443
X6.2913Y-2.1772
X6.3327Y-3.7707
X6.3898Y-2.1772
X6.4311Y-3.7707
X6.4882Y-2.1772
X6.499Y-2.5364
X6.499Y-2.8041
X6.5098Y-4.0443
X6.5295Y-3.7707
X6.5866Y-2.1772
X6.5974Y-2.5364
X6.5974Y-2.8041
X6.6083Y-4.0443
X6.6959Y-2.5364
X6.6959Y-2.8041
X6.7067Y-4.0443
X6.8051Y-4.0443
X6.8248Y-2.2165
X6.9232Y-2.2165
X7.0217Y-2.2165
X7.1201Y-2.2165
T3
G00X5.1146Y-2.1969
M15
G01X5.1146Y-2.1732
M16
G05
G00X5.1146Y-2.3713
M15
G01X5.1146Y-2.328
M16
G05
G00X5.4547Y-2.1969
M15
G01X5.4547Y-2.1732
M16
G05
G00X5.4547Y-2.3713
M15
G01X5.4547Y-2.328
M16
G05
M30
