%TF.GenerationSoftware,KiCad,Pcbnew,7.0.10*%
%TF.CreationDate,2024-03-02T05:30:57-08:00*%
%TF.ProjectId,Axion-Board,4178696f-6e2d-4426-9f61-72642e6b6963,rev?*%
%TF.SameCoordinates,Original*%
%TF.FileFunction,Legend,Top*%
%TF.FilePolarity,Positive*%
%FSLAX46Y46*%
G04 Gerber Fmt 4.6, Leading zero omitted, Abs format (unit mm)*
G04 Created by KiCad (PCBNEW 7.0.10) date 2024-03-02 05:30:57*
%MOMM*%
%LPD*%
G01*
G04 APERTURE LIST*
G04 Aperture macros list*
%AMRoundRect*
0 Rectangle with rounded corners*
0 $1 Rounding radius*
0 $2 $3 $4 $5 $6 $7 $8 $9 X,Y pos of 4 corners*
0 Add a 4 corners polygon primitive as box body*
4,1,4,$2,$3,$4,$5,$6,$7,$8,$9,$2,$3,0*
0 Add four circle primitives for the rounded corners*
1,1,$1+$1,$2,$3*
1,1,$1+$1,$4,$5*
1,1,$1+$1,$6,$7*
1,1,$1+$1,$8,$9*
0 Add four rect primitives between the rounded corners*
20,1,$1+$1,$2,$3,$4,$5,0*
20,1,$1+$1,$4,$5,$6,$7,0*
20,1,$1+$1,$6,$7,$8,$9,0*
20,1,$1+$1,$8,$9,$2,$3,0*%
G04 Aperture macros list end*
%ADD10C,0.100000*%
%ADD11C,0.200000*%
%ADD12C,0.150000*%
%ADD13C,0.300000*%
%ADD14C,0.120000*%
%ADD15C,0.152400*%
%ADD16C,3.650000*%
%ADD17R,1.000000X1.000000*%
%ADD18O,1.000000X1.000000*%
%ADD19RoundRect,0.135000X0.185000X-0.135000X0.185000X0.135000X-0.185000X0.135000X-0.185000X-0.135000X0*%
%ADD20RoundRect,0.150000X-0.587500X-0.150000X0.587500X-0.150000X0.587500X0.150000X-0.587500X0.150000X0*%
%ADD21RoundRect,0.250000X-0.600000X-0.725000X0.600000X-0.725000X0.600000X0.725000X-0.600000X0.725000X0*%
%ADD22O,1.700000X1.950000*%
%ADD23RoundRect,0.140000X-0.021213X0.219203X-0.219203X0.021213X0.021213X-0.219203X0.219203X-0.021213X0*%
%ADD24RoundRect,0.140000X0.219203X0.021213X0.021213X0.219203X-0.219203X-0.021213X-0.021213X-0.219203X0*%
%ADD25RoundRect,0.150000X0.587500X0.150000X-0.587500X0.150000X-0.587500X-0.150000X0.587500X-0.150000X0*%
%ADD26RoundRect,0.200000X0.200000X0.275000X-0.200000X0.275000X-0.200000X-0.275000X0.200000X-0.275000X0*%
%ADD27RoundRect,0.250000X0.600000X0.725000X-0.600000X0.725000X-0.600000X-0.725000X0.600000X-0.725000X0*%
%ADD28RoundRect,0.150000X-0.650000X-0.150000X0.650000X-0.150000X0.650000X0.150000X-0.650000X0.150000X0*%
%ADD29RoundRect,0.250000X-0.375000X-0.625000X0.375000X-0.625000X0.375000X0.625000X-0.375000X0.625000X0*%
%ADD30RoundRect,0.050000X0.050000X-0.387500X0.050000X0.387500X-0.050000X0.387500X-0.050000X-0.387500X0*%
%ADD31RoundRect,0.050000X0.387500X-0.050000X0.387500X0.050000X-0.387500X0.050000X-0.387500X-0.050000X0*%
%ADD32RoundRect,0.144000X1.456000X-1.456000X1.456000X1.456000X-1.456000X1.456000X-1.456000X-1.456000X0*%
%ADD33RoundRect,0.140000X-0.140000X-0.170000X0.140000X-0.170000X0.140000X0.170000X-0.140000X0.170000X0*%
%ADD34RoundRect,0.140000X0.140000X0.170000X-0.140000X0.170000X-0.140000X-0.170000X0.140000X-0.170000X0*%
%ADD35RoundRect,0.135000X0.135000X0.185000X-0.135000X0.185000X-0.135000X-0.185000X0.135000X-0.185000X0*%
%ADD36RoundRect,0.135000X-0.135000X-0.185000X0.135000X-0.185000X0.135000X0.185000X-0.135000X0.185000X0*%
%ADD37RoundRect,0.150000X0.150000X-0.512500X0.150000X0.512500X-0.150000X0.512500X-0.150000X-0.512500X0*%
%ADD38RoundRect,0.140000X0.021213X-0.219203X0.219203X-0.021213X-0.021213X0.219203X-0.219203X0.021213X0*%
%ADD39R,1.500000X1.500000*%
%ADD40C,1.500000*%
%ADD41R,1.050000X0.650000*%
%ADD42R,1.200000X1.400000*%
%ADD43C,0.650000*%
%ADD44R,0.600000X1.450000*%
%ADD45R,0.300000X1.450000*%
%ADD46O,1.000000X2.100000*%
%ADD47O,1.000000X1.600000*%
%ADD48RoundRect,0.140000X0.170000X-0.140000X0.170000X0.140000X-0.170000X0.140000X-0.170000X-0.140000X0*%
%ADD49R,1.981200X0.558800*%
%ADD50RoundRect,0.250000X0.850000X0.350000X-0.850000X0.350000X-0.850000X-0.350000X0.850000X-0.350000X0*%
%ADD51RoundRect,0.249997X2.950003X2.650003X-2.950003X2.650003X-2.950003X-2.650003X2.950003X-2.650003X0*%
G04 APERTURE END LIST*
D10*
X110700000Y-95300000D02*
G75*
G03*
X101700000Y-95300000I-4500000J0D01*
G01*
X101700000Y-95300000D02*
G75*
G03*
X110700000Y-95300000I4500000J0D01*
G01*
X182200000Y-63800000D02*
G75*
G03*
X173200000Y-63800000I-4500000J0D01*
G01*
X173200000Y-63800000D02*
G75*
G03*
X182200000Y-63800000I4500000J0D01*
G01*
X182200000Y-95300000D02*
G75*
G03*
X173200000Y-95300000I-4500000J0D01*
G01*
X173200000Y-95300000D02*
G75*
G03*
X182200000Y-95300000I4500000J0D01*
G01*
X110700000Y-63800000D02*
G75*
G03*
X101700000Y-63800000I-4500000J0D01*
G01*
X101700000Y-63800000D02*
G75*
G03*
X110700000Y-63800000I4500000J0D01*
G01*
D11*
X124203006Y-73343409D02*
X124345863Y-73391028D01*
X124345863Y-73391028D02*
X124393482Y-73438647D01*
X124393482Y-73438647D02*
X124441101Y-73533885D01*
X124441101Y-73533885D02*
X124441101Y-73676742D01*
X124441101Y-73676742D02*
X124393482Y-73771980D01*
X124393482Y-73771980D02*
X124345863Y-73819600D01*
X124345863Y-73819600D02*
X124250625Y-73867219D01*
X124250625Y-73867219D02*
X123869673Y-73867219D01*
X123869673Y-73867219D02*
X123869673Y-72867219D01*
X123869673Y-72867219D02*
X124203006Y-72867219D01*
X124203006Y-72867219D02*
X124298244Y-72914838D01*
X124298244Y-72914838D02*
X124345863Y-72962457D01*
X124345863Y-72962457D02*
X124393482Y-73057695D01*
X124393482Y-73057695D02*
X124393482Y-73152933D01*
X124393482Y-73152933D02*
X124345863Y-73248171D01*
X124345863Y-73248171D02*
X124298244Y-73295790D01*
X124298244Y-73295790D02*
X124203006Y-73343409D01*
X124203006Y-73343409D02*
X123869673Y-73343409D01*
X125060149Y-72867219D02*
X125250625Y-72867219D01*
X125250625Y-72867219D02*
X125345863Y-72914838D01*
X125345863Y-72914838D02*
X125441101Y-73010076D01*
X125441101Y-73010076D02*
X125488720Y-73200552D01*
X125488720Y-73200552D02*
X125488720Y-73533885D01*
X125488720Y-73533885D02*
X125441101Y-73724361D01*
X125441101Y-73724361D02*
X125345863Y-73819600D01*
X125345863Y-73819600D02*
X125250625Y-73867219D01*
X125250625Y-73867219D02*
X125060149Y-73867219D01*
X125060149Y-73867219D02*
X124964911Y-73819600D01*
X124964911Y-73819600D02*
X124869673Y-73724361D01*
X124869673Y-73724361D02*
X124822054Y-73533885D01*
X124822054Y-73533885D02*
X124822054Y-73200552D01*
X124822054Y-73200552D02*
X124869673Y-73010076D01*
X124869673Y-73010076D02*
X124964911Y-72914838D01*
X124964911Y-72914838D02*
X125060149Y-72867219D01*
X126107768Y-72867219D02*
X126298244Y-72867219D01*
X126298244Y-72867219D02*
X126393482Y-72914838D01*
X126393482Y-72914838D02*
X126488720Y-73010076D01*
X126488720Y-73010076D02*
X126536339Y-73200552D01*
X126536339Y-73200552D02*
X126536339Y-73533885D01*
X126536339Y-73533885D02*
X126488720Y-73724361D01*
X126488720Y-73724361D02*
X126393482Y-73819600D01*
X126393482Y-73819600D02*
X126298244Y-73867219D01*
X126298244Y-73867219D02*
X126107768Y-73867219D01*
X126107768Y-73867219D02*
X126012530Y-73819600D01*
X126012530Y-73819600D02*
X125917292Y-73724361D01*
X125917292Y-73724361D02*
X125869673Y-73533885D01*
X125869673Y-73533885D02*
X125869673Y-73200552D01*
X125869673Y-73200552D02*
X125917292Y-73010076D01*
X125917292Y-73010076D02*
X126012530Y-72914838D01*
X126012530Y-72914838D02*
X126107768Y-72867219D01*
X126822054Y-72867219D02*
X127393482Y-72867219D01*
X127107768Y-73867219D02*
X127107768Y-72867219D01*
X122905387Y-67700552D02*
X122667292Y-67700552D01*
X122667292Y-67700552D02*
X122667292Y-66271980D01*
X122667292Y-66271980D02*
X122905387Y-66271980D01*
X123286340Y-67367219D02*
X123286340Y-66367219D01*
X123286340Y-66367219D02*
X123524435Y-66367219D01*
X123524435Y-66367219D02*
X123667292Y-66414838D01*
X123667292Y-66414838D02*
X123762530Y-66510076D01*
X123762530Y-66510076D02*
X123810149Y-66605314D01*
X123810149Y-66605314D02*
X123857768Y-66795790D01*
X123857768Y-66795790D02*
X123857768Y-66938647D01*
X123857768Y-66938647D02*
X123810149Y-67129123D01*
X123810149Y-67129123D02*
X123762530Y-67224361D01*
X123762530Y-67224361D02*
X123667292Y-67319600D01*
X123667292Y-67319600D02*
X123524435Y-67367219D01*
X123524435Y-67367219D02*
X123286340Y-67367219D01*
X124524435Y-67700552D02*
X124524435Y-66271980D01*
X125762530Y-66414838D02*
X125667292Y-66367219D01*
X125667292Y-66367219D02*
X125524435Y-66367219D01*
X125524435Y-66367219D02*
X125381578Y-66414838D01*
X125381578Y-66414838D02*
X125286340Y-66510076D01*
X125286340Y-66510076D02*
X125238721Y-66605314D01*
X125238721Y-66605314D02*
X125191102Y-66795790D01*
X125191102Y-66795790D02*
X125191102Y-66938647D01*
X125191102Y-66938647D02*
X125238721Y-67129123D01*
X125238721Y-67129123D02*
X125286340Y-67224361D01*
X125286340Y-67224361D02*
X125381578Y-67319600D01*
X125381578Y-67319600D02*
X125524435Y-67367219D01*
X125524435Y-67367219D02*
X125619673Y-67367219D01*
X125619673Y-67367219D02*
X125762530Y-67319600D01*
X125762530Y-67319600D02*
X125810149Y-67271980D01*
X125810149Y-67271980D02*
X125810149Y-66938647D01*
X125810149Y-66938647D02*
X125619673Y-66938647D01*
X126476816Y-67700552D02*
X126476816Y-66271980D01*
X127048245Y-66367219D02*
X127381578Y-67367219D01*
X127381578Y-67367219D02*
X127714911Y-66367219D01*
X127953007Y-67700552D02*
X128191102Y-67700552D01*
X128191102Y-67700552D02*
X128191102Y-66271980D01*
X128191102Y-66271980D02*
X127953007Y-66271980D01*
X153454600Y-82642945D02*
X153502219Y-82500088D01*
X153502219Y-82500088D02*
X153502219Y-82261993D01*
X153502219Y-82261993D02*
X153454600Y-82166755D01*
X153454600Y-82166755D02*
X153406980Y-82119136D01*
X153406980Y-82119136D02*
X153311742Y-82071517D01*
X153311742Y-82071517D02*
X153216504Y-82071517D01*
X153216504Y-82071517D02*
X153121266Y-82119136D01*
X153121266Y-82119136D02*
X153073647Y-82166755D01*
X153073647Y-82166755D02*
X153026028Y-82261993D01*
X153026028Y-82261993D02*
X152978409Y-82452469D01*
X152978409Y-82452469D02*
X152930790Y-82547707D01*
X152930790Y-82547707D02*
X152883171Y-82595326D01*
X152883171Y-82595326D02*
X152787933Y-82642945D01*
X152787933Y-82642945D02*
X152692695Y-82642945D01*
X152692695Y-82642945D02*
X152597457Y-82595326D01*
X152597457Y-82595326D02*
X152549838Y-82547707D01*
X152549838Y-82547707D02*
X152502219Y-82452469D01*
X152502219Y-82452469D02*
X152502219Y-82214374D01*
X152502219Y-82214374D02*
X152549838Y-82071517D01*
X152502219Y-81738183D02*
X153502219Y-81500088D01*
X153502219Y-81500088D02*
X152787933Y-81309612D01*
X152787933Y-81309612D02*
X153502219Y-81119136D01*
X153502219Y-81119136D02*
X152502219Y-80881041D01*
X153406980Y-79928660D02*
X153454600Y-79976279D01*
X153454600Y-79976279D02*
X153502219Y-80119136D01*
X153502219Y-80119136D02*
X153502219Y-80214374D01*
X153502219Y-80214374D02*
X153454600Y-80357231D01*
X153454600Y-80357231D02*
X153359361Y-80452469D01*
X153359361Y-80452469D02*
X153264123Y-80500088D01*
X153264123Y-80500088D02*
X153073647Y-80547707D01*
X153073647Y-80547707D02*
X152930790Y-80547707D01*
X152930790Y-80547707D02*
X152740314Y-80500088D01*
X152740314Y-80500088D02*
X152645076Y-80452469D01*
X152645076Y-80452469D02*
X152549838Y-80357231D01*
X152549838Y-80357231D02*
X152502219Y-80214374D01*
X152502219Y-80214374D02*
X152502219Y-80119136D01*
X152502219Y-80119136D02*
X152549838Y-79976279D01*
X152549838Y-79976279D02*
X152597457Y-79928660D01*
X153502219Y-79023898D02*
X153502219Y-79500088D01*
X153502219Y-79500088D02*
X152502219Y-79500088D01*
X153502219Y-78690564D02*
X152502219Y-78690564D01*
X153502219Y-78119136D02*
X152930790Y-78547707D01*
X152502219Y-78119136D02*
X153073647Y-78690564D01*
X155064600Y-82642945D02*
X155112219Y-82500088D01*
X155112219Y-82500088D02*
X155112219Y-82261993D01*
X155112219Y-82261993D02*
X155064600Y-82166755D01*
X155064600Y-82166755D02*
X155016980Y-82119136D01*
X155016980Y-82119136D02*
X154921742Y-82071517D01*
X154921742Y-82071517D02*
X154826504Y-82071517D01*
X154826504Y-82071517D02*
X154731266Y-82119136D01*
X154731266Y-82119136D02*
X154683647Y-82166755D01*
X154683647Y-82166755D02*
X154636028Y-82261993D01*
X154636028Y-82261993D02*
X154588409Y-82452469D01*
X154588409Y-82452469D02*
X154540790Y-82547707D01*
X154540790Y-82547707D02*
X154493171Y-82595326D01*
X154493171Y-82595326D02*
X154397933Y-82642945D01*
X154397933Y-82642945D02*
X154302695Y-82642945D01*
X154302695Y-82642945D02*
X154207457Y-82595326D01*
X154207457Y-82595326D02*
X154159838Y-82547707D01*
X154159838Y-82547707D02*
X154112219Y-82452469D01*
X154112219Y-82452469D02*
X154112219Y-82214374D01*
X154112219Y-82214374D02*
X154159838Y-82071517D01*
X154112219Y-81738183D02*
X155112219Y-81500088D01*
X155112219Y-81500088D02*
X154397933Y-81309612D01*
X154397933Y-81309612D02*
X155112219Y-81119136D01*
X155112219Y-81119136D02*
X154112219Y-80881041D01*
X155112219Y-80500088D02*
X154112219Y-80500088D01*
X154112219Y-80500088D02*
X154112219Y-80261993D01*
X154112219Y-80261993D02*
X154159838Y-80119136D01*
X154159838Y-80119136D02*
X154255076Y-80023898D01*
X154255076Y-80023898D02*
X154350314Y-79976279D01*
X154350314Y-79976279D02*
X154540790Y-79928660D01*
X154540790Y-79928660D02*
X154683647Y-79928660D01*
X154683647Y-79928660D02*
X154874123Y-79976279D01*
X154874123Y-79976279D02*
X154969361Y-80023898D01*
X154969361Y-80023898D02*
X155064600Y-80119136D01*
X155064600Y-80119136D02*
X155112219Y-80261993D01*
X155112219Y-80261993D02*
X155112219Y-80500088D01*
X155769838Y-82071517D02*
X155722219Y-82166755D01*
X155722219Y-82166755D02*
X155722219Y-82309612D01*
X155722219Y-82309612D02*
X155769838Y-82452469D01*
X155769838Y-82452469D02*
X155865076Y-82547707D01*
X155865076Y-82547707D02*
X155960314Y-82595326D01*
X155960314Y-82595326D02*
X156150790Y-82642945D01*
X156150790Y-82642945D02*
X156293647Y-82642945D01*
X156293647Y-82642945D02*
X156484123Y-82595326D01*
X156484123Y-82595326D02*
X156579361Y-82547707D01*
X156579361Y-82547707D02*
X156674600Y-82452469D01*
X156674600Y-82452469D02*
X156722219Y-82309612D01*
X156722219Y-82309612D02*
X156722219Y-82214374D01*
X156722219Y-82214374D02*
X156674600Y-82071517D01*
X156674600Y-82071517D02*
X156626980Y-82023898D01*
X156626980Y-82023898D02*
X156293647Y-82023898D01*
X156293647Y-82023898D02*
X156293647Y-82214374D01*
X156722219Y-81595326D02*
X155722219Y-81595326D01*
X155722219Y-81595326D02*
X156722219Y-81023898D01*
X156722219Y-81023898D02*
X155722219Y-81023898D01*
X156722219Y-80547707D02*
X155722219Y-80547707D01*
X155722219Y-80547707D02*
X155722219Y-80309612D01*
X155722219Y-80309612D02*
X155769838Y-80166755D01*
X155769838Y-80166755D02*
X155865076Y-80071517D01*
X155865076Y-80071517D02*
X155960314Y-80023898D01*
X155960314Y-80023898D02*
X156150790Y-79976279D01*
X156150790Y-79976279D02*
X156293647Y-79976279D01*
X156293647Y-79976279D02*
X156484123Y-80023898D01*
X156484123Y-80023898D02*
X156579361Y-80071517D01*
X156579361Y-80071517D02*
X156674600Y-80166755D01*
X156674600Y-80166755D02*
X156722219Y-80309612D01*
X156722219Y-80309612D02*
X156722219Y-80547707D01*
X157332219Y-82690564D02*
X157332219Y-82071517D01*
X157332219Y-82071517D02*
X157713171Y-82404850D01*
X157713171Y-82404850D02*
X157713171Y-82261993D01*
X157713171Y-82261993D02*
X157760790Y-82166755D01*
X157760790Y-82166755D02*
X157808409Y-82119136D01*
X157808409Y-82119136D02*
X157903647Y-82071517D01*
X157903647Y-82071517D02*
X158141742Y-82071517D01*
X158141742Y-82071517D02*
X158236980Y-82119136D01*
X158236980Y-82119136D02*
X158284600Y-82166755D01*
X158284600Y-82166755D02*
X158332219Y-82261993D01*
X158332219Y-82261993D02*
X158332219Y-82547707D01*
X158332219Y-82547707D02*
X158284600Y-82642945D01*
X158284600Y-82642945D02*
X158236980Y-82690564D01*
X157332219Y-81785802D02*
X158332219Y-81452469D01*
X158332219Y-81452469D02*
X157332219Y-81119136D01*
X157332219Y-80881040D02*
X157332219Y-80261993D01*
X157332219Y-80261993D02*
X157713171Y-80595326D01*
X157713171Y-80595326D02*
X157713171Y-80452469D01*
X157713171Y-80452469D02*
X157760790Y-80357231D01*
X157760790Y-80357231D02*
X157808409Y-80309612D01*
X157808409Y-80309612D02*
X157903647Y-80261993D01*
X157903647Y-80261993D02*
X158141742Y-80261993D01*
X158141742Y-80261993D02*
X158236980Y-80309612D01*
X158236980Y-80309612D02*
X158284600Y-80357231D01*
X158284600Y-80357231D02*
X158332219Y-80452469D01*
X158332219Y-80452469D02*
X158332219Y-80738183D01*
X158332219Y-80738183D02*
X158284600Y-80833421D01*
X158284600Y-80833421D02*
X158236980Y-80881040D01*
X159942219Y-82023898D02*
X159466028Y-82357231D01*
X159942219Y-82595326D02*
X158942219Y-82595326D01*
X158942219Y-82595326D02*
X158942219Y-82214374D01*
X158942219Y-82214374D02*
X158989838Y-82119136D01*
X158989838Y-82119136D02*
X159037457Y-82071517D01*
X159037457Y-82071517D02*
X159132695Y-82023898D01*
X159132695Y-82023898D02*
X159275552Y-82023898D01*
X159275552Y-82023898D02*
X159370790Y-82071517D01*
X159370790Y-82071517D02*
X159418409Y-82119136D01*
X159418409Y-82119136D02*
X159466028Y-82214374D01*
X159466028Y-82214374D02*
X159466028Y-82595326D01*
X159418409Y-81595326D02*
X159418409Y-81261993D01*
X159942219Y-81119136D02*
X159942219Y-81595326D01*
X159942219Y-81595326D02*
X158942219Y-81595326D01*
X158942219Y-81595326D02*
X158942219Y-81119136D01*
X159894600Y-80738183D02*
X159942219Y-80595326D01*
X159942219Y-80595326D02*
X159942219Y-80357231D01*
X159942219Y-80357231D02*
X159894600Y-80261993D01*
X159894600Y-80261993D02*
X159846980Y-80214374D01*
X159846980Y-80214374D02*
X159751742Y-80166755D01*
X159751742Y-80166755D02*
X159656504Y-80166755D01*
X159656504Y-80166755D02*
X159561266Y-80214374D01*
X159561266Y-80214374D02*
X159513647Y-80261993D01*
X159513647Y-80261993D02*
X159466028Y-80357231D01*
X159466028Y-80357231D02*
X159418409Y-80547707D01*
X159418409Y-80547707D02*
X159370790Y-80642945D01*
X159370790Y-80642945D02*
X159323171Y-80690564D01*
X159323171Y-80690564D02*
X159227933Y-80738183D01*
X159227933Y-80738183D02*
X159132695Y-80738183D01*
X159132695Y-80738183D02*
X159037457Y-80690564D01*
X159037457Y-80690564D02*
X158989838Y-80642945D01*
X158989838Y-80642945D02*
X158942219Y-80547707D01*
X158942219Y-80547707D02*
X158942219Y-80309612D01*
X158942219Y-80309612D02*
X158989838Y-80166755D01*
X159418409Y-79738183D02*
X159418409Y-79404850D01*
X159942219Y-79261993D02*
X159942219Y-79738183D01*
X159942219Y-79738183D02*
X158942219Y-79738183D01*
X158942219Y-79738183D02*
X158942219Y-79261993D01*
X158942219Y-78976278D02*
X158942219Y-78404850D01*
X159942219Y-78690564D02*
X158942219Y-78690564D01*
X143094673Y-59092219D02*
X143094673Y-59901742D01*
X143094673Y-59901742D02*
X143142292Y-59996980D01*
X143142292Y-59996980D02*
X143189911Y-60044600D01*
X143189911Y-60044600D02*
X143285149Y-60092219D01*
X143285149Y-60092219D02*
X143475625Y-60092219D01*
X143475625Y-60092219D02*
X143570863Y-60044600D01*
X143570863Y-60044600D02*
X143618482Y-59996980D01*
X143618482Y-59996980D02*
X143666101Y-59901742D01*
X143666101Y-59901742D02*
X143666101Y-59092219D01*
X144094673Y-60044600D02*
X144237530Y-60092219D01*
X144237530Y-60092219D02*
X144475625Y-60092219D01*
X144475625Y-60092219D02*
X144570863Y-60044600D01*
X144570863Y-60044600D02*
X144618482Y-59996980D01*
X144618482Y-59996980D02*
X144666101Y-59901742D01*
X144666101Y-59901742D02*
X144666101Y-59806504D01*
X144666101Y-59806504D02*
X144618482Y-59711266D01*
X144618482Y-59711266D02*
X144570863Y-59663647D01*
X144570863Y-59663647D02*
X144475625Y-59616028D01*
X144475625Y-59616028D02*
X144285149Y-59568409D01*
X144285149Y-59568409D02*
X144189911Y-59520790D01*
X144189911Y-59520790D02*
X144142292Y-59473171D01*
X144142292Y-59473171D02*
X144094673Y-59377933D01*
X144094673Y-59377933D02*
X144094673Y-59282695D01*
X144094673Y-59282695D02*
X144142292Y-59187457D01*
X144142292Y-59187457D02*
X144189911Y-59139838D01*
X144189911Y-59139838D02*
X144285149Y-59092219D01*
X144285149Y-59092219D02*
X144523244Y-59092219D01*
X144523244Y-59092219D02*
X144666101Y-59139838D01*
X145428006Y-59568409D02*
X145570863Y-59616028D01*
X145570863Y-59616028D02*
X145618482Y-59663647D01*
X145618482Y-59663647D02*
X145666101Y-59758885D01*
X145666101Y-59758885D02*
X145666101Y-59901742D01*
X145666101Y-59901742D02*
X145618482Y-59996980D01*
X145618482Y-59996980D02*
X145570863Y-60044600D01*
X145570863Y-60044600D02*
X145475625Y-60092219D01*
X145475625Y-60092219D02*
X145094673Y-60092219D01*
X145094673Y-60092219D02*
X145094673Y-59092219D01*
X145094673Y-59092219D02*
X145428006Y-59092219D01*
X145428006Y-59092219D02*
X145523244Y-59139838D01*
X145523244Y-59139838D02*
X145570863Y-59187457D01*
X145570863Y-59187457D02*
X145618482Y-59282695D01*
X145618482Y-59282695D02*
X145618482Y-59377933D01*
X145618482Y-59377933D02*
X145570863Y-59473171D01*
X145570863Y-59473171D02*
X145523244Y-59520790D01*
X145523244Y-59520790D02*
X145428006Y-59568409D01*
X145428006Y-59568409D02*
X145094673Y-59568409D01*
X146856578Y-60092219D02*
X146856578Y-59092219D01*
X146856578Y-59568409D02*
X147428006Y-59568409D01*
X147428006Y-60092219D02*
X147428006Y-59092219D01*
X148285149Y-60044600D02*
X148189911Y-60092219D01*
X148189911Y-60092219D02*
X147999435Y-60092219D01*
X147999435Y-60092219D02*
X147904197Y-60044600D01*
X147904197Y-60044600D02*
X147856578Y-59949361D01*
X147856578Y-59949361D02*
X147856578Y-59568409D01*
X147856578Y-59568409D02*
X147904197Y-59473171D01*
X147904197Y-59473171D02*
X147999435Y-59425552D01*
X147999435Y-59425552D02*
X148189911Y-59425552D01*
X148189911Y-59425552D02*
X148285149Y-59473171D01*
X148285149Y-59473171D02*
X148332768Y-59568409D01*
X148332768Y-59568409D02*
X148332768Y-59663647D01*
X148332768Y-59663647D02*
X147856578Y-59758885D01*
X149189911Y-60092219D02*
X149189911Y-59568409D01*
X149189911Y-59568409D02*
X149142292Y-59473171D01*
X149142292Y-59473171D02*
X149047054Y-59425552D01*
X149047054Y-59425552D02*
X148856578Y-59425552D01*
X148856578Y-59425552D02*
X148761340Y-59473171D01*
X149189911Y-60044600D02*
X149094673Y-60092219D01*
X149094673Y-60092219D02*
X148856578Y-60092219D01*
X148856578Y-60092219D02*
X148761340Y-60044600D01*
X148761340Y-60044600D02*
X148713721Y-59949361D01*
X148713721Y-59949361D02*
X148713721Y-59854123D01*
X148713721Y-59854123D02*
X148761340Y-59758885D01*
X148761340Y-59758885D02*
X148856578Y-59711266D01*
X148856578Y-59711266D02*
X149094673Y-59711266D01*
X149094673Y-59711266D02*
X149189911Y-59663647D01*
X150094673Y-60092219D02*
X150094673Y-59092219D01*
X150094673Y-60044600D02*
X149999435Y-60092219D01*
X149999435Y-60092219D02*
X149808959Y-60092219D01*
X149808959Y-60092219D02*
X149713721Y-60044600D01*
X149713721Y-60044600D02*
X149666102Y-59996980D01*
X149666102Y-59996980D02*
X149618483Y-59901742D01*
X149618483Y-59901742D02*
X149618483Y-59616028D01*
X149618483Y-59616028D02*
X149666102Y-59520790D01*
X149666102Y-59520790D02*
X149713721Y-59473171D01*
X149713721Y-59473171D02*
X149808959Y-59425552D01*
X149808959Y-59425552D02*
X149999435Y-59425552D01*
X149999435Y-59425552D02*
X150094673Y-59473171D01*
X150951816Y-60044600D02*
X150856578Y-60092219D01*
X150856578Y-60092219D02*
X150666102Y-60092219D01*
X150666102Y-60092219D02*
X150570864Y-60044600D01*
X150570864Y-60044600D02*
X150523245Y-59949361D01*
X150523245Y-59949361D02*
X150523245Y-59568409D01*
X150523245Y-59568409D02*
X150570864Y-59473171D01*
X150570864Y-59473171D02*
X150666102Y-59425552D01*
X150666102Y-59425552D02*
X150856578Y-59425552D01*
X150856578Y-59425552D02*
X150951816Y-59473171D01*
X150951816Y-59473171D02*
X150999435Y-59568409D01*
X150999435Y-59568409D02*
X150999435Y-59663647D01*
X150999435Y-59663647D02*
X150523245Y-59758885D01*
X151428007Y-60092219D02*
X151428007Y-59425552D01*
X151428007Y-59616028D02*
X151475626Y-59520790D01*
X151475626Y-59520790D02*
X151523245Y-59473171D01*
X151523245Y-59473171D02*
X151618483Y-59425552D01*
X151618483Y-59425552D02*
X151713721Y-59425552D01*
X144305387Y-92725552D02*
X144067292Y-92725552D01*
X144067292Y-92725552D02*
X144067292Y-91296980D01*
X144067292Y-91296980D02*
X144305387Y-91296980D01*
X145019673Y-91868409D02*
X145162530Y-91916028D01*
X145162530Y-91916028D02*
X145210149Y-91963647D01*
X145210149Y-91963647D02*
X145257768Y-92058885D01*
X145257768Y-92058885D02*
X145257768Y-92201742D01*
X145257768Y-92201742D02*
X145210149Y-92296980D01*
X145210149Y-92296980D02*
X145162530Y-92344600D01*
X145162530Y-92344600D02*
X145067292Y-92392219D01*
X145067292Y-92392219D02*
X144686340Y-92392219D01*
X144686340Y-92392219D02*
X144686340Y-91392219D01*
X144686340Y-91392219D02*
X145019673Y-91392219D01*
X145019673Y-91392219D02*
X145114911Y-91439838D01*
X145114911Y-91439838D02*
X145162530Y-91487457D01*
X145162530Y-91487457D02*
X145210149Y-91582695D01*
X145210149Y-91582695D02*
X145210149Y-91677933D01*
X145210149Y-91677933D02*
X145162530Y-91773171D01*
X145162530Y-91773171D02*
X145114911Y-91820790D01*
X145114911Y-91820790D02*
X145019673Y-91868409D01*
X145019673Y-91868409D02*
X144686340Y-91868409D01*
X145543483Y-91392219D02*
X146114911Y-91392219D01*
X145829197Y-92392219D02*
X145829197Y-91392219D01*
X146686340Y-92725552D02*
X146686340Y-91296980D01*
X147876816Y-92392219D02*
X147400626Y-92392219D01*
X147400626Y-92392219D02*
X147400626Y-91392219D01*
X148210150Y-91868409D02*
X148543483Y-91868409D01*
X148686340Y-92392219D02*
X148210150Y-92392219D01*
X148210150Y-92392219D02*
X148210150Y-91392219D01*
X148210150Y-91392219D02*
X148686340Y-91392219D01*
X149114912Y-92392219D02*
X149114912Y-91392219D01*
X149114912Y-91392219D02*
X149353007Y-91392219D01*
X149353007Y-91392219D02*
X149495864Y-91439838D01*
X149495864Y-91439838D02*
X149591102Y-91535076D01*
X149591102Y-91535076D02*
X149638721Y-91630314D01*
X149638721Y-91630314D02*
X149686340Y-91820790D01*
X149686340Y-91820790D02*
X149686340Y-91963647D01*
X149686340Y-91963647D02*
X149638721Y-92154123D01*
X149638721Y-92154123D02*
X149591102Y-92249361D01*
X149591102Y-92249361D02*
X149495864Y-92344600D01*
X149495864Y-92344600D02*
X149353007Y-92392219D01*
X149353007Y-92392219D02*
X149114912Y-92392219D01*
X150353007Y-92725552D02*
X150353007Y-91296980D01*
X150924436Y-91392219D02*
X151257769Y-92392219D01*
X151257769Y-92392219D02*
X151591102Y-91392219D01*
X152162531Y-92725552D02*
X152162531Y-91296980D01*
X153400626Y-91439838D02*
X153305388Y-91392219D01*
X153305388Y-91392219D02*
X153162531Y-91392219D01*
X153162531Y-91392219D02*
X153019674Y-91439838D01*
X153019674Y-91439838D02*
X152924436Y-91535076D01*
X152924436Y-91535076D02*
X152876817Y-91630314D01*
X152876817Y-91630314D02*
X152829198Y-91820790D01*
X152829198Y-91820790D02*
X152829198Y-91963647D01*
X152829198Y-91963647D02*
X152876817Y-92154123D01*
X152876817Y-92154123D02*
X152924436Y-92249361D01*
X152924436Y-92249361D02*
X153019674Y-92344600D01*
X153019674Y-92344600D02*
X153162531Y-92392219D01*
X153162531Y-92392219D02*
X153257769Y-92392219D01*
X153257769Y-92392219D02*
X153400626Y-92344600D01*
X153400626Y-92344600D02*
X153448245Y-92296980D01*
X153448245Y-92296980D02*
X153448245Y-91963647D01*
X153448245Y-91963647D02*
X153257769Y-91963647D01*
X153876817Y-92392219D02*
X153876817Y-91392219D01*
X153876817Y-91392219D02*
X154448245Y-92392219D01*
X154448245Y-92392219D02*
X154448245Y-91392219D01*
X154924436Y-92392219D02*
X154924436Y-91392219D01*
X154924436Y-91392219D02*
X155162531Y-91392219D01*
X155162531Y-91392219D02*
X155305388Y-91439838D01*
X155305388Y-91439838D02*
X155400626Y-91535076D01*
X155400626Y-91535076D02*
X155448245Y-91630314D01*
X155448245Y-91630314D02*
X155495864Y-91820790D01*
X155495864Y-91820790D02*
X155495864Y-91963647D01*
X155495864Y-91963647D02*
X155448245Y-92154123D01*
X155448245Y-92154123D02*
X155400626Y-92249361D01*
X155400626Y-92249361D02*
X155305388Y-92344600D01*
X155305388Y-92344600D02*
X155162531Y-92392219D01*
X155162531Y-92392219D02*
X154924436Y-92392219D01*
X155829198Y-92725552D02*
X156067293Y-92725552D01*
X156067293Y-92725552D02*
X156067293Y-91296980D01*
X156067293Y-91296980D02*
X155829198Y-91296980D01*
D12*
X147648809Y-80428628D02*
X147648809Y-80904819D01*
X147315476Y-79904819D02*
X147648809Y-80428628D01*
X147648809Y-80428628D02*
X147982142Y-79904819D01*
X148839285Y-80904819D02*
X148267857Y-80904819D01*
X148553571Y-80904819D02*
X148553571Y-79904819D01*
X148553571Y-79904819D02*
X148458333Y-80047676D01*
X148458333Y-80047676D02*
X148363095Y-80142914D01*
X148363095Y-80142914D02*
X148267857Y-80190533D01*
D11*
X102633601Y-75767219D02*
X102300268Y-75291028D01*
X102062173Y-75767219D02*
X102062173Y-74767219D01*
X102062173Y-74767219D02*
X102443125Y-74767219D01*
X102443125Y-74767219D02*
X102538363Y-74814838D01*
X102538363Y-74814838D02*
X102585982Y-74862457D01*
X102585982Y-74862457D02*
X102633601Y-74957695D01*
X102633601Y-74957695D02*
X102633601Y-75100552D01*
X102633601Y-75100552D02*
X102585982Y-75195790D01*
X102585982Y-75195790D02*
X102538363Y-75243409D01*
X102538363Y-75243409D02*
X102443125Y-75291028D01*
X102443125Y-75291028D02*
X102062173Y-75291028D01*
X103585982Y-74814838D02*
X103490744Y-74767219D01*
X103490744Y-74767219D02*
X103347887Y-74767219D01*
X103347887Y-74767219D02*
X103205030Y-74814838D01*
X103205030Y-74814838D02*
X103109792Y-74910076D01*
X103109792Y-74910076D02*
X103062173Y-75005314D01*
X103062173Y-75005314D02*
X103014554Y-75195790D01*
X103014554Y-75195790D02*
X103014554Y-75338647D01*
X103014554Y-75338647D02*
X103062173Y-75529123D01*
X103062173Y-75529123D02*
X103109792Y-75624361D01*
X103109792Y-75624361D02*
X103205030Y-75719600D01*
X103205030Y-75719600D02*
X103347887Y-75767219D01*
X103347887Y-75767219D02*
X103443125Y-75767219D01*
X103443125Y-75767219D02*
X103585982Y-75719600D01*
X103585982Y-75719600D02*
X103633601Y-75671980D01*
X103633601Y-75671980D02*
X103633601Y-75338647D01*
X103633601Y-75338647D02*
X103443125Y-75338647D01*
X104395506Y-75243409D02*
X104538363Y-75291028D01*
X104538363Y-75291028D02*
X104585982Y-75338647D01*
X104585982Y-75338647D02*
X104633601Y-75433885D01*
X104633601Y-75433885D02*
X104633601Y-75576742D01*
X104633601Y-75576742D02*
X104585982Y-75671980D01*
X104585982Y-75671980D02*
X104538363Y-75719600D01*
X104538363Y-75719600D02*
X104443125Y-75767219D01*
X104443125Y-75767219D02*
X104062173Y-75767219D01*
X104062173Y-75767219D02*
X104062173Y-74767219D01*
X104062173Y-74767219D02*
X104395506Y-74767219D01*
X104395506Y-74767219D02*
X104490744Y-74814838D01*
X104490744Y-74814838D02*
X104538363Y-74862457D01*
X104538363Y-74862457D02*
X104585982Y-74957695D01*
X104585982Y-74957695D02*
X104585982Y-75052933D01*
X104585982Y-75052933D02*
X104538363Y-75148171D01*
X104538363Y-75148171D02*
X104490744Y-75195790D01*
X104490744Y-75195790D02*
X104395506Y-75243409D01*
X104395506Y-75243409D02*
X104062173Y-75243409D01*
X105585982Y-75767219D02*
X105014554Y-75767219D01*
X105300268Y-75767219D02*
X105300268Y-74767219D01*
X105300268Y-74767219D02*
X105205030Y-74910076D01*
X105205030Y-74910076D02*
X105109792Y-75005314D01*
X105109792Y-75005314D02*
X105014554Y-75052933D01*
X106728839Y-74719600D02*
X105871697Y-76005314D01*
X107014554Y-74862457D02*
X107062173Y-74814838D01*
X107062173Y-74814838D02*
X107157411Y-74767219D01*
X107157411Y-74767219D02*
X107395506Y-74767219D01*
X107395506Y-74767219D02*
X107490744Y-74814838D01*
X107490744Y-74814838D02*
X107538363Y-74862457D01*
X107538363Y-74862457D02*
X107585982Y-74957695D01*
X107585982Y-74957695D02*
X107585982Y-75052933D01*
X107585982Y-75052933D02*
X107538363Y-75195790D01*
X107538363Y-75195790D02*
X106966935Y-75767219D01*
X106966935Y-75767219D02*
X107585982Y-75767219D01*
X166117219Y-89580326D02*
X165117219Y-89580326D01*
X165117219Y-89580326D02*
X165117219Y-89199374D01*
X165117219Y-89199374D02*
X165164838Y-89104136D01*
X165164838Y-89104136D02*
X165212457Y-89056517D01*
X165212457Y-89056517D02*
X165307695Y-89008898D01*
X165307695Y-89008898D02*
X165450552Y-89008898D01*
X165450552Y-89008898D02*
X165545790Y-89056517D01*
X165545790Y-89056517D02*
X165593409Y-89104136D01*
X165593409Y-89104136D02*
X165641028Y-89199374D01*
X165641028Y-89199374D02*
X165641028Y-89580326D01*
X166117219Y-88437469D02*
X166069600Y-88532707D01*
X166069600Y-88532707D02*
X165974361Y-88580326D01*
X165974361Y-88580326D02*
X165117219Y-88580326D01*
X166117219Y-87627945D02*
X165593409Y-87627945D01*
X165593409Y-87627945D02*
X165498171Y-87675564D01*
X165498171Y-87675564D02*
X165450552Y-87770802D01*
X165450552Y-87770802D02*
X165450552Y-87961278D01*
X165450552Y-87961278D02*
X165498171Y-88056516D01*
X166069600Y-87627945D02*
X166117219Y-87723183D01*
X166117219Y-87723183D02*
X166117219Y-87961278D01*
X166117219Y-87961278D02*
X166069600Y-88056516D01*
X166069600Y-88056516D02*
X165974361Y-88104135D01*
X165974361Y-88104135D02*
X165879123Y-88104135D01*
X165879123Y-88104135D02*
X165783885Y-88056516D01*
X165783885Y-88056516D02*
X165736266Y-87961278D01*
X165736266Y-87961278D02*
X165736266Y-87723183D01*
X165736266Y-87723183D02*
X165688647Y-87627945D01*
X165450552Y-87246992D02*
X166117219Y-87008897D01*
X165450552Y-86770802D02*
X166117219Y-87008897D01*
X166117219Y-87008897D02*
X166355314Y-87104135D01*
X166355314Y-87104135D02*
X166402933Y-87151754D01*
X166402933Y-87151754D02*
X166450552Y-87246992D01*
X166069600Y-86437468D02*
X166117219Y-86294611D01*
X166117219Y-86294611D02*
X166117219Y-86056516D01*
X166117219Y-86056516D02*
X166069600Y-85961278D01*
X166069600Y-85961278D02*
X166021980Y-85913659D01*
X166021980Y-85913659D02*
X165926742Y-85866040D01*
X165926742Y-85866040D02*
X165831504Y-85866040D01*
X165831504Y-85866040D02*
X165736266Y-85913659D01*
X165736266Y-85913659D02*
X165688647Y-85961278D01*
X165688647Y-85961278D02*
X165641028Y-86056516D01*
X165641028Y-86056516D02*
X165593409Y-86246992D01*
X165593409Y-86246992D02*
X165545790Y-86342230D01*
X165545790Y-86342230D02*
X165498171Y-86389849D01*
X165498171Y-86389849D02*
X165402933Y-86437468D01*
X165402933Y-86437468D02*
X165307695Y-86437468D01*
X165307695Y-86437468D02*
X165212457Y-86389849D01*
X165212457Y-86389849D02*
X165164838Y-86342230D01*
X165164838Y-86342230D02*
X165117219Y-86246992D01*
X165117219Y-86246992D02*
X165117219Y-86008897D01*
X165117219Y-86008897D02*
X165164838Y-85866040D01*
X165450552Y-85580325D02*
X165450552Y-85199373D01*
X165117219Y-85437468D02*
X165974361Y-85437468D01*
X165974361Y-85437468D02*
X166069600Y-85389849D01*
X166069600Y-85389849D02*
X166117219Y-85294611D01*
X166117219Y-85294611D02*
X166117219Y-85199373D01*
X166117219Y-84437468D02*
X165593409Y-84437468D01*
X165593409Y-84437468D02*
X165498171Y-84485087D01*
X165498171Y-84485087D02*
X165450552Y-84580325D01*
X165450552Y-84580325D02*
X165450552Y-84770801D01*
X165450552Y-84770801D02*
X165498171Y-84866039D01*
X166069600Y-84437468D02*
X166117219Y-84532706D01*
X166117219Y-84532706D02*
X166117219Y-84770801D01*
X166117219Y-84770801D02*
X166069600Y-84866039D01*
X166069600Y-84866039D02*
X165974361Y-84913658D01*
X165974361Y-84913658D02*
X165879123Y-84913658D01*
X165879123Y-84913658D02*
X165783885Y-84866039D01*
X165783885Y-84866039D02*
X165736266Y-84770801D01*
X165736266Y-84770801D02*
X165736266Y-84532706D01*
X165736266Y-84532706D02*
X165688647Y-84437468D01*
X165450552Y-84104134D02*
X165450552Y-83723182D01*
X165117219Y-83961277D02*
X165974361Y-83961277D01*
X165974361Y-83961277D02*
X166069600Y-83913658D01*
X166069600Y-83913658D02*
X166117219Y-83818420D01*
X166117219Y-83818420D02*
X166117219Y-83723182D01*
X166117219Y-83389848D02*
X165450552Y-83389848D01*
X165117219Y-83389848D02*
X165164838Y-83437467D01*
X165164838Y-83437467D02*
X165212457Y-83389848D01*
X165212457Y-83389848D02*
X165164838Y-83342229D01*
X165164838Y-83342229D02*
X165117219Y-83389848D01*
X165117219Y-83389848D02*
X165212457Y-83389848D01*
X166117219Y-82770801D02*
X166069600Y-82866039D01*
X166069600Y-82866039D02*
X166021980Y-82913658D01*
X166021980Y-82913658D02*
X165926742Y-82961277D01*
X165926742Y-82961277D02*
X165641028Y-82961277D01*
X165641028Y-82961277D02*
X165545790Y-82913658D01*
X165545790Y-82913658D02*
X165498171Y-82866039D01*
X165498171Y-82866039D02*
X165450552Y-82770801D01*
X165450552Y-82770801D02*
X165450552Y-82627944D01*
X165450552Y-82627944D02*
X165498171Y-82532706D01*
X165498171Y-82532706D02*
X165545790Y-82485087D01*
X165545790Y-82485087D02*
X165641028Y-82437468D01*
X165641028Y-82437468D02*
X165926742Y-82437468D01*
X165926742Y-82437468D02*
X166021980Y-82485087D01*
X166021980Y-82485087D02*
X166069600Y-82532706D01*
X166069600Y-82532706D02*
X166117219Y-82627944D01*
X166117219Y-82627944D02*
X166117219Y-82770801D01*
X165450552Y-82008896D02*
X166117219Y-82008896D01*
X165545790Y-82008896D02*
X165498171Y-81961277D01*
X165498171Y-81961277D02*
X165450552Y-81866039D01*
X165450552Y-81866039D02*
X165450552Y-81723182D01*
X165450552Y-81723182D02*
X165498171Y-81627944D01*
X165498171Y-81627944D02*
X165593409Y-81580325D01*
X165593409Y-81580325D02*
X166117219Y-81580325D01*
X165212457Y-80389848D02*
X165164838Y-80342229D01*
X165164838Y-80342229D02*
X165117219Y-80246991D01*
X165117219Y-80246991D02*
X165117219Y-80008896D01*
X165117219Y-80008896D02*
X165164838Y-79913658D01*
X165164838Y-79913658D02*
X165212457Y-79866039D01*
X165212457Y-79866039D02*
X165307695Y-79818420D01*
X165307695Y-79818420D02*
X165402933Y-79818420D01*
X165402933Y-79818420D02*
X165545790Y-79866039D01*
X165545790Y-79866039D02*
X166117219Y-80437467D01*
X166117219Y-80437467D02*
X166117219Y-79818420D01*
X166117219Y-78056515D02*
X165641028Y-78389848D01*
X166117219Y-78627943D02*
X165117219Y-78627943D01*
X165117219Y-78627943D02*
X165117219Y-78246991D01*
X165117219Y-78246991D02*
X165164838Y-78151753D01*
X165164838Y-78151753D02*
X165212457Y-78104134D01*
X165212457Y-78104134D02*
X165307695Y-78056515D01*
X165307695Y-78056515D02*
X165450552Y-78056515D01*
X165450552Y-78056515D02*
X165545790Y-78104134D01*
X165545790Y-78104134D02*
X165593409Y-78151753D01*
X165593409Y-78151753D02*
X165641028Y-78246991D01*
X165641028Y-78246991D02*
X165641028Y-78627943D01*
X165117219Y-77342229D02*
X165831504Y-77342229D01*
X165831504Y-77342229D02*
X165974361Y-77389848D01*
X165974361Y-77389848D02*
X166069600Y-77485086D01*
X166069600Y-77485086D02*
X166117219Y-77627943D01*
X166117219Y-77627943D02*
X166117219Y-77723181D01*
X165450552Y-76437467D02*
X166117219Y-76437467D01*
X165069600Y-76675562D02*
X165783885Y-76913657D01*
X165783885Y-76913657D02*
X165783885Y-76294610D01*
X165117219Y-75437467D02*
X165117219Y-75913657D01*
X165117219Y-75913657D02*
X165593409Y-75961276D01*
X165593409Y-75961276D02*
X165545790Y-75913657D01*
X165545790Y-75913657D02*
X165498171Y-75818419D01*
X165498171Y-75818419D02*
X165498171Y-75580324D01*
X165498171Y-75580324D02*
X165545790Y-75485086D01*
X165545790Y-75485086D02*
X165593409Y-75437467D01*
X165593409Y-75437467D02*
X165688647Y-75389848D01*
X165688647Y-75389848D02*
X165926742Y-75389848D01*
X165926742Y-75389848D02*
X166021980Y-75437467D01*
X166021980Y-75437467D02*
X166069600Y-75485086D01*
X166069600Y-75485086D02*
X166117219Y-75580324D01*
X166117219Y-75580324D02*
X166117219Y-75818419D01*
X166117219Y-75818419D02*
X166069600Y-75913657D01*
X166069600Y-75913657D02*
X166021980Y-75961276D01*
X174186339Y-70002457D02*
X174091101Y-69954838D01*
X174091101Y-69954838D02*
X173995863Y-69859600D01*
X173995863Y-69859600D02*
X173853006Y-69716742D01*
X173853006Y-69716742D02*
X173757768Y-69669123D01*
X173757768Y-69669123D02*
X173662530Y-69669123D01*
X173710149Y-69907219D02*
X173614911Y-69859600D01*
X173614911Y-69859600D02*
X173519673Y-69764361D01*
X173519673Y-69764361D02*
X173472054Y-69573885D01*
X173472054Y-69573885D02*
X173472054Y-69240552D01*
X173472054Y-69240552D02*
X173519673Y-69050076D01*
X173519673Y-69050076D02*
X173614911Y-68954838D01*
X173614911Y-68954838D02*
X173710149Y-68907219D01*
X173710149Y-68907219D02*
X173900625Y-68907219D01*
X173900625Y-68907219D02*
X173995863Y-68954838D01*
X173995863Y-68954838D02*
X174091101Y-69050076D01*
X174091101Y-69050076D02*
X174138720Y-69240552D01*
X174138720Y-69240552D02*
X174138720Y-69573885D01*
X174138720Y-69573885D02*
X174091101Y-69764361D01*
X174091101Y-69764361D02*
X173995863Y-69859600D01*
X173995863Y-69859600D02*
X173900625Y-69907219D01*
X173900625Y-69907219D02*
X173710149Y-69907219D01*
X174567292Y-69383409D02*
X174900625Y-69383409D01*
X175043482Y-69907219D02*
X174567292Y-69907219D01*
X174567292Y-69907219D02*
X174567292Y-68907219D01*
X174567292Y-68907219D02*
X175043482Y-68907219D01*
X175995863Y-69907219D02*
X175424435Y-69907219D01*
X175710149Y-69907219D02*
X175710149Y-68907219D01*
X175710149Y-68907219D02*
X175614911Y-69050076D01*
X175614911Y-69050076D02*
X175519673Y-69145314D01*
X175519673Y-69145314D02*
X175424435Y-69192933D01*
X176376816Y-69621504D02*
X176853006Y-69621504D01*
X176281578Y-69907219D02*
X176614911Y-68907219D01*
X176614911Y-68907219D02*
X176948244Y-69907219D01*
X174186339Y-71612457D02*
X174091101Y-71564838D01*
X174091101Y-71564838D02*
X173995863Y-71469600D01*
X173995863Y-71469600D02*
X173853006Y-71326742D01*
X173853006Y-71326742D02*
X173757768Y-71279123D01*
X173757768Y-71279123D02*
X173662530Y-71279123D01*
X173710149Y-71517219D02*
X173614911Y-71469600D01*
X173614911Y-71469600D02*
X173519673Y-71374361D01*
X173519673Y-71374361D02*
X173472054Y-71183885D01*
X173472054Y-71183885D02*
X173472054Y-70850552D01*
X173472054Y-70850552D02*
X173519673Y-70660076D01*
X173519673Y-70660076D02*
X173614911Y-70564838D01*
X173614911Y-70564838D02*
X173710149Y-70517219D01*
X173710149Y-70517219D02*
X173900625Y-70517219D01*
X173900625Y-70517219D02*
X173995863Y-70564838D01*
X173995863Y-70564838D02*
X174091101Y-70660076D01*
X174091101Y-70660076D02*
X174138720Y-70850552D01*
X174138720Y-70850552D02*
X174138720Y-71183885D01*
X174138720Y-71183885D02*
X174091101Y-71374361D01*
X174091101Y-71374361D02*
X173995863Y-71469600D01*
X173995863Y-71469600D02*
X173900625Y-71517219D01*
X173900625Y-71517219D02*
X173710149Y-71517219D01*
X174567292Y-70993409D02*
X174900625Y-70993409D01*
X175043482Y-71517219D02*
X174567292Y-71517219D01*
X174567292Y-71517219D02*
X174567292Y-70517219D01*
X174567292Y-70517219D02*
X175043482Y-70517219D01*
X175995863Y-71517219D02*
X175424435Y-71517219D01*
X175710149Y-71517219D02*
X175710149Y-70517219D01*
X175710149Y-70517219D02*
X175614911Y-70660076D01*
X175614911Y-70660076D02*
X175519673Y-70755314D01*
X175519673Y-70755314D02*
X175424435Y-70802933D01*
X176757768Y-70993409D02*
X176900625Y-71041028D01*
X176900625Y-71041028D02*
X176948244Y-71088647D01*
X176948244Y-71088647D02*
X176995863Y-71183885D01*
X176995863Y-71183885D02*
X176995863Y-71326742D01*
X176995863Y-71326742D02*
X176948244Y-71421980D01*
X176948244Y-71421980D02*
X176900625Y-71469600D01*
X176900625Y-71469600D02*
X176805387Y-71517219D01*
X176805387Y-71517219D02*
X176424435Y-71517219D01*
X176424435Y-71517219D02*
X176424435Y-70517219D01*
X176424435Y-70517219D02*
X176757768Y-70517219D01*
X176757768Y-70517219D02*
X176853006Y-70564838D01*
X176853006Y-70564838D02*
X176900625Y-70612457D01*
X176900625Y-70612457D02*
X176948244Y-70707695D01*
X176948244Y-70707695D02*
X176948244Y-70802933D01*
X176948244Y-70802933D02*
X176900625Y-70898171D01*
X176900625Y-70898171D02*
X176853006Y-70945790D01*
X176853006Y-70945790D02*
X176757768Y-70993409D01*
X176757768Y-70993409D02*
X176424435Y-70993409D01*
X123361339Y-64377457D02*
X123266101Y-64329838D01*
X123266101Y-64329838D02*
X123170863Y-64234600D01*
X123170863Y-64234600D02*
X123028006Y-64091742D01*
X123028006Y-64091742D02*
X122932768Y-64044123D01*
X122932768Y-64044123D02*
X122837530Y-64044123D01*
X122885149Y-64282219D02*
X122789911Y-64234600D01*
X122789911Y-64234600D02*
X122694673Y-64139361D01*
X122694673Y-64139361D02*
X122647054Y-63948885D01*
X122647054Y-63948885D02*
X122647054Y-63615552D01*
X122647054Y-63615552D02*
X122694673Y-63425076D01*
X122694673Y-63425076D02*
X122789911Y-63329838D01*
X122789911Y-63329838D02*
X122885149Y-63282219D01*
X122885149Y-63282219D02*
X123075625Y-63282219D01*
X123075625Y-63282219D02*
X123170863Y-63329838D01*
X123170863Y-63329838D02*
X123266101Y-63425076D01*
X123266101Y-63425076D02*
X123313720Y-63615552D01*
X123313720Y-63615552D02*
X123313720Y-63948885D01*
X123313720Y-63948885D02*
X123266101Y-64139361D01*
X123266101Y-64139361D02*
X123170863Y-64234600D01*
X123170863Y-64234600D02*
X123075625Y-64282219D01*
X123075625Y-64282219D02*
X122885149Y-64282219D01*
X123742292Y-63758409D02*
X124075625Y-63758409D01*
X124218482Y-64282219D02*
X123742292Y-64282219D01*
X123742292Y-64282219D02*
X123742292Y-63282219D01*
X123742292Y-63282219D02*
X124218482Y-63282219D01*
X124599435Y-63377457D02*
X124647054Y-63329838D01*
X124647054Y-63329838D02*
X124742292Y-63282219D01*
X124742292Y-63282219D02*
X124980387Y-63282219D01*
X124980387Y-63282219D02*
X125075625Y-63329838D01*
X125075625Y-63329838D02*
X125123244Y-63377457D01*
X125123244Y-63377457D02*
X125170863Y-63472695D01*
X125170863Y-63472695D02*
X125170863Y-63567933D01*
X125170863Y-63567933D02*
X125123244Y-63710790D01*
X125123244Y-63710790D02*
X124551816Y-64282219D01*
X124551816Y-64282219D02*
X125170863Y-64282219D01*
X125551816Y-63996504D02*
X126028006Y-63996504D01*
X125456578Y-64282219D02*
X125789911Y-63282219D01*
X125789911Y-63282219D02*
X126123244Y-64282219D01*
X123361339Y-65987457D02*
X123266101Y-65939838D01*
X123266101Y-65939838D02*
X123170863Y-65844600D01*
X123170863Y-65844600D02*
X123028006Y-65701742D01*
X123028006Y-65701742D02*
X122932768Y-65654123D01*
X122932768Y-65654123D02*
X122837530Y-65654123D01*
X122885149Y-65892219D02*
X122789911Y-65844600D01*
X122789911Y-65844600D02*
X122694673Y-65749361D01*
X122694673Y-65749361D02*
X122647054Y-65558885D01*
X122647054Y-65558885D02*
X122647054Y-65225552D01*
X122647054Y-65225552D02*
X122694673Y-65035076D01*
X122694673Y-65035076D02*
X122789911Y-64939838D01*
X122789911Y-64939838D02*
X122885149Y-64892219D01*
X122885149Y-64892219D02*
X123075625Y-64892219D01*
X123075625Y-64892219D02*
X123170863Y-64939838D01*
X123170863Y-64939838D02*
X123266101Y-65035076D01*
X123266101Y-65035076D02*
X123313720Y-65225552D01*
X123313720Y-65225552D02*
X123313720Y-65558885D01*
X123313720Y-65558885D02*
X123266101Y-65749361D01*
X123266101Y-65749361D02*
X123170863Y-65844600D01*
X123170863Y-65844600D02*
X123075625Y-65892219D01*
X123075625Y-65892219D02*
X122885149Y-65892219D01*
X123742292Y-65368409D02*
X124075625Y-65368409D01*
X124218482Y-65892219D02*
X123742292Y-65892219D01*
X123742292Y-65892219D02*
X123742292Y-64892219D01*
X123742292Y-64892219D02*
X124218482Y-64892219D01*
X124599435Y-64987457D02*
X124647054Y-64939838D01*
X124647054Y-64939838D02*
X124742292Y-64892219D01*
X124742292Y-64892219D02*
X124980387Y-64892219D01*
X124980387Y-64892219D02*
X125075625Y-64939838D01*
X125075625Y-64939838D02*
X125123244Y-64987457D01*
X125123244Y-64987457D02*
X125170863Y-65082695D01*
X125170863Y-65082695D02*
X125170863Y-65177933D01*
X125170863Y-65177933D02*
X125123244Y-65320790D01*
X125123244Y-65320790D02*
X124551816Y-65892219D01*
X124551816Y-65892219D02*
X125170863Y-65892219D01*
X125932768Y-65368409D02*
X126075625Y-65416028D01*
X126075625Y-65416028D02*
X126123244Y-65463647D01*
X126123244Y-65463647D02*
X126170863Y-65558885D01*
X126170863Y-65558885D02*
X126170863Y-65701742D01*
X126170863Y-65701742D02*
X126123244Y-65796980D01*
X126123244Y-65796980D02*
X126075625Y-65844600D01*
X126075625Y-65844600D02*
X125980387Y-65892219D01*
X125980387Y-65892219D02*
X125599435Y-65892219D01*
X125599435Y-65892219D02*
X125599435Y-64892219D01*
X125599435Y-64892219D02*
X125932768Y-64892219D01*
X125932768Y-64892219D02*
X126028006Y-64939838D01*
X126028006Y-64939838D02*
X126075625Y-64987457D01*
X126075625Y-64987457D02*
X126123244Y-65082695D01*
X126123244Y-65082695D02*
X126123244Y-65177933D01*
X126123244Y-65177933D02*
X126075625Y-65273171D01*
X126075625Y-65273171D02*
X126028006Y-65320790D01*
X126028006Y-65320790D02*
X125932768Y-65368409D01*
X125932768Y-65368409D02*
X125599435Y-65368409D01*
D12*
X114688095Y-84004819D02*
X114688095Y-84814342D01*
X114688095Y-84814342D02*
X114735714Y-84909580D01*
X114735714Y-84909580D02*
X114783333Y-84957200D01*
X114783333Y-84957200D02*
X114878571Y-85004819D01*
X114878571Y-85004819D02*
X115069047Y-85004819D01*
X115069047Y-85004819D02*
X115164285Y-84957200D01*
X115164285Y-84957200D02*
X115211904Y-84909580D01*
X115211904Y-84909580D02*
X115259523Y-84814342D01*
X115259523Y-84814342D02*
X115259523Y-84004819D01*
X116211904Y-84004819D02*
X115735714Y-84004819D01*
X115735714Y-84004819D02*
X115688095Y-84481009D01*
X115688095Y-84481009D02*
X115735714Y-84433390D01*
X115735714Y-84433390D02*
X115830952Y-84385771D01*
X115830952Y-84385771D02*
X116069047Y-84385771D01*
X116069047Y-84385771D02*
X116164285Y-84433390D01*
X116164285Y-84433390D02*
X116211904Y-84481009D01*
X116211904Y-84481009D02*
X116259523Y-84576247D01*
X116259523Y-84576247D02*
X116259523Y-84814342D01*
X116259523Y-84814342D02*
X116211904Y-84909580D01*
X116211904Y-84909580D02*
X116164285Y-84957200D01*
X116164285Y-84957200D02*
X116069047Y-85004819D01*
X116069047Y-85004819D02*
X115830952Y-85004819D01*
X115830952Y-85004819D02*
X115735714Y-84957200D01*
X115735714Y-84957200D02*
X115688095Y-84909580D01*
D11*
X160503006Y-59593409D02*
X160645863Y-59641028D01*
X160645863Y-59641028D02*
X160693482Y-59688647D01*
X160693482Y-59688647D02*
X160741101Y-59783885D01*
X160741101Y-59783885D02*
X160741101Y-59926742D01*
X160741101Y-59926742D02*
X160693482Y-60021980D01*
X160693482Y-60021980D02*
X160645863Y-60069600D01*
X160645863Y-60069600D02*
X160550625Y-60117219D01*
X160550625Y-60117219D02*
X160169673Y-60117219D01*
X160169673Y-60117219D02*
X160169673Y-59117219D01*
X160169673Y-59117219D02*
X160503006Y-59117219D01*
X160503006Y-59117219D02*
X160598244Y-59164838D01*
X160598244Y-59164838D02*
X160645863Y-59212457D01*
X160645863Y-59212457D02*
X160693482Y-59307695D01*
X160693482Y-59307695D02*
X160693482Y-59402933D01*
X160693482Y-59402933D02*
X160645863Y-59498171D01*
X160645863Y-59498171D02*
X160598244Y-59545790D01*
X160598244Y-59545790D02*
X160503006Y-59593409D01*
X160503006Y-59593409D02*
X160169673Y-59593409D01*
X161598244Y-59450552D02*
X161598244Y-60117219D01*
X161169673Y-59450552D02*
X161169673Y-59974361D01*
X161169673Y-59974361D02*
X161217292Y-60069600D01*
X161217292Y-60069600D02*
X161312530Y-60117219D01*
X161312530Y-60117219D02*
X161455387Y-60117219D01*
X161455387Y-60117219D02*
X161550625Y-60069600D01*
X161550625Y-60069600D02*
X161598244Y-60021980D01*
X161931578Y-59450552D02*
X162312530Y-59450552D01*
X162074435Y-59117219D02*
X162074435Y-59974361D01*
X162074435Y-59974361D02*
X162122054Y-60069600D01*
X162122054Y-60069600D02*
X162217292Y-60117219D01*
X162217292Y-60117219D02*
X162312530Y-60117219D01*
X162503007Y-59450552D02*
X162883959Y-59450552D01*
X162645864Y-59117219D02*
X162645864Y-59974361D01*
X162645864Y-59974361D02*
X162693483Y-60069600D01*
X162693483Y-60069600D02*
X162788721Y-60117219D01*
X162788721Y-60117219D02*
X162883959Y-60117219D01*
X163360150Y-60117219D02*
X163264912Y-60069600D01*
X163264912Y-60069600D02*
X163217293Y-60021980D01*
X163217293Y-60021980D02*
X163169674Y-59926742D01*
X163169674Y-59926742D02*
X163169674Y-59641028D01*
X163169674Y-59641028D02*
X163217293Y-59545790D01*
X163217293Y-59545790D02*
X163264912Y-59498171D01*
X163264912Y-59498171D02*
X163360150Y-59450552D01*
X163360150Y-59450552D02*
X163503007Y-59450552D01*
X163503007Y-59450552D02*
X163598245Y-59498171D01*
X163598245Y-59498171D02*
X163645864Y-59545790D01*
X163645864Y-59545790D02*
X163693483Y-59641028D01*
X163693483Y-59641028D02*
X163693483Y-59926742D01*
X163693483Y-59926742D02*
X163645864Y-60021980D01*
X163645864Y-60021980D02*
X163598245Y-60069600D01*
X163598245Y-60069600D02*
X163503007Y-60117219D01*
X163503007Y-60117219D02*
X163360150Y-60117219D01*
X164122055Y-59450552D02*
X164122055Y-60117219D01*
X164122055Y-59545790D02*
X164169674Y-59498171D01*
X164169674Y-59498171D02*
X164264912Y-59450552D01*
X164264912Y-59450552D02*
X164407769Y-59450552D01*
X164407769Y-59450552D02*
X164503007Y-59498171D01*
X164503007Y-59498171D02*
X164550626Y-59593409D01*
X164550626Y-59593409D02*
X164550626Y-60117219D01*
X166312531Y-60117219D02*
X165741103Y-60117219D01*
X166026817Y-60117219D02*
X166026817Y-59117219D01*
X166026817Y-59117219D02*
X165931579Y-59260076D01*
X165931579Y-59260076D02*
X165836341Y-59355314D01*
X165836341Y-59355314D02*
X165741103Y-59402933D01*
X166931579Y-59117219D02*
X167026817Y-59117219D01*
X167026817Y-59117219D02*
X167122055Y-59164838D01*
X167122055Y-59164838D02*
X167169674Y-59212457D01*
X167169674Y-59212457D02*
X167217293Y-59307695D01*
X167217293Y-59307695D02*
X167264912Y-59498171D01*
X167264912Y-59498171D02*
X167264912Y-59736266D01*
X167264912Y-59736266D02*
X167217293Y-59926742D01*
X167217293Y-59926742D02*
X167169674Y-60021980D01*
X167169674Y-60021980D02*
X167122055Y-60069600D01*
X167122055Y-60069600D02*
X167026817Y-60117219D01*
X167026817Y-60117219D02*
X166931579Y-60117219D01*
X166931579Y-60117219D02*
X166836341Y-60069600D01*
X166836341Y-60069600D02*
X166788722Y-60021980D01*
X166788722Y-60021980D02*
X166741103Y-59926742D01*
X166741103Y-59926742D02*
X166693484Y-59736266D01*
X166693484Y-59736266D02*
X166693484Y-59498171D01*
X166693484Y-59498171D02*
X166741103Y-59307695D01*
X166741103Y-59307695D02*
X166788722Y-59212457D01*
X166788722Y-59212457D02*
X166836341Y-59164838D01*
X166836341Y-59164838D02*
X166931579Y-59117219D01*
D12*
X158082142Y-61259580D02*
X158034523Y-61307200D01*
X158034523Y-61307200D02*
X157891666Y-61354819D01*
X157891666Y-61354819D02*
X157796428Y-61354819D01*
X157796428Y-61354819D02*
X157653571Y-61307200D01*
X157653571Y-61307200D02*
X157558333Y-61211961D01*
X157558333Y-61211961D02*
X157510714Y-61116723D01*
X157510714Y-61116723D02*
X157463095Y-60926247D01*
X157463095Y-60926247D02*
X157463095Y-60783390D01*
X157463095Y-60783390D02*
X157510714Y-60592914D01*
X157510714Y-60592914D02*
X157558333Y-60497676D01*
X157558333Y-60497676D02*
X157653571Y-60402438D01*
X157653571Y-60402438D02*
X157796428Y-60354819D01*
X157796428Y-60354819D02*
X157891666Y-60354819D01*
X157891666Y-60354819D02*
X158034523Y-60402438D01*
X158034523Y-60402438D02*
X158082142Y-60450057D01*
X159034523Y-61354819D02*
X158463095Y-61354819D01*
X158748809Y-61354819D02*
X158748809Y-60354819D01*
X158748809Y-60354819D02*
X158653571Y-60497676D01*
X158653571Y-60497676D02*
X158558333Y-60592914D01*
X158558333Y-60592914D02*
X158463095Y-60640533D01*
X159510714Y-61354819D02*
X159701190Y-61354819D01*
X159701190Y-61354819D02*
X159796428Y-61307200D01*
X159796428Y-61307200D02*
X159844047Y-61259580D01*
X159844047Y-61259580D02*
X159939285Y-61116723D01*
X159939285Y-61116723D02*
X159986904Y-60926247D01*
X159986904Y-60926247D02*
X159986904Y-60545295D01*
X159986904Y-60545295D02*
X159939285Y-60450057D01*
X159939285Y-60450057D02*
X159891666Y-60402438D01*
X159891666Y-60402438D02*
X159796428Y-60354819D01*
X159796428Y-60354819D02*
X159605952Y-60354819D01*
X159605952Y-60354819D02*
X159510714Y-60402438D01*
X159510714Y-60402438D02*
X159463095Y-60450057D01*
X159463095Y-60450057D02*
X159415476Y-60545295D01*
X159415476Y-60545295D02*
X159415476Y-60783390D01*
X159415476Y-60783390D02*
X159463095Y-60878628D01*
X159463095Y-60878628D02*
X159510714Y-60926247D01*
X159510714Y-60926247D02*
X159605952Y-60973866D01*
X159605952Y-60973866D02*
X159796428Y-60973866D01*
X159796428Y-60973866D02*
X159891666Y-60926247D01*
X159891666Y-60926247D02*
X159939285Y-60878628D01*
X159939285Y-60878628D02*
X159986904Y-60783390D01*
D11*
X173730387Y-73325552D02*
X173492292Y-73325552D01*
X173492292Y-73325552D02*
X173492292Y-71896980D01*
X173492292Y-71896980D02*
X173730387Y-71896980D01*
X174111340Y-72992219D02*
X174111340Y-71992219D01*
X174111340Y-71992219D02*
X174349435Y-71992219D01*
X174349435Y-71992219D02*
X174492292Y-72039838D01*
X174492292Y-72039838D02*
X174587530Y-72135076D01*
X174587530Y-72135076D02*
X174635149Y-72230314D01*
X174635149Y-72230314D02*
X174682768Y-72420790D01*
X174682768Y-72420790D02*
X174682768Y-72563647D01*
X174682768Y-72563647D02*
X174635149Y-72754123D01*
X174635149Y-72754123D02*
X174587530Y-72849361D01*
X174587530Y-72849361D02*
X174492292Y-72944600D01*
X174492292Y-72944600D02*
X174349435Y-72992219D01*
X174349435Y-72992219D02*
X174111340Y-72992219D01*
X175349435Y-73325552D02*
X175349435Y-71896980D01*
X176587530Y-72039838D02*
X176492292Y-71992219D01*
X176492292Y-71992219D02*
X176349435Y-71992219D01*
X176349435Y-71992219D02*
X176206578Y-72039838D01*
X176206578Y-72039838D02*
X176111340Y-72135076D01*
X176111340Y-72135076D02*
X176063721Y-72230314D01*
X176063721Y-72230314D02*
X176016102Y-72420790D01*
X176016102Y-72420790D02*
X176016102Y-72563647D01*
X176016102Y-72563647D02*
X176063721Y-72754123D01*
X176063721Y-72754123D02*
X176111340Y-72849361D01*
X176111340Y-72849361D02*
X176206578Y-72944600D01*
X176206578Y-72944600D02*
X176349435Y-72992219D01*
X176349435Y-72992219D02*
X176444673Y-72992219D01*
X176444673Y-72992219D02*
X176587530Y-72944600D01*
X176587530Y-72944600D02*
X176635149Y-72896980D01*
X176635149Y-72896980D02*
X176635149Y-72563647D01*
X176635149Y-72563647D02*
X176444673Y-72563647D01*
X177301816Y-73325552D02*
X177301816Y-71896980D01*
X177873245Y-71992219D02*
X178206578Y-72992219D01*
X178206578Y-72992219D02*
X178539911Y-71992219D01*
X178778007Y-73325552D02*
X179016102Y-73325552D01*
X179016102Y-73325552D02*
X179016102Y-71896980D01*
X179016102Y-71896980D02*
X178778007Y-71896980D01*
D12*
X133588095Y-67254819D02*
X133588095Y-68064342D01*
X133588095Y-68064342D02*
X133635714Y-68159580D01*
X133635714Y-68159580D02*
X133683333Y-68207200D01*
X133683333Y-68207200D02*
X133778571Y-68254819D01*
X133778571Y-68254819D02*
X133969047Y-68254819D01*
X133969047Y-68254819D02*
X134064285Y-68207200D01*
X134064285Y-68207200D02*
X134111904Y-68159580D01*
X134111904Y-68159580D02*
X134159523Y-68064342D01*
X134159523Y-68064342D02*
X134159523Y-67254819D01*
X134588095Y-67350057D02*
X134635714Y-67302438D01*
X134635714Y-67302438D02*
X134730952Y-67254819D01*
X134730952Y-67254819D02*
X134969047Y-67254819D01*
X134969047Y-67254819D02*
X135064285Y-67302438D01*
X135064285Y-67302438D02*
X135111904Y-67350057D01*
X135111904Y-67350057D02*
X135159523Y-67445295D01*
X135159523Y-67445295D02*
X135159523Y-67540533D01*
X135159523Y-67540533D02*
X135111904Y-67683390D01*
X135111904Y-67683390D02*
X134540476Y-68254819D01*
X134540476Y-68254819D02*
X135159523Y-68254819D01*
X137138095Y-67154819D02*
X137138095Y-67964342D01*
X137138095Y-67964342D02*
X137185714Y-68059580D01*
X137185714Y-68059580D02*
X137233333Y-68107200D01*
X137233333Y-68107200D02*
X137328571Y-68154819D01*
X137328571Y-68154819D02*
X137519047Y-68154819D01*
X137519047Y-68154819D02*
X137614285Y-68107200D01*
X137614285Y-68107200D02*
X137661904Y-68059580D01*
X137661904Y-68059580D02*
X137709523Y-67964342D01*
X137709523Y-67964342D02*
X137709523Y-67154819D01*
X138614285Y-67488152D02*
X138614285Y-68154819D01*
X138376190Y-67107200D02*
X138138095Y-67821485D01*
X138138095Y-67821485D02*
X138757142Y-67821485D01*
D11*
X110036339Y-60262457D02*
X109941101Y-60214838D01*
X109941101Y-60214838D02*
X109845863Y-60119600D01*
X109845863Y-60119600D02*
X109703006Y-59976742D01*
X109703006Y-59976742D02*
X109607768Y-59929123D01*
X109607768Y-59929123D02*
X109512530Y-59929123D01*
X109560149Y-60167219D02*
X109464911Y-60119600D01*
X109464911Y-60119600D02*
X109369673Y-60024361D01*
X109369673Y-60024361D02*
X109322054Y-59833885D01*
X109322054Y-59833885D02*
X109322054Y-59500552D01*
X109322054Y-59500552D02*
X109369673Y-59310076D01*
X109369673Y-59310076D02*
X109464911Y-59214838D01*
X109464911Y-59214838D02*
X109560149Y-59167219D01*
X109560149Y-59167219D02*
X109750625Y-59167219D01*
X109750625Y-59167219D02*
X109845863Y-59214838D01*
X109845863Y-59214838D02*
X109941101Y-59310076D01*
X109941101Y-59310076D02*
X109988720Y-59500552D01*
X109988720Y-59500552D02*
X109988720Y-59833885D01*
X109988720Y-59833885D02*
X109941101Y-60024361D01*
X109941101Y-60024361D02*
X109845863Y-60119600D01*
X109845863Y-60119600D02*
X109750625Y-60167219D01*
X109750625Y-60167219D02*
X109560149Y-60167219D01*
X110417292Y-59643409D02*
X110750625Y-59643409D01*
X110893482Y-60167219D02*
X110417292Y-60167219D01*
X110417292Y-60167219D02*
X110417292Y-59167219D01*
X110417292Y-59167219D02*
X110893482Y-59167219D01*
X111274435Y-59262457D02*
X111322054Y-59214838D01*
X111322054Y-59214838D02*
X111417292Y-59167219D01*
X111417292Y-59167219D02*
X111655387Y-59167219D01*
X111655387Y-59167219D02*
X111750625Y-59214838D01*
X111750625Y-59214838D02*
X111798244Y-59262457D01*
X111798244Y-59262457D02*
X111845863Y-59357695D01*
X111845863Y-59357695D02*
X111845863Y-59452933D01*
X111845863Y-59452933D02*
X111798244Y-59595790D01*
X111798244Y-59595790D02*
X111226816Y-60167219D01*
X111226816Y-60167219D02*
X111845863Y-60167219D01*
X135829762Y-90585790D02*
X135734524Y-90538171D01*
X135734524Y-90538171D02*
X135686905Y-90490552D01*
X135686905Y-90490552D02*
X135639286Y-90395314D01*
X135639286Y-90395314D02*
X135639286Y-90347695D01*
X135639286Y-90347695D02*
X135686905Y-90252457D01*
X135686905Y-90252457D02*
X135734524Y-90204838D01*
X135734524Y-90204838D02*
X135829762Y-90157219D01*
X135829762Y-90157219D02*
X136020238Y-90157219D01*
X136020238Y-90157219D02*
X136115476Y-90204838D01*
X136115476Y-90204838D02*
X136163095Y-90252457D01*
X136163095Y-90252457D02*
X136210714Y-90347695D01*
X136210714Y-90347695D02*
X136210714Y-90395314D01*
X136210714Y-90395314D02*
X136163095Y-90490552D01*
X136163095Y-90490552D02*
X136115476Y-90538171D01*
X136115476Y-90538171D02*
X136020238Y-90585790D01*
X136020238Y-90585790D02*
X135829762Y-90585790D01*
X135829762Y-90585790D02*
X135734524Y-90633409D01*
X135734524Y-90633409D02*
X135686905Y-90681028D01*
X135686905Y-90681028D02*
X135639286Y-90776266D01*
X135639286Y-90776266D02*
X135639286Y-90966742D01*
X135639286Y-90966742D02*
X135686905Y-91061980D01*
X135686905Y-91061980D02*
X135734524Y-91109600D01*
X135734524Y-91109600D02*
X135829762Y-91157219D01*
X135829762Y-91157219D02*
X136020238Y-91157219D01*
X136020238Y-91157219D02*
X136115476Y-91109600D01*
X136115476Y-91109600D02*
X136163095Y-91061980D01*
X136163095Y-91061980D02*
X136210714Y-90966742D01*
X136210714Y-90966742D02*
X136210714Y-90776266D01*
X136210714Y-90776266D02*
X136163095Y-90681028D01*
X136163095Y-90681028D02*
X136115476Y-90633409D01*
X136115476Y-90633409D02*
X136020238Y-90585790D01*
X137353571Y-90109600D02*
X136496429Y-91395314D01*
X138115476Y-90157219D02*
X137925000Y-90157219D01*
X137925000Y-90157219D02*
X137829762Y-90204838D01*
X137829762Y-90204838D02*
X137782143Y-90252457D01*
X137782143Y-90252457D02*
X137686905Y-90395314D01*
X137686905Y-90395314D02*
X137639286Y-90585790D01*
X137639286Y-90585790D02*
X137639286Y-90966742D01*
X137639286Y-90966742D02*
X137686905Y-91061980D01*
X137686905Y-91061980D02*
X137734524Y-91109600D01*
X137734524Y-91109600D02*
X137829762Y-91157219D01*
X137829762Y-91157219D02*
X138020238Y-91157219D01*
X138020238Y-91157219D02*
X138115476Y-91109600D01*
X138115476Y-91109600D02*
X138163095Y-91061980D01*
X138163095Y-91061980D02*
X138210714Y-90966742D01*
X138210714Y-90966742D02*
X138210714Y-90728647D01*
X138210714Y-90728647D02*
X138163095Y-90633409D01*
X138163095Y-90633409D02*
X138115476Y-90585790D01*
X138115476Y-90585790D02*
X138020238Y-90538171D01*
X138020238Y-90538171D02*
X137829762Y-90538171D01*
X137829762Y-90538171D02*
X137734524Y-90585790D01*
X137734524Y-90585790D02*
X137686905Y-90633409D01*
X137686905Y-90633409D02*
X137639286Y-90728647D01*
X139353571Y-90109600D02*
X138496429Y-91395314D01*
X140115476Y-90490552D02*
X140115476Y-91157219D01*
X139877381Y-90109600D02*
X139639286Y-90823885D01*
X139639286Y-90823885D02*
X140258333Y-90823885D01*
X141353571Y-90109600D02*
X140496429Y-91395314D01*
X141639286Y-90252457D02*
X141686905Y-90204838D01*
X141686905Y-90204838D02*
X141782143Y-90157219D01*
X141782143Y-90157219D02*
X142020238Y-90157219D01*
X142020238Y-90157219D02*
X142115476Y-90204838D01*
X142115476Y-90204838D02*
X142163095Y-90252457D01*
X142163095Y-90252457D02*
X142210714Y-90347695D01*
X142210714Y-90347695D02*
X142210714Y-90442933D01*
X142210714Y-90442933D02*
X142163095Y-90585790D01*
X142163095Y-90585790D02*
X141591667Y-91157219D01*
X141591667Y-91157219D02*
X142210714Y-91157219D01*
X134734524Y-92767219D02*
X134925000Y-92767219D01*
X134925000Y-92767219D02*
X135020238Y-92719600D01*
X135020238Y-92719600D02*
X135067857Y-92671980D01*
X135067857Y-92671980D02*
X135163095Y-92529123D01*
X135163095Y-92529123D02*
X135210714Y-92338647D01*
X135210714Y-92338647D02*
X135210714Y-91957695D01*
X135210714Y-91957695D02*
X135163095Y-91862457D01*
X135163095Y-91862457D02*
X135115476Y-91814838D01*
X135115476Y-91814838D02*
X135020238Y-91767219D01*
X135020238Y-91767219D02*
X134829762Y-91767219D01*
X134829762Y-91767219D02*
X134734524Y-91814838D01*
X134734524Y-91814838D02*
X134686905Y-91862457D01*
X134686905Y-91862457D02*
X134639286Y-91957695D01*
X134639286Y-91957695D02*
X134639286Y-92195790D01*
X134639286Y-92195790D02*
X134686905Y-92291028D01*
X134686905Y-92291028D02*
X134734524Y-92338647D01*
X134734524Y-92338647D02*
X134829762Y-92386266D01*
X134829762Y-92386266D02*
X135020238Y-92386266D01*
X135020238Y-92386266D02*
X135115476Y-92338647D01*
X135115476Y-92338647D02*
X135163095Y-92291028D01*
X135163095Y-92291028D02*
X135210714Y-92195790D01*
X136353571Y-91719600D02*
X135496429Y-93005314D01*
X136591667Y-91767219D02*
X137258333Y-91767219D01*
X137258333Y-91767219D02*
X136829762Y-92767219D01*
X138353571Y-91719600D02*
X137496429Y-93005314D01*
X139163095Y-91767219D02*
X138686905Y-91767219D01*
X138686905Y-91767219D02*
X138639286Y-92243409D01*
X138639286Y-92243409D02*
X138686905Y-92195790D01*
X138686905Y-92195790D02*
X138782143Y-92148171D01*
X138782143Y-92148171D02*
X139020238Y-92148171D01*
X139020238Y-92148171D02*
X139115476Y-92195790D01*
X139115476Y-92195790D02*
X139163095Y-92243409D01*
X139163095Y-92243409D02*
X139210714Y-92338647D01*
X139210714Y-92338647D02*
X139210714Y-92576742D01*
X139210714Y-92576742D02*
X139163095Y-92671980D01*
X139163095Y-92671980D02*
X139115476Y-92719600D01*
X139115476Y-92719600D02*
X139020238Y-92767219D01*
X139020238Y-92767219D02*
X138782143Y-92767219D01*
X138782143Y-92767219D02*
X138686905Y-92719600D01*
X138686905Y-92719600D02*
X138639286Y-92671980D01*
X140353571Y-91719600D02*
X139496429Y-93005314D01*
X140591667Y-91767219D02*
X141210714Y-91767219D01*
X141210714Y-91767219D02*
X140877381Y-92148171D01*
X140877381Y-92148171D02*
X141020238Y-92148171D01*
X141020238Y-92148171D02*
X141115476Y-92195790D01*
X141115476Y-92195790D02*
X141163095Y-92243409D01*
X141163095Y-92243409D02*
X141210714Y-92338647D01*
X141210714Y-92338647D02*
X141210714Y-92576742D01*
X141210714Y-92576742D02*
X141163095Y-92671980D01*
X141163095Y-92671980D02*
X141115476Y-92719600D01*
X141115476Y-92719600D02*
X141020238Y-92767219D01*
X141020238Y-92767219D02*
X140734524Y-92767219D01*
X140734524Y-92767219D02*
X140639286Y-92719600D01*
X140639286Y-92719600D02*
X140591667Y-92671980D01*
X142353571Y-91719600D02*
X141496429Y-93005314D01*
X143210714Y-92767219D02*
X142639286Y-92767219D01*
X142925000Y-92767219D02*
X142925000Y-91767219D01*
X142925000Y-91767219D02*
X142829762Y-91910076D01*
X142829762Y-91910076D02*
X142734524Y-92005314D01*
X142734524Y-92005314D02*
X142639286Y-92052933D01*
X102358601Y-103117219D02*
X102025268Y-102641028D01*
X101787173Y-103117219D02*
X101787173Y-102117219D01*
X101787173Y-102117219D02*
X102168125Y-102117219D01*
X102168125Y-102117219D02*
X102263363Y-102164838D01*
X102263363Y-102164838D02*
X102310982Y-102212457D01*
X102310982Y-102212457D02*
X102358601Y-102307695D01*
X102358601Y-102307695D02*
X102358601Y-102450552D01*
X102358601Y-102450552D02*
X102310982Y-102545790D01*
X102310982Y-102545790D02*
X102263363Y-102593409D01*
X102263363Y-102593409D02*
X102168125Y-102641028D01*
X102168125Y-102641028D02*
X101787173Y-102641028D01*
X103310982Y-102164838D02*
X103215744Y-102117219D01*
X103215744Y-102117219D02*
X103072887Y-102117219D01*
X103072887Y-102117219D02*
X102930030Y-102164838D01*
X102930030Y-102164838D02*
X102834792Y-102260076D01*
X102834792Y-102260076D02*
X102787173Y-102355314D01*
X102787173Y-102355314D02*
X102739554Y-102545790D01*
X102739554Y-102545790D02*
X102739554Y-102688647D01*
X102739554Y-102688647D02*
X102787173Y-102879123D01*
X102787173Y-102879123D02*
X102834792Y-102974361D01*
X102834792Y-102974361D02*
X102930030Y-103069600D01*
X102930030Y-103069600D02*
X103072887Y-103117219D01*
X103072887Y-103117219D02*
X103168125Y-103117219D01*
X103168125Y-103117219D02*
X103310982Y-103069600D01*
X103310982Y-103069600D02*
X103358601Y-103021980D01*
X103358601Y-103021980D02*
X103358601Y-102688647D01*
X103358601Y-102688647D02*
X103168125Y-102688647D01*
X104120506Y-102593409D02*
X104263363Y-102641028D01*
X104263363Y-102641028D02*
X104310982Y-102688647D01*
X104310982Y-102688647D02*
X104358601Y-102783885D01*
X104358601Y-102783885D02*
X104358601Y-102926742D01*
X104358601Y-102926742D02*
X104310982Y-103021980D01*
X104310982Y-103021980D02*
X104263363Y-103069600D01*
X104263363Y-103069600D02*
X104168125Y-103117219D01*
X104168125Y-103117219D02*
X103787173Y-103117219D01*
X103787173Y-103117219D02*
X103787173Y-102117219D01*
X103787173Y-102117219D02*
X104120506Y-102117219D01*
X104120506Y-102117219D02*
X104215744Y-102164838D01*
X104215744Y-102164838D02*
X104263363Y-102212457D01*
X104263363Y-102212457D02*
X104310982Y-102307695D01*
X104310982Y-102307695D02*
X104310982Y-102402933D01*
X104310982Y-102402933D02*
X104263363Y-102498171D01*
X104263363Y-102498171D02*
X104215744Y-102545790D01*
X104215744Y-102545790D02*
X104120506Y-102593409D01*
X104120506Y-102593409D02*
X103787173Y-102593409D01*
X104691935Y-102117219D02*
X105310982Y-102117219D01*
X105310982Y-102117219D02*
X104977649Y-102498171D01*
X104977649Y-102498171D02*
X105120506Y-102498171D01*
X105120506Y-102498171D02*
X105215744Y-102545790D01*
X105215744Y-102545790D02*
X105263363Y-102593409D01*
X105263363Y-102593409D02*
X105310982Y-102688647D01*
X105310982Y-102688647D02*
X105310982Y-102926742D01*
X105310982Y-102926742D02*
X105263363Y-103021980D01*
X105263363Y-103021980D02*
X105215744Y-103069600D01*
X105215744Y-103069600D02*
X105120506Y-103117219D01*
X105120506Y-103117219D02*
X104834792Y-103117219D01*
X104834792Y-103117219D02*
X104739554Y-103069600D01*
X104739554Y-103069600D02*
X104691935Y-103021980D01*
X106453839Y-102069600D02*
X105596697Y-103355314D01*
X107215744Y-102450552D02*
X107215744Y-103117219D01*
X106977649Y-102069600D02*
X106739554Y-102783885D01*
X106739554Y-102783885D02*
X107358601Y-102783885D01*
X172211339Y-60162457D02*
X172116101Y-60114838D01*
X172116101Y-60114838D02*
X172020863Y-60019600D01*
X172020863Y-60019600D02*
X171878006Y-59876742D01*
X171878006Y-59876742D02*
X171782768Y-59829123D01*
X171782768Y-59829123D02*
X171687530Y-59829123D01*
X171735149Y-60067219D02*
X171639911Y-60019600D01*
X171639911Y-60019600D02*
X171544673Y-59924361D01*
X171544673Y-59924361D02*
X171497054Y-59733885D01*
X171497054Y-59733885D02*
X171497054Y-59400552D01*
X171497054Y-59400552D02*
X171544673Y-59210076D01*
X171544673Y-59210076D02*
X171639911Y-59114838D01*
X171639911Y-59114838D02*
X171735149Y-59067219D01*
X171735149Y-59067219D02*
X171925625Y-59067219D01*
X171925625Y-59067219D02*
X172020863Y-59114838D01*
X172020863Y-59114838D02*
X172116101Y-59210076D01*
X172116101Y-59210076D02*
X172163720Y-59400552D01*
X172163720Y-59400552D02*
X172163720Y-59733885D01*
X172163720Y-59733885D02*
X172116101Y-59924361D01*
X172116101Y-59924361D02*
X172020863Y-60019600D01*
X172020863Y-60019600D02*
X171925625Y-60067219D01*
X171925625Y-60067219D02*
X171735149Y-60067219D01*
X172592292Y-59543409D02*
X172925625Y-59543409D01*
X173068482Y-60067219D02*
X172592292Y-60067219D01*
X172592292Y-60067219D02*
X172592292Y-59067219D01*
X172592292Y-59067219D02*
X173068482Y-59067219D01*
X174020863Y-60067219D02*
X173449435Y-60067219D01*
X173735149Y-60067219D02*
X173735149Y-59067219D01*
X173735149Y-59067219D02*
X173639911Y-59210076D01*
X173639911Y-59210076D02*
X173544673Y-59305314D01*
X173544673Y-59305314D02*
X173449435Y-59352933D01*
X102322887Y-77525552D02*
X102084792Y-77525552D01*
X102084792Y-77525552D02*
X102084792Y-76096980D01*
X102084792Y-76096980D02*
X102322887Y-76096980D01*
X102703840Y-77192219D02*
X102703840Y-76192219D01*
X102703840Y-76192219D02*
X102941935Y-76192219D01*
X102941935Y-76192219D02*
X103084792Y-76239838D01*
X103084792Y-76239838D02*
X103180030Y-76335076D01*
X103180030Y-76335076D02*
X103227649Y-76430314D01*
X103227649Y-76430314D02*
X103275268Y-76620790D01*
X103275268Y-76620790D02*
X103275268Y-76763647D01*
X103275268Y-76763647D02*
X103227649Y-76954123D01*
X103227649Y-76954123D02*
X103180030Y-77049361D01*
X103180030Y-77049361D02*
X103084792Y-77144600D01*
X103084792Y-77144600D02*
X102941935Y-77192219D01*
X102941935Y-77192219D02*
X102703840Y-77192219D01*
X103941935Y-77525552D02*
X103941935Y-76096980D01*
X104513364Y-76192219D02*
X104846697Y-77192219D01*
X104846697Y-77192219D02*
X105180030Y-76192219D01*
X105751459Y-77525552D02*
X105751459Y-76096980D01*
X106989554Y-76239838D02*
X106894316Y-76192219D01*
X106894316Y-76192219D02*
X106751459Y-76192219D01*
X106751459Y-76192219D02*
X106608602Y-76239838D01*
X106608602Y-76239838D02*
X106513364Y-76335076D01*
X106513364Y-76335076D02*
X106465745Y-76430314D01*
X106465745Y-76430314D02*
X106418126Y-76620790D01*
X106418126Y-76620790D02*
X106418126Y-76763647D01*
X106418126Y-76763647D02*
X106465745Y-76954123D01*
X106465745Y-76954123D02*
X106513364Y-77049361D01*
X106513364Y-77049361D02*
X106608602Y-77144600D01*
X106608602Y-77144600D02*
X106751459Y-77192219D01*
X106751459Y-77192219D02*
X106846697Y-77192219D01*
X106846697Y-77192219D02*
X106989554Y-77144600D01*
X106989554Y-77144600D02*
X107037173Y-77096980D01*
X107037173Y-77096980D02*
X107037173Y-76763647D01*
X107037173Y-76763647D02*
X106846697Y-76763647D01*
X107370507Y-77525552D02*
X107608602Y-77525552D01*
X107608602Y-77525552D02*
X107608602Y-76096980D01*
X107608602Y-76096980D02*
X107370507Y-76096980D01*
D12*
X124763095Y-81654819D02*
X124763095Y-82464342D01*
X124763095Y-82464342D02*
X124810714Y-82559580D01*
X124810714Y-82559580D02*
X124858333Y-82607200D01*
X124858333Y-82607200D02*
X124953571Y-82654819D01*
X124953571Y-82654819D02*
X125144047Y-82654819D01*
X125144047Y-82654819D02*
X125239285Y-82607200D01*
X125239285Y-82607200D02*
X125286904Y-82559580D01*
X125286904Y-82559580D02*
X125334523Y-82464342D01*
X125334523Y-82464342D02*
X125334523Y-81654819D01*
X126334523Y-82654819D02*
X125763095Y-82654819D01*
X126048809Y-82654819D02*
X126048809Y-81654819D01*
X126048809Y-81654819D02*
X125953571Y-81797676D01*
X125953571Y-81797676D02*
X125858333Y-81892914D01*
X125858333Y-81892914D02*
X125763095Y-81940533D01*
D11*
X116353006Y-59518409D02*
X116495863Y-59566028D01*
X116495863Y-59566028D02*
X116543482Y-59613647D01*
X116543482Y-59613647D02*
X116591101Y-59708885D01*
X116591101Y-59708885D02*
X116591101Y-59851742D01*
X116591101Y-59851742D02*
X116543482Y-59946980D01*
X116543482Y-59946980D02*
X116495863Y-59994600D01*
X116495863Y-59994600D02*
X116400625Y-60042219D01*
X116400625Y-60042219D02*
X116019673Y-60042219D01*
X116019673Y-60042219D02*
X116019673Y-59042219D01*
X116019673Y-59042219D02*
X116353006Y-59042219D01*
X116353006Y-59042219D02*
X116448244Y-59089838D01*
X116448244Y-59089838D02*
X116495863Y-59137457D01*
X116495863Y-59137457D02*
X116543482Y-59232695D01*
X116543482Y-59232695D02*
X116543482Y-59327933D01*
X116543482Y-59327933D02*
X116495863Y-59423171D01*
X116495863Y-59423171D02*
X116448244Y-59470790D01*
X116448244Y-59470790D02*
X116353006Y-59518409D01*
X116353006Y-59518409D02*
X116019673Y-59518409D01*
X117448244Y-59375552D02*
X117448244Y-60042219D01*
X117019673Y-59375552D02*
X117019673Y-59899361D01*
X117019673Y-59899361D02*
X117067292Y-59994600D01*
X117067292Y-59994600D02*
X117162530Y-60042219D01*
X117162530Y-60042219D02*
X117305387Y-60042219D01*
X117305387Y-60042219D02*
X117400625Y-59994600D01*
X117400625Y-59994600D02*
X117448244Y-59946980D01*
X117781578Y-59375552D02*
X118162530Y-59375552D01*
X117924435Y-59042219D02*
X117924435Y-59899361D01*
X117924435Y-59899361D02*
X117972054Y-59994600D01*
X117972054Y-59994600D02*
X118067292Y-60042219D01*
X118067292Y-60042219D02*
X118162530Y-60042219D01*
X118353007Y-59375552D02*
X118733959Y-59375552D01*
X118495864Y-59042219D02*
X118495864Y-59899361D01*
X118495864Y-59899361D02*
X118543483Y-59994600D01*
X118543483Y-59994600D02*
X118638721Y-60042219D01*
X118638721Y-60042219D02*
X118733959Y-60042219D01*
X119210150Y-60042219D02*
X119114912Y-59994600D01*
X119114912Y-59994600D02*
X119067293Y-59946980D01*
X119067293Y-59946980D02*
X119019674Y-59851742D01*
X119019674Y-59851742D02*
X119019674Y-59566028D01*
X119019674Y-59566028D02*
X119067293Y-59470790D01*
X119067293Y-59470790D02*
X119114912Y-59423171D01*
X119114912Y-59423171D02*
X119210150Y-59375552D01*
X119210150Y-59375552D02*
X119353007Y-59375552D01*
X119353007Y-59375552D02*
X119448245Y-59423171D01*
X119448245Y-59423171D02*
X119495864Y-59470790D01*
X119495864Y-59470790D02*
X119543483Y-59566028D01*
X119543483Y-59566028D02*
X119543483Y-59851742D01*
X119543483Y-59851742D02*
X119495864Y-59946980D01*
X119495864Y-59946980D02*
X119448245Y-59994600D01*
X119448245Y-59994600D02*
X119353007Y-60042219D01*
X119353007Y-60042219D02*
X119210150Y-60042219D01*
X119972055Y-59375552D02*
X119972055Y-60042219D01*
X119972055Y-59470790D02*
X120019674Y-59423171D01*
X120019674Y-59423171D02*
X120114912Y-59375552D01*
X120114912Y-59375552D02*
X120257769Y-59375552D01*
X120257769Y-59375552D02*
X120353007Y-59423171D01*
X120353007Y-59423171D02*
X120400626Y-59518409D01*
X120400626Y-59518409D02*
X120400626Y-60042219D01*
X122162531Y-60042219D02*
X121591103Y-60042219D01*
X121876817Y-60042219D02*
X121876817Y-59042219D01*
X121876817Y-59042219D02*
X121781579Y-59185076D01*
X121781579Y-59185076D02*
X121686341Y-59280314D01*
X121686341Y-59280314D02*
X121591103Y-59327933D01*
X123114912Y-60042219D02*
X122543484Y-60042219D01*
X122829198Y-60042219D02*
X122829198Y-59042219D01*
X122829198Y-59042219D02*
X122733960Y-59185076D01*
X122733960Y-59185076D02*
X122638722Y-59280314D01*
X122638722Y-59280314D02*
X122543484Y-59327933D01*
D12*
X144666666Y-61881009D02*
X144333333Y-61881009D01*
X144333333Y-62404819D02*
X144333333Y-61404819D01*
X144333333Y-61404819D02*
X144809523Y-61404819D01*
X145714285Y-62404819D02*
X145142857Y-62404819D01*
X145428571Y-62404819D02*
X145428571Y-61404819D01*
X145428571Y-61404819D02*
X145333333Y-61547676D01*
X145333333Y-61547676D02*
X145238095Y-61642914D01*
X145238095Y-61642914D02*
X145142857Y-61690533D01*
D13*
X123490225Y-91592019D02*
X123775939Y-91687257D01*
X123775939Y-91687257D02*
X123871177Y-91782495D01*
X123871177Y-91782495D02*
X123966415Y-91972971D01*
X123966415Y-91972971D02*
X123966415Y-92258685D01*
X123966415Y-92258685D02*
X123871177Y-92449161D01*
X123871177Y-92449161D02*
X123775939Y-92544400D01*
X123775939Y-92544400D02*
X123585463Y-92639638D01*
X123585463Y-92639638D02*
X122823558Y-92639638D01*
X122823558Y-92639638D02*
X122823558Y-90639638D01*
X122823558Y-90639638D02*
X123490225Y-90639638D01*
X123490225Y-90639638D02*
X123680701Y-90734876D01*
X123680701Y-90734876D02*
X123775939Y-90830114D01*
X123775939Y-90830114D02*
X123871177Y-91020590D01*
X123871177Y-91020590D02*
X123871177Y-91211066D01*
X123871177Y-91211066D02*
X123775939Y-91401542D01*
X123775939Y-91401542D02*
X123680701Y-91496780D01*
X123680701Y-91496780D02*
X123490225Y-91592019D01*
X123490225Y-91592019D02*
X122823558Y-91592019D01*
X125680701Y-91306304D02*
X125680701Y-92639638D01*
X124823558Y-91306304D02*
X124823558Y-92353923D01*
X124823558Y-92353923D02*
X124918796Y-92544400D01*
X124918796Y-92544400D02*
X125109272Y-92639638D01*
X125109272Y-92639638D02*
X125394987Y-92639638D01*
X125394987Y-92639638D02*
X125585463Y-92544400D01*
X125585463Y-92544400D02*
X125680701Y-92449161D01*
X126347368Y-91306304D02*
X127109272Y-91306304D01*
X126633082Y-90639638D02*
X126633082Y-92353923D01*
X126633082Y-92353923D02*
X126728320Y-92544400D01*
X126728320Y-92544400D02*
X126918796Y-92639638D01*
X126918796Y-92639638D02*
X127109272Y-92639638D01*
X127490225Y-91306304D02*
X128252129Y-91306304D01*
X127775939Y-90639638D02*
X127775939Y-92353923D01*
X127775939Y-92353923D02*
X127871177Y-92544400D01*
X127871177Y-92544400D02*
X128061653Y-92639638D01*
X128061653Y-92639638D02*
X128252129Y-92639638D01*
X129204510Y-92639638D02*
X129014034Y-92544400D01*
X129014034Y-92544400D02*
X128918796Y-92449161D01*
X128918796Y-92449161D02*
X128823558Y-92258685D01*
X128823558Y-92258685D02*
X128823558Y-91687257D01*
X128823558Y-91687257D02*
X128918796Y-91496780D01*
X128918796Y-91496780D02*
X129014034Y-91401542D01*
X129014034Y-91401542D02*
X129204510Y-91306304D01*
X129204510Y-91306304D02*
X129490225Y-91306304D01*
X129490225Y-91306304D02*
X129680701Y-91401542D01*
X129680701Y-91401542D02*
X129775939Y-91496780D01*
X129775939Y-91496780D02*
X129871177Y-91687257D01*
X129871177Y-91687257D02*
X129871177Y-92258685D01*
X129871177Y-92258685D02*
X129775939Y-92449161D01*
X129775939Y-92449161D02*
X129680701Y-92544400D01*
X129680701Y-92544400D02*
X129490225Y-92639638D01*
X129490225Y-92639638D02*
X129204510Y-92639638D01*
X130728320Y-91306304D02*
X130728320Y-92639638D01*
X130728320Y-91496780D02*
X130823558Y-91401542D01*
X130823558Y-91401542D02*
X131014034Y-91306304D01*
X131014034Y-91306304D02*
X131299749Y-91306304D01*
X131299749Y-91306304D02*
X131490225Y-91401542D01*
X131490225Y-91401542D02*
X131585463Y-91592019D01*
X131585463Y-91592019D02*
X131585463Y-92639638D01*
X132442606Y-92544400D02*
X132633082Y-92639638D01*
X132633082Y-92639638D02*
X133014034Y-92639638D01*
X133014034Y-92639638D02*
X133204511Y-92544400D01*
X133204511Y-92544400D02*
X133299749Y-92353923D01*
X133299749Y-92353923D02*
X133299749Y-92258685D01*
X133299749Y-92258685D02*
X133204511Y-92068209D01*
X133204511Y-92068209D02*
X133014034Y-91972971D01*
X133014034Y-91972971D02*
X132728320Y-91972971D01*
X132728320Y-91972971D02*
X132537844Y-91877733D01*
X132537844Y-91877733D02*
X132442606Y-91687257D01*
X132442606Y-91687257D02*
X132442606Y-91592019D01*
X132442606Y-91592019D02*
X132537844Y-91401542D01*
X132537844Y-91401542D02*
X132728320Y-91306304D01*
X132728320Y-91306304D02*
X133014034Y-91306304D01*
X133014034Y-91306304D02*
X133204511Y-91401542D01*
D12*
X141288095Y-81679819D02*
X141288095Y-82489342D01*
X141288095Y-82489342D02*
X141335714Y-82584580D01*
X141335714Y-82584580D02*
X141383333Y-82632200D01*
X141383333Y-82632200D02*
X141478571Y-82679819D01*
X141478571Y-82679819D02*
X141669047Y-82679819D01*
X141669047Y-82679819D02*
X141764285Y-82632200D01*
X141764285Y-82632200D02*
X141811904Y-82584580D01*
X141811904Y-82584580D02*
X141859523Y-82489342D01*
X141859523Y-82489342D02*
X141859523Y-81679819D01*
X142240476Y-81679819D02*
X142859523Y-81679819D01*
X142859523Y-81679819D02*
X142526190Y-82060771D01*
X142526190Y-82060771D02*
X142669047Y-82060771D01*
X142669047Y-82060771D02*
X142764285Y-82108390D01*
X142764285Y-82108390D02*
X142811904Y-82156009D01*
X142811904Y-82156009D02*
X142859523Y-82251247D01*
X142859523Y-82251247D02*
X142859523Y-82489342D01*
X142859523Y-82489342D02*
X142811904Y-82584580D01*
X142811904Y-82584580D02*
X142764285Y-82632200D01*
X142764285Y-82632200D02*
X142669047Y-82679819D01*
X142669047Y-82679819D02*
X142383333Y-82679819D01*
X142383333Y-82679819D02*
X142288095Y-82632200D01*
X142288095Y-82632200D02*
X142240476Y-82584580D01*
D11*
X161693482Y-78204838D02*
X161598244Y-78157219D01*
X161598244Y-78157219D02*
X161455387Y-78157219D01*
X161455387Y-78157219D02*
X161312530Y-78204838D01*
X161312530Y-78204838D02*
X161217292Y-78300076D01*
X161217292Y-78300076D02*
X161169673Y-78395314D01*
X161169673Y-78395314D02*
X161122054Y-78585790D01*
X161122054Y-78585790D02*
X161122054Y-78728647D01*
X161122054Y-78728647D02*
X161169673Y-78919123D01*
X161169673Y-78919123D02*
X161217292Y-79014361D01*
X161217292Y-79014361D02*
X161312530Y-79109600D01*
X161312530Y-79109600D02*
X161455387Y-79157219D01*
X161455387Y-79157219D02*
X161550625Y-79157219D01*
X161550625Y-79157219D02*
X161693482Y-79109600D01*
X161693482Y-79109600D02*
X161741101Y-79061980D01*
X161741101Y-79061980D02*
X161741101Y-78728647D01*
X161741101Y-78728647D02*
X161550625Y-78728647D01*
X162169673Y-79157219D02*
X162169673Y-78157219D01*
X162169673Y-78157219D02*
X162550625Y-78157219D01*
X162550625Y-78157219D02*
X162645863Y-78204838D01*
X162645863Y-78204838D02*
X162693482Y-78252457D01*
X162693482Y-78252457D02*
X162741101Y-78347695D01*
X162741101Y-78347695D02*
X162741101Y-78490552D01*
X162741101Y-78490552D02*
X162693482Y-78585790D01*
X162693482Y-78585790D02*
X162645863Y-78633409D01*
X162645863Y-78633409D02*
X162550625Y-78681028D01*
X162550625Y-78681028D02*
X162169673Y-78681028D01*
X163693482Y-79157219D02*
X163122054Y-79157219D01*
X163407768Y-79157219D02*
X163407768Y-78157219D01*
X163407768Y-78157219D02*
X163312530Y-78300076D01*
X163312530Y-78300076D02*
X163217292Y-78395314D01*
X163217292Y-78395314D02*
X163122054Y-78442933D01*
X164169673Y-79157219D02*
X164360149Y-79157219D01*
X164360149Y-79157219D02*
X164455387Y-79109600D01*
X164455387Y-79109600D02*
X164503006Y-79061980D01*
X164503006Y-79061980D02*
X164598244Y-78919123D01*
X164598244Y-78919123D02*
X164645863Y-78728647D01*
X164645863Y-78728647D02*
X164645863Y-78347695D01*
X164645863Y-78347695D02*
X164598244Y-78252457D01*
X164598244Y-78252457D02*
X164550625Y-78204838D01*
X164550625Y-78204838D02*
X164455387Y-78157219D01*
X164455387Y-78157219D02*
X164264911Y-78157219D01*
X164264911Y-78157219D02*
X164169673Y-78204838D01*
X164169673Y-78204838D02*
X164122054Y-78252457D01*
X164122054Y-78252457D02*
X164074435Y-78347695D01*
X164074435Y-78347695D02*
X164074435Y-78585790D01*
X164074435Y-78585790D02*
X164122054Y-78681028D01*
X164122054Y-78681028D02*
X164169673Y-78728647D01*
X164169673Y-78728647D02*
X164264911Y-78776266D01*
X164264911Y-78776266D02*
X164455387Y-78776266D01*
X164455387Y-78776266D02*
X164550625Y-78728647D01*
X164550625Y-78728647D02*
X164598244Y-78681028D01*
X164598244Y-78681028D02*
X164645863Y-78585790D01*
X161693482Y-79814838D02*
X161598244Y-79767219D01*
X161598244Y-79767219D02*
X161455387Y-79767219D01*
X161455387Y-79767219D02*
X161312530Y-79814838D01*
X161312530Y-79814838D02*
X161217292Y-79910076D01*
X161217292Y-79910076D02*
X161169673Y-80005314D01*
X161169673Y-80005314D02*
X161122054Y-80195790D01*
X161122054Y-80195790D02*
X161122054Y-80338647D01*
X161122054Y-80338647D02*
X161169673Y-80529123D01*
X161169673Y-80529123D02*
X161217292Y-80624361D01*
X161217292Y-80624361D02*
X161312530Y-80719600D01*
X161312530Y-80719600D02*
X161455387Y-80767219D01*
X161455387Y-80767219D02*
X161550625Y-80767219D01*
X161550625Y-80767219D02*
X161693482Y-80719600D01*
X161693482Y-80719600D02*
X161741101Y-80671980D01*
X161741101Y-80671980D02*
X161741101Y-80338647D01*
X161741101Y-80338647D02*
X161550625Y-80338647D01*
X162169673Y-80767219D02*
X162169673Y-79767219D01*
X162169673Y-79767219D02*
X162550625Y-79767219D01*
X162550625Y-79767219D02*
X162645863Y-79814838D01*
X162645863Y-79814838D02*
X162693482Y-79862457D01*
X162693482Y-79862457D02*
X162741101Y-79957695D01*
X162741101Y-79957695D02*
X162741101Y-80100552D01*
X162741101Y-80100552D02*
X162693482Y-80195790D01*
X162693482Y-80195790D02*
X162645863Y-80243409D01*
X162645863Y-80243409D02*
X162550625Y-80291028D01*
X162550625Y-80291028D02*
X162169673Y-80291028D01*
X163693482Y-80767219D02*
X163122054Y-80767219D01*
X163407768Y-80767219D02*
X163407768Y-79767219D01*
X163407768Y-79767219D02*
X163312530Y-79910076D01*
X163312530Y-79910076D02*
X163217292Y-80005314D01*
X163217292Y-80005314D02*
X163122054Y-80052933D01*
X164264911Y-80195790D02*
X164169673Y-80148171D01*
X164169673Y-80148171D02*
X164122054Y-80100552D01*
X164122054Y-80100552D02*
X164074435Y-80005314D01*
X164074435Y-80005314D02*
X164074435Y-79957695D01*
X164074435Y-79957695D02*
X164122054Y-79862457D01*
X164122054Y-79862457D02*
X164169673Y-79814838D01*
X164169673Y-79814838D02*
X164264911Y-79767219D01*
X164264911Y-79767219D02*
X164455387Y-79767219D01*
X164455387Y-79767219D02*
X164550625Y-79814838D01*
X164550625Y-79814838D02*
X164598244Y-79862457D01*
X164598244Y-79862457D02*
X164645863Y-79957695D01*
X164645863Y-79957695D02*
X164645863Y-80005314D01*
X164645863Y-80005314D02*
X164598244Y-80100552D01*
X164598244Y-80100552D02*
X164550625Y-80148171D01*
X164550625Y-80148171D02*
X164455387Y-80195790D01*
X164455387Y-80195790D02*
X164264911Y-80195790D01*
X164264911Y-80195790D02*
X164169673Y-80243409D01*
X164169673Y-80243409D02*
X164122054Y-80291028D01*
X164122054Y-80291028D02*
X164074435Y-80386266D01*
X164074435Y-80386266D02*
X164074435Y-80576742D01*
X164074435Y-80576742D02*
X164122054Y-80671980D01*
X164122054Y-80671980D02*
X164169673Y-80719600D01*
X164169673Y-80719600D02*
X164264911Y-80767219D01*
X164264911Y-80767219D02*
X164455387Y-80767219D01*
X164455387Y-80767219D02*
X164550625Y-80719600D01*
X164550625Y-80719600D02*
X164598244Y-80671980D01*
X164598244Y-80671980D02*
X164645863Y-80576742D01*
X164645863Y-80576742D02*
X164645863Y-80386266D01*
X164645863Y-80386266D02*
X164598244Y-80291028D01*
X164598244Y-80291028D02*
X164550625Y-80243409D01*
X164550625Y-80243409D02*
X164455387Y-80195790D01*
D12*
X154404819Y-75166666D02*
X153928628Y-75499999D01*
X154404819Y-75738094D02*
X153404819Y-75738094D01*
X153404819Y-75738094D02*
X153404819Y-75357142D01*
X153404819Y-75357142D02*
X153452438Y-75261904D01*
X153452438Y-75261904D02*
X153500057Y-75214285D01*
X153500057Y-75214285D02*
X153595295Y-75166666D01*
X153595295Y-75166666D02*
X153738152Y-75166666D01*
X153738152Y-75166666D02*
X153833390Y-75214285D01*
X153833390Y-75214285D02*
X153881009Y-75261904D01*
X153881009Y-75261904D02*
X153928628Y-75357142D01*
X153928628Y-75357142D02*
X153928628Y-75738094D01*
X153500057Y-74785713D02*
X153452438Y-74738094D01*
X153452438Y-74738094D02*
X153404819Y-74642856D01*
X153404819Y-74642856D02*
X153404819Y-74404761D01*
X153404819Y-74404761D02*
X153452438Y-74309523D01*
X153452438Y-74309523D02*
X153500057Y-74261904D01*
X153500057Y-74261904D02*
X153595295Y-74214285D01*
X153595295Y-74214285D02*
X153690533Y-74214285D01*
X153690533Y-74214285D02*
X153833390Y-74261904D01*
X153833390Y-74261904D02*
X154404819Y-74833332D01*
X154404819Y-74833332D02*
X154404819Y-74214285D01*
X137970870Y-84287652D02*
X137970870Y-84354996D01*
X137970870Y-84354996D02*
X137903526Y-84489683D01*
X137903526Y-84489683D02*
X137836183Y-84557026D01*
X137836183Y-84557026D02*
X137701496Y-84624370D01*
X137701496Y-84624370D02*
X137566809Y-84624370D01*
X137566809Y-84624370D02*
X137465794Y-84590698D01*
X137465794Y-84590698D02*
X137297435Y-84489683D01*
X137297435Y-84489683D02*
X137196420Y-84388668D01*
X137196420Y-84388668D02*
X137095404Y-84220309D01*
X137095404Y-84220309D02*
X137061733Y-84119294D01*
X137061733Y-84119294D02*
X137061733Y-83984607D01*
X137061733Y-83984607D02*
X137129076Y-83849920D01*
X137129076Y-83849920D02*
X137196420Y-83782576D01*
X137196420Y-83782576D02*
X137331107Y-83715233D01*
X137331107Y-83715233D02*
X137398450Y-83715233D01*
X138711648Y-83681561D02*
X138307587Y-84085622D01*
X138509618Y-83883591D02*
X137802511Y-83176485D01*
X137802511Y-83176485D02*
X137836183Y-83344843D01*
X137836183Y-83344843D02*
X137836183Y-83479530D01*
X137836183Y-83479530D02*
X137802511Y-83580546D01*
X138341259Y-82772423D02*
X138341259Y-82705080D01*
X138341259Y-82705080D02*
X138374931Y-82604065D01*
X138374931Y-82604065D02*
X138543290Y-82435706D01*
X138543290Y-82435706D02*
X138644305Y-82402034D01*
X138644305Y-82402034D02*
X138711649Y-82402034D01*
X138711649Y-82402034D02*
X138812664Y-82435706D01*
X138812664Y-82435706D02*
X138880007Y-82503049D01*
X138880007Y-82503049D02*
X138947351Y-82637736D01*
X138947351Y-82637736D02*
X138947351Y-83445858D01*
X138947351Y-83445858D02*
X139385084Y-83008126D01*
X100974642Y-99704819D02*
X100641309Y-99228628D01*
X100403214Y-99704819D02*
X100403214Y-98704819D01*
X100403214Y-98704819D02*
X100784166Y-98704819D01*
X100784166Y-98704819D02*
X100879404Y-98752438D01*
X100879404Y-98752438D02*
X100927023Y-98800057D01*
X100927023Y-98800057D02*
X100974642Y-98895295D01*
X100974642Y-98895295D02*
X100974642Y-99038152D01*
X100974642Y-99038152D02*
X100927023Y-99133390D01*
X100927023Y-99133390D02*
X100879404Y-99181009D01*
X100879404Y-99181009D02*
X100784166Y-99228628D01*
X100784166Y-99228628D02*
X100403214Y-99228628D01*
X101927023Y-99704819D02*
X101355595Y-99704819D01*
X101641309Y-99704819D02*
X101641309Y-98704819D01*
X101641309Y-98704819D02*
X101546071Y-98847676D01*
X101546071Y-98847676D02*
X101450833Y-98942914D01*
X101450833Y-98942914D02*
X101355595Y-98990533D01*
X102546071Y-98704819D02*
X102641309Y-98704819D01*
X102641309Y-98704819D02*
X102736547Y-98752438D01*
X102736547Y-98752438D02*
X102784166Y-98800057D01*
X102784166Y-98800057D02*
X102831785Y-98895295D01*
X102831785Y-98895295D02*
X102879404Y-99085771D01*
X102879404Y-99085771D02*
X102879404Y-99323866D01*
X102879404Y-99323866D02*
X102831785Y-99514342D01*
X102831785Y-99514342D02*
X102784166Y-99609580D01*
X102784166Y-99609580D02*
X102736547Y-99657200D01*
X102736547Y-99657200D02*
X102641309Y-99704819D01*
X102641309Y-99704819D02*
X102546071Y-99704819D01*
X102546071Y-99704819D02*
X102450833Y-99657200D01*
X102450833Y-99657200D02*
X102403214Y-99609580D01*
X102403214Y-99609580D02*
X102355595Y-99514342D01*
X102355595Y-99514342D02*
X102307976Y-99323866D01*
X102307976Y-99323866D02*
X102307976Y-99085771D01*
X102307976Y-99085771D02*
X102355595Y-98895295D01*
X102355595Y-98895295D02*
X102403214Y-98800057D01*
X102403214Y-98800057D02*
X102450833Y-98752438D01*
X102450833Y-98752438D02*
X102546071Y-98704819D01*
X131802887Y-71336411D02*
X131735543Y-71336411D01*
X131735543Y-71336411D02*
X131600856Y-71269067D01*
X131600856Y-71269067D02*
X131533513Y-71201724D01*
X131533513Y-71201724D02*
X131466169Y-71067037D01*
X131466169Y-71067037D02*
X131466169Y-70932350D01*
X131466169Y-70932350D02*
X131499841Y-70831335D01*
X131499841Y-70831335D02*
X131600856Y-70662976D01*
X131600856Y-70662976D02*
X131701871Y-70561961D01*
X131701871Y-70561961D02*
X131870230Y-70460945D01*
X131870230Y-70460945D02*
X131971245Y-70427274D01*
X131971245Y-70427274D02*
X132105932Y-70427274D01*
X132105932Y-70427274D02*
X132240619Y-70494617D01*
X132240619Y-70494617D02*
X132307963Y-70561961D01*
X132307963Y-70561961D02*
X132375306Y-70696648D01*
X132375306Y-70696648D02*
X132375306Y-70763991D01*
X132543665Y-71403754D02*
X132509993Y-71302739D01*
X132509993Y-71302739D02*
X132509993Y-71235396D01*
X132509993Y-71235396D02*
X132543665Y-71134380D01*
X132543665Y-71134380D02*
X132577337Y-71100709D01*
X132577337Y-71100709D02*
X132678352Y-71067037D01*
X132678352Y-71067037D02*
X132745696Y-71067037D01*
X132745696Y-71067037D02*
X132846711Y-71100709D01*
X132846711Y-71100709D02*
X132981398Y-71235396D01*
X132981398Y-71235396D02*
X133015070Y-71336411D01*
X133015070Y-71336411D02*
X133015070Y-71403754D01*
X133015070Y-71403754D02*
X132981398Y-71504770D01*
X132981398Y-71504770D02*
X132947726Y-71538441D01*
X132947726Y-71538441D02*
X132846711Y-71572113D01*
X132846711Y-71572113D02*
X132779367Y-71572113D01*
X132779367Y-71572113D02*
X132678352Y-71538441D01*
X132678352Y-71538441D02*
X132543665Y-71403754D01*
X132543665Y-71403754D02*
X132442650Y-71370083D01*
X132442650Y-71370083D02*
X132375306Y-71370083D01*
X132375306Y-71370083D02*
X132274291Y-71403754D01*
X132274291Y-71403754D02*
X132139604Y-71538441D01*
X132139604Y-71538441D02*
X132105932Y-71639457D01*
X132105932Y-71639457D02*
X132105932Y-71706800D01*
X132105932Y-71706800D02*
X132139604Y-71807815D01*
X132139604Y-71807815D02*
X132274291Y-71942502D01*
X132274291Y-71942502D02*
X132375306Y-71976174D01*
X132375306Y-71976174D02*
X132442650Y-71976174D01*
X132442650Y-71976174D02*
X132543665Y-71942502D01*
X132543665Y-71942502D02*
X132678352Y-71807815D01*
X132678352Y-71807815D02*
X132712024Y-71706800D01*
X132712024Y-71706800D02*
X132712024Y-71639457D01*
X132712024Y-71639457D02*
X132678352Y-71538441D01*
X130808333Y-68854819D02*
X130475000Y-68378628D01*
X130236905Y-68854819D02*
X130236905Y-67854819D01*
X130236905Y-67854819D02*
X130617857Y-67854819D01*
X130617857Y-67854819D02*
X130713095Y-67902438D01*
X130713095Y-67902438D02*
X130760714Y-67950057D01*
X130760714Y-67950057D02*
X130808333Y-68045295D01*
X130808333Y-68045295D02*
X130808333Y-68188152D01*
X130808333Y-68188152D02*
X130760714Y-68283390D01*
X130760714Y-68283390D02*
X130713095Y-68331009D01*
X130713095Y-68331009D02*
X130617857Y-68378628D01*
X130617857Y-68378628D02*
X130236905Y-68378628D01*
X131665476Y-67854819D02*
X131475000Y-67854819D01*
X131475000Y-67854819D02*
X131379762Y-67902438D01*
X131379762Y-67902438D02*
X131332143Y-67950057D01*
X131332143Y-67950057D02*
X131236905Y-68092914D01*
X131236905Y-68092914D02*
X131189286Y-68283390D01*
X131189286Y-68283390D02*
X131189286Y-68664342D01*
X131189286Y-68664342D02*
X131236905Y-68759580D01*
X131236905Y-68759580D02*
X131284524Y-68807200D01*
X131284524Y-68807200D02*
X131379762Y-68854819D01*
X131379762Y-68854819D02*
X131570238Y-68854819D01*
X131570238Y-68854819D02*
X131665476Y-68807200D01*
X131665476Y-68807200D02*
X131713095Y-68759580D01*
X131713095Y-68759580D02*
X131760714Y-68664342D01*
X131760714Y-68664342D02*
X131760714Y-68426247D01*
X131760714Y-68426247D02*
X131713095Y-68331009D01*
X131713095Y-68331009D02*
X131665476Y-68283390D01*
X131665476Y-68283390D02*
X131570238Y-68235771D01*
X131570238Y-68235771D02*
X131379762Y-68235771D01*
X131379762Y-68235771D02*
X131284524Y-68283390D01*
X131284524Y-68283390D02*
X131236905Y-68331009D01*
X131236905Y-68331009D02*
X131189286Y-68426247D01*
X130927887Y-72436411D02*
X130860543Y-72436411D01*
X130860543Y-72436411D02*
X130725856Y-72369067D01*
X130725856Y-72369067D02*
X130658513Y-72301724D01*
X130658513Y-72301724D02*
X130591169Y-72167037D01*
X130591169Y-72167037D02*
X130591169Y-72032350D01*
X130591169Y-72032350D02*
X130624841Y-71931335D01*
X130624841Y-71931335D02*
X130725856Y-71762976D01*
X130725856Y-71762976D02*
X130826871Y-71661961D01*
X130826871Y-71661961D02*
X130995230Y-71560945D01*
X130995230Y-71560945D02*
X131096245Y-71527274D01*
X131096245Y-71527274D02*
X131230932Y-71527274D01*
X131230932Y-71527274D02*
X131365619Y-71594617D01*
X131365619Y-71594617D02*
X131432963Y-71661961D01*
X131432963Y-71661961D02*
X131500306Y-71796648D01*
X131500306Y-71796648D02*
X131500306Y-71863991D01*
X131938039Y-72638441D02*
X131466635Y-73109846D01*
X132039054Y-72200709D02*
X131365619Y-72537426D01*
X131365619Y-72537426D02*
X131803352Y-72975159D01*
X150283333Y-82034580D02*
X150235714Y-82082200D01*
X150235714Y-82082200D02*
X150092857Y-82129819D01*
X150092857Y-82129819D02*
X149997619Y-82129819D01*
X149997619Y-82129819D02*
X149854762Y-82082200D01*
X149854762Y-82082200D02*
X149759524Y-81986961D01*
X149759524Y-81986961D02*
X149711905Y-81891723D01*
X149711905Y-81891723D02*
X149664286Y-81701247D01*
X149664286Y-81701247D02*
X149664286Y-81558390D01*
X149664286Y-81558390D02*
X149711905Y-81367914D01*
X149711905Y-81367914D02*
X149759524Y-81272676D01*
X149759524Y-81272676D02*
X149854762Y-81177438D01*
X149854762Y-81177438D02*
X149997619Y-81129819D01*
X149997619Y-81129819D02*
X150092857Y-81129819D01*
X150092857Y-81129819D02*
X150235714Y-81177438D01*
X150235714Y-81177438D02*
X150283333Y-81225057D01*
X150664286Y-81225057D02*
X150711905Y-81177438D01*
X150711905Y-81177438D02*
X150807143Y-81129819D01*
X150807143Y-81129819D02*
X151045238Y-81129819D01*
X151045238Y-81129819D02*
X151140476Y-81177438D01*
X151140476Y-81177438D02*
X151188095Y-81225057D01*
X151188095Y-81225057D02*
X151235714Y-81320295D01*
X151235714Y-81320295D02*
X151235714Y-81415533D01*
X151235714Y-81415533D02*
X151188095Y-81558390D01*
X151188095Y-81558390D02*
X150616667Y-82129819D01*
X150616667Y-82129819D02*
X151235714Y-82129819D01*
X137007142Y-72029580D02*
X136959523Y-72077200D01*
X136959523Y-72077200D02*
X136816666Y-72124819D01*
X136816666Y-72124819D02*
X136721428Y-72124819D01*
X136721428Y-72124819D02*
X136578571Y-72077200D01*
X136578571Y-72077200D02*
X136483333Y-71981961D01*
X136483333Y-71981961D02*
X136435714Y-71886723D01*
X136435714Y-71886723D02*
X136388095Y-71696247D01*
X136388095Y-71696247D02*
X136388095Y-71553390D01*
X136388095Y-71553390D02*
X136435714Y-71362914D01*
X136435714Y-71362914D02*
X136483333Y-71267676D01*
X136483333Y-71267676D02*
X136578571Y-71172438D01*
X136578571Y-71172438D02*
X136721428Y-71124819D01*
X136721428Y-71124819D02*
X136816666Y-71124819D01*
X136816666Y-71124819D02*
X136959523Y-71172438D01*
X136959523Y-71172438D02*
X137007142Y-71220057D01*
X137959523Y-72124819D02*
X137388095Y-72124819D01*
X137673809Y-72124819D02*
X137673809Y-71124819D01*
X137673809Y-71124819D02*
X137578571Y-71267676D01*
X137578571Y-71267676D02*
X137483333Y-71362914D01*
X137483333Y-71362914D02*
X137388095Y-71410533D01*
X138816666Y-71458152D02*
X138816666Y-72124819D01*
X138578571Y-71077200D02*
X138340476Y-71791485D01*
X138340476Y-71791485D02*
X138959523Y-71791485D01*
X144024642Y-78059580D02*
X143977023Y-78107200D01*
X143977023Y-78107200D02*
X143834166Y-78154819D01*
X143834166Y-78154819D02*
X143738928Y-78154819D01*
X143738928Y-78154819D02*
X143596071Y-78107200D01*
X143596071Y-78107200D02*
X143500833Y-78011961D01*
X143500833Y-78011961D02*
X143453214Y-77916723D01*
X143453214Y-77916723D02*
X143405595Y-77726247D01*
X143405595Y-77726247D02*
X143405595Y-77583390D01*
X143405595Y-77583390D02*
X143453214Y-77392914D01*
X143453214Y-77392914D02*
X143500833Y-77297676D01*
X143500833Y-77297676D02*
X143596071Y-77202438D01*
X143596071Y-77202438D02*
X143738928Y-77154819D01*
X143738928Y-77154819D02*
X143834166Y-77154819D01*
X143834166Y-77154819D02*
X143977023Y-77202438D01*
X143977023Y-77202438D02*
X144024642Y-77250057D01*
X144977023Y-78154819D02*
X144405595Y-78154819D01*
X144691309Y-78154819D02*
X144691309Y-77154819D01*
X144691309Y-77154819D02*
X144596071Y-77297676D01*
X144596071Y-77297676D02*
X144500833Y-77392914D01*
X144500833Y-77392914D02*
X144405595Y-77440533D01*
X145596071Y-77154819D02*
X145691309Y-77154819D01*
X145691309Y-77154819D02*
X145786547Y-77202438D01*
X145786547Y-77202438D02*
X145834166Y-77250057D01*
X145834166Y-77250057D02*
X145881785Y-77345295D01*
X145881785Y-77345295D02*
X145929404Y-77535771D01*
X145929404Y-77535771D02*
X145929404Y-77773866D01*
X145929404Y-77773866D02*
X145881785Y-77964342D01*
X145881785Y-77964342D02*
X145834166Y-78059580D01*
X145834166Y-78059580D02*
X145786547Y-78107200D01*
X145786547Y-78107200D02*
X145691309Y-78154819D01*
X145691309Y-78154819D02*
X145596071Y-78154819D01*
X145596071Y-78154819D02*
X145500833Y-78107200D01*
X145500833Y-78107200D02*
X145453214Y-78059580D01*
X145453214Y-78059580D02*
X145405595Y-77964342D01*
X145405595Y-77964342D02*
X145357976Y-77773866D01*
X145357976Y-77773866D02*
X145357976Y-77535771D01*
X145357976Y-77535771D02*
X145405595Y-77345295D01*
X145405595Y-77345295D02*
X145453214Y-77250057D01*
X145453214Y-77250057D02*
X145500833Y-77202438D01*
X145500833Y-77202438D02*
X145596071Y-77154819D01*
X130808333Y-64554819D02*
X130475000Y-64078628D01*
X130236905Y-64554819D02*
X130236905Y-63554819D01*
X130236905Y-63554819D02*
X130617857Y-63554819D01*
X130617857Y-63554819D02*
X130713095Y-63602438D01*
X130713095Y-63602438D02*
X130760714Y-63650057D01*
X130760714Y-63650057D02*
X130808333Y-63745295D01*
X130808333Y-63745295D02*
X130808333Y-63888152D01*
X130808333Y-63888152D02*
X130760714Y-63983390D01*
X130760714Y-63983390D02*
X130713095Y-64031009D01*
X130713095Y-64031009D02*
X130617857Y-64078628D01*
X130617857Y-64078628D02*
X130236905Y-64078628D01*
X131713095Y-63554819D02*
X131236905Y-63554819D01*
X131236905Y-63554819D02*
X131189286Y-64031009D01*
X131189286Y-64031009D02*
X131236905Y-63983390D01*
X131236905Y-63983390D02*
X131332143Y-63935771D01*
X131332143Y-63935771D02*
X131570238Y-63935771D01*
X131570238Y-63935771D02*
X131665476Y-63983390D01*
X131665476Y-63983390D02*
X131713095Y-64031009D01*
X131713095Y-64031009D02*
X131760714Y-64126247D01*
X131760714Y-64126247D02*
X131760714Y-64364342D01*
X131760714Y-64364342D02*
X131713095Y-64459580D01*
X131713095Y-64459580D02*
X131665476Y-64507200D01*
X131665476Y-64507200D02*
X131570238Y-64554819D01*
X131570238Y-64554819D02*
X131332143Y-64554819D01*
X131332143Y-64554819D02*
X131236905Y-64507200D01*
X131236905Y-64507200D02*
X131189286Y-64459580D01*
X125083333Y-75579819D02*
X124750000Y-75103628D01*
X124511905Y-75579819D02*
X124511905Y-74579819D01*
X124511905Y-74579819D02*
X124892857Y-74579819D01*
X124892857Y-74579819D02*
X124988095Y-74627438D01*
X124988095Y-74627438D02*
X125035714Y-74675057D01*
X125035714Y-74675057D02*
X125083333Y-74770295D01*
X125083333Y-74770295D02*
X125083333Y-74913152D01*
X125083333Y-74913152D02*
X125035714Y-75008390D01*
X125035714Y-75008390D02*
X124988095Y-75056009D01*
X124988095Y-75056009D02*
X124892857Y-75103628D01*
X124892857Y-75103628D02*
X124511905Y-75103628D01*
X126035714Y-75579819D02*
X125464286Y-75579819D01*
X125750000Y-75579819D02*
X125750000Y-74579819D01*
X125750000Y-74579819D02*
X125654762Y-74722676D01*
X125654762Y-74722676D02*
X125559524Y-74817914D01*
X125559524Y-74817914D02*
X125464286Y-74865533D01*
X131457142Y-82419580D02*
X131409523Y-82467200D01*
X131409523Y-82467200D02*
X131266666Y-82514819D01*
X131266666Y-82514819D02*
X131171428Y-82514819D01*
X131171428Y-82514819D02*
X131028571Y-82467200D01*
X131028571Y-82467200D02*
X130933333Y-82371961D01*
X130933333Y-82371961D02*
X130885714Y-82276723D01*
X130885714Y-82276723D02*
X130838095Y-82086247D01*
X130838095Y-82086247D02*
X130838095Y-81943390D01*
X130838095Y-81943390D02*
X130885714Y-81752914D01*
X130885714Y-81752914D02*
X130933333Y-81657676D01*
X130933333Y-81657676D02*
X131028571Y-81562438D01*
X131028571Y-81562438D02*
X131171428Y-81514819D01*
X131171428Y-81514819D02*
X131266666Y-81514819D01*
X131266666Y-81514819D02*
X131409523Y-81562438D01*
X131409523Y-81562438D02*
X131457142Y-81610057D01*
X132409523Y-82514819D02*
X131838095Y-82514819D01*
X132123809Y-82514819D02*
X132123809Y-81514819D01*
X132123809Y-81514819D02*
X132028571Y-81657676D01*
X132028571Y-81657676D02*
X131933333Y-81752914D01*
X131933333Y-81752914D02*
X131838095Y-81800533D01*
X133314285Y-81514819D02*
X132838095Y-81514819D01*
X132838095Y-81514819D02*
X132790476Y-81991009D01*
X132790476Y-81991009D02*
X132838095Y-81943390D01*
X132838095Y-81943390D02*
X132933333Y-81895771D01*
X132933333Y-81895771D02*
X133171428Y-81895771D01*
X133171428Y-81895771D02*
X133266666Y-81943390D01*
X133266666Y-81943390D02*
X133314285Y-81991009D01*
X133314285Y-81991009D02*
X133361904Y-82086247D01*
X133361904Y-82086247D02*
X133361904Y-82324342D01*
X133361904Y-82324342D02*
X133314285Y-82419580D01*
X133314285Y-82419580D02*
X133266666Y-82467200D01*
X133266666Y-82467200D02*
X133171428Y-82514819D01*
X133171428Y-82514819D02*
X132933333Y-82514819D01*
X132933333Y-82514819D02*
X132838095Y-82467200D01*
X132838095Y-82467200D02*
X132790476Y-82419580D01*
X132682142Y-76184580D02*
X132634523Y-76232200D01*
X132634523Y-76232200D02*
X132491666Y-76279819D01*
X132491666Y-76279819D02*
X132396428Y-76279819D01*
X132396428Y-76279819D02*
X132253571Y-76232200D01*
X132253571Y-76232200D02*
X132158333Y-76136961D01*
X132158333Y-76136961D02*
X132110714Y-76041723D01*
X132110714Y-76041723D02*
X132063095Y-75851247D01*
X132063095Y-75851247D02*
X132063095Y-75708390D01*
X132063095Y-75708390D02*
X132110714Y-75517914D01*
X132110714Y-75517914D02*
X132158333Y-75422676D01*
X132158333Y-75422676D02*
X132253571Y-75327438D01*
X132253571Y-75327438D02*
X132396428Y-75279819D01*
X132396428Y-75279819D02*
X132491666Y-75279819D01*
X132491666Y-75279819D02*
X132634523Y-75327438D01*
X132634523Y-75327438D02*
X132682142Y-75375057D01*
X133634523Y-76279819D02*
X133063095Y-76279819D01*
X133348809Y-76279819D02*
X133348809Y-75279819D01*
X133348809Y-75279819D02*
X133253571Y-75422676D01*
X133253571Y-75422676D02*
X133158333Y-75517914D01*
X133158333Y-75517914D02*
X133063095Y-75565533D01*
X133967857Y-75279819D02*
X134586904Y-75279819D01*
X134586904Y-75279819D02*
X134253571Y-75660771D01*
X134253571Y-75660771D02*
X134396428Y-75660771D01*
X134396428Y-75660771D02*
X134491666Y-75708390D01*
X134491666Y-75708390D02*
X134539285Y-75756009D01*
X134539285Y-75756009D02*
X134586904Y-75851247D01*
X134586904Y-75851247D02*
X134586904Y-76089342D01*
X134586904Y-76089342D02*
X134539285Y-76184580D01*
X134539285Y-76184580D02*
X134491666Y-76232200D01*
X134491666Y-76232200D02*
X134396428Y-76279819D01*
X134396428Y-76279819D02*
X134110714Y-76279819D01*
X134110714Y-76279819D02*
X134015476Y-76232200D01*
X134015476Y-76232200D02*
X133967857Y-76184580D01*
X138733333Y-63454819D02*
X138400000Y-62978628D01*
X138161905Y-63454819D02*
X138161905Y-62454819D01*
X138161905Y-62454819D02*
X138542857Y-62454819D01*
X138542857Y-62454819D02*
X138638095Y-62502438D01*
X138638095Y-62502438D02*
X138685714Y-62550057D01*
X138685714Y-62550057D02*
X138733333Y-62645295D01*
X138733333Y-62645295D02*
X138733333Y-62788152D01*
X138733333Y-62788152D02*
X138685714Y-62883390D01*
X138685714Y-62883390D02*
X138638095Y-62931009D01*
X138638095Y-62931009D02*
X138542857Y-62978628D01*
X138542857Y-62978628D02*
X138161905Y-62978628D01*
X139066667Y-62454819D02*
X139685714Y-62454819D01*
X139685714Y-62454819D02*
X139352381Y-62835771D01*
X139352381Y-62835771D02*
X139495238Y-62835771D01*
X139495238Y-62835771D02*
X139590476Y-62883390D01*
X139590476Y-62883390D02*
X139638095Y-62931009D01*
X139638095Y-62931009D02*
X139685714Y-63026247D01*
X139685714Y-63026247D02*
X139685714Y-63264342D01*
X139685714Y-63264342D02*
X139638095Y-63359580D01*
X139638095Y-63359580D02*
X139590476Y-63407200D01*
X139590476Y-63407200D02*
X139495238Y-63454819D01*
X139495238Y-63454819D02*
X139209524Y-63454819D01*
X139209524Y-63454819D02*
X139114286Y-63407200D01*
X139114286Y-63407200D02*
X139066667Y-63359580D01*
X140377142Y-67869580D02*
X140329523Y-67917200D01*
X140329523Y-67917200D02*
X140186666Y-67964819D01*
X140186666Y-67964819D02*
X140091428Y-67964819D01*
X140091428Y-67964819D02*
X139948571Y-67917200D01*
X139948571Y-67917200D02*
X139853333Y-67821961D01*
X139853333Y-67821961D02*
X139805714Y-67726723D01*
X139805714Y-67726723D02*
X139758095Y-67536247D01*
X139758095Y-67536247D02*
X139758095Y-67393390D01*
X139758095Y-67393390D02*
X139805714Y-67202914D01*
X139805714Y-67202914D02*
X139853333Y-67107676D01*
X139853333Y-67107676D02*
X139948571Y-67012438D01*
X139948571Y-67012438D02*
X140091428Y-66964819D01*
X140091428Y-66964819D02*
X140186666Y-66964819D01*
X140186666Y-66964819D02*
X140329523Y-67012438D01*
X140329523Y-67012438D02*
X140377142Y-67060057D01*
X141329523Y-67964819D02*
X140758095Y-67964819D01*
X141043809Y-67964819D02*
X141043809Y-66964819D01*
X141043809Y-66964819D02*
X140948571Y-67107676D01*
X140948571Y-67107676D02*
X140853333Y-67202914D01*
X140853333Y-67202914D02*
X140758095Y-67250533D01*
X141662857Y-66964819D02*
X142329523Y-66964819D01*
X142329523Y-66964819D02*
X141900952Y-67964819D01*
X142697142Y-64609580D02*
X142649523Y-64657200D01*
X142649523Y-64657200D02*
X142506666Y-64704819D01*
X142506666Y-64704819D02*
X142411428Y-64704819D01*
X142411428Y-64704819D02*
X142268571Y-64657200D01*
X142268571Y-64657200D02*
X142173333Y-64561961D01*
X142173333Y-64561961D02*
X142125714Y-64466723D01*
X142125714Y-64466723D02*
X142078095Y-64276247D01*
X142078095Y-64276247D02*
X142078095Y-64133390D01*
X142078095Y-64133390D02*
X142125714Y-63942914D01*
X142125714Y-63942914D02*
X142173333Y-63847676D01*
X142173333Y-63847676D02*
X142268571Y-63752438D01*
X142268571Y-63752438D02*
X142411428Y-63704819D01*
X142411428Y-63704819D02*
X142506666Y-63704819D01*
X142506666Y-63704819D02*
X142649523Y-63752438D01*
X142649523Y-63752438D02*
X142697142Y-63800057D01*
X143649523Y-64704819D02*
X143078095Y-64704819D01*
X143363809Y-64704819D02*
X143363809Y-63704819D01*
X143363809Y-63704819D02*
X143268571Y-63847676D01*
X143268571Y-63847676D02*
X143173333Y-63942914D01*
X143173333Y-63942914D02*
X143078095Y-63990533D01*
X144506666Y-63704819D02*
X144316190Y-63704819D01*
X144316190Y-63704819D02*
X144220952Y-63752438D01*
X144220952Y-63752438D02*
X144173333Y-63800057D01*
X144173333Y-63800057D02*
X144078095Y-63942914D01*
X144078095Y-63942914D02*
X144030476Y-64133390D01*
X144030476Y-64133390D02*
X144030476Y-64514342D01*
X144030476Y-64514342D02*
X144078095Y-64609580D01*
X144078095Y-64609580D02*
X144125714Y-64657200D01*
X144125714Y-64657200D02*
X144220952Y-64704819D01*
X144220952Y-64704819D02*
X144411428Y-64704819D01*
X144411428Y-64704819D02*
X144506666Y-64657200D01*
X144506666Y-64657200D02*
X144554285Y-64609580D01*
X144554285Y-64609580D02*
X144601904Y-64514342D01*
X144601904Y-64514342D02*
X144601904Y-64276247D01*
X144601904Y-64276247D02*
X144554285Y-64181009D01*
X144554285Y-64181009D02*
X144506666Y-64133390D01*
X144506666Y-64133390D02*
X144411428Y-64085771D01*
X144411428Y-64085771D02*
X144220952Y-64085771D01*
X144220952Y-64085771D02*
X144125714Y-64133390D01*
X144125714Y-64133390D02*
X144078095Y-64181009D01*
X144078095Y-64181009D02*
X144030476Y-64276247D01*
X146913333Y-79174819D02*
X146580000Y-78698628D01*
X146341905Y-79174819D02*
X146341905Y-78174819D01*
X146341905Y-78174819D02*
X146722857Y-78174819D01*
X146722857Y-78174819D02*
X146818095Y-78222438D01*
X146818095Y-78222438D02*
X146865714Y-78270057D01*
X146865714Y-78270057D02*
X146913333Y-78365295D01*
X146913333Y-78365295D02*
X146913333Y-78508152D01*
X146913333Y-78508152D02*
X146865714Y-78603390D01*
X146865714Y-78603390D02*
X146818095Y-78651009D01*
X146818095Y-78651009D02*
X146722857Y-78698628D01*
X146722857Y-78698628D02*
X146341905Y-78698628D01*
X147246667Y-78174819D02*
X147913333Y-78174819D01*
X147913333Y-78174819D02*
X147484762Y-79174819D01*
X132003333Y-79444580D02*
X131955714Y-79492200D01*
X131955714Y-79492200D02*
X131812857Y-79539819D01*
X131812857Y-79539819D02*
X131717619Y-79539819D01*
X131717619Y-79539819D02*
X131574762Y-79492200D01*
X131574762Y-79492200D02*
X131479524Y-79396961D01*
X131479524Y-79396961D02*
X131431905Y-79301723D01*
X131431905Y-79301723D02*
X131384286Y-79111247D01*
X131384286Y-79111247D02*
X131384286Y-78968390D01*
X131384286Y-78968390D02*
X131431905Y-78777914D01*
X131431905Y-78777914D02*
X131479524Y-78682676D01*
X131479524Y-78682676D02*
X131574762Y-78587438D01*
X131574762Y-78587438D02*
X131717619Y-78539819D01*
X131717619Y-78539819D02*
X131812857Y-78539819D01*
X131812857Y-78539819D02*
X131955714Y-78587438D01*
X131955714Y-78587438D02*
X132003333Y-78635057D01*
X132908095Y-78539819D02*
X132431905Y-78539819D01*
X132431905Y-78539819D02*
X132384286Y-79016009D01*
X132384286Y-79016009D02*
X132431905Y-78968390D01*
X132431905Y-78968390D02*
X132527143Y-78920771D01*
X132527143Y-78920771D02*
X132765238Y-78920771D01*
X132765238Y-78920771D02*
X132860476Y-78968390D01*
X132860476Y-78968390D02*
X132908095Y-79016009D01*
X132908095Y-79016009D02*
X132955714Y-79111247D01*
X132955714Y-79111247D02*
X132955714Y-79349342D01*
X132955714Y-79349342D02*
X132908095Y-79444580D01*
X132908095Y-79444580D02*
X132860476Y-79492200D01*
X132860476Y-79492200D02*
X132765238Y-79539819D01*
X132765238Y-79539819D02*
X132527143Y-79539819D01*
X132527143Y-79539819D02*
X132431905Y-79492200D01*
X132431905Y-79492200D02*
X132384286Y-79444580D01*
X160107142Y-70559580D02*
X160059523Y-70607200D01*
X160059523Y-70607200D02*
X159916666Y-70654819D01*
X159916666Y-70654819D02*
X159821428Y-70654819D01*
X159821428Y-70654819D02*
X159678571Y-70607200D01*
X159678571Y-70607200D02*
X159583333Y-70511961D01*
X159583333Y-70511961D02*
X159535714Y-70416723D01*
X159535714Y-70416723D02*
X159488095Y-70226247D01*
X159488095Y-70226247D02*
X159488095Y-70083390D01*
X159488095Y-70083390D02*
X159535714Y-69892914D01*
X159535714Y-69892914D02*
X159583333Y-69797676D01*
X159583333Y-69797676D02*
X159678571Y-69702438D01*
X159678571Y-69702438D02*
X159821428Y-69654819D01*
X159821428Y-69654819D02*
X159916666Y-69654819D01*
X159916666Y-69654819D02*
X160059523Y-69702438D01*
X160059523Y-69702438D02*
X160107142Y-69750057D01*
X161059523Y-70654819D02*
X160488095Y-70654819D01*
X160773809Y-70654819D02*
X160773809Y-69654819D01*
X160773809Y-69654819D02*
X160678571Y-69797676D01*
X160678571Y-69797676D02*
X160583333Y-69892914D01*
X160583333Y-69892914D02*
X160488095Y-69940533D01*
X161630952Y-70083390D02*
X161535714Y-70035771D01*
X161535714Y-70035771D02*
X161488095Y-69988152D01*
X161488095Y-69988152D02*
X161440476Y-69892914D01*
X161440476Y-69892914D02*
X161440476Y-69845295D01*
X161440476Y-69845295D02*
X161488095Y-69750057D01*
X161488095Y-69750057D02*
X161535714Y-69702438D01*
X161535714Y-69702438D02*
X161630952Y-69654819D01*
X161630952Y-69654819D02*
X161821428Y-69654819D01*
X161821428Y-69654819D02*
X161916666Y-69702438D01*
X161916666Y-69702438D02*
X161964285Y-69750057D01*
X161964285Y-69750057D02*
X162011904Y-69845295D01*
X162011904Y-69845295D02*
X162011904Y-69892914D01*
X162011904Y-69892914D02*
X161964285Y-69988152D01*
X161964285Y-69988152D02*
X161916666Y-70035771D01*
X161916666Y-70035771D02*
X161821428Y-70083390D01*
X161821428Y-70083390D02*
X161630952Y-70083390D01*
X161630952Y-70083390D02*
X161535714Y-70131009D01*
X161535714Y-70131009D02*
X161488095Y-70178628D01*
X161488095Y-70178628D02*
X161440476Y-70273866D01*
X161440476Y-70273866D02*
X161440476Y-70464342D01*
X161440476Y-70464342D02*
X161488095Y-70559580D01*
X161488095Y-70559580D02*
X161535714Y-70607200D01*
X161535714Y-70607200D02*
X161630952Y-70654819D01*
X161630952Y-70654819D02*
X161821428Y-70654819D01*
X161821428Y-70654819D02*
X161916666Y-70607200D01*
X161916666Y-70607200D02*
X161964285Y-70559580D01*
X161964285Y-70559580D02*
X162011904Y-70464342D01*
X162011904Y-70464342D02*
X162011904Y-70273866D01*
X162011904Y-70273866D02*
X161964285Y-70178628D01*
X161964285Y-70178628D02*
X161916666Y-70131009D01*
X161916666Y-70131009D02*
X161821428Y-70083390D01*
X141649693Y-72708830D02*
X141649693Y-72776174D01*
X141649693Y-72776174D02*
X141582349Y-72910861D01*
X141582349Y-72910861D02*
X141515006Y-72978204D01*
X141515006Y-72978204D02*
X141380319Y-73045548D01*
X141380319Y-73045548D02*
X141245632Y-73045548D01*
X141245632Y-73045548D02*
X141144617Y-73011876D01*
X141144617Y-73011876D02*
X140976258Y-72910861D01*
X140976258Y-72910861D02*
X140875243Y-72809846D01*
X140875243Y-72809846D02*
X140774227Y-72641487D01*
X140774227Y-72641487D02*
X140740556Y-72540472D01*
X140740556Y-72540472D02*
X140740556Y-72405785D01*
X140740556Y-72405785D02*
X140807899Y-72271098D01*
X140807899Y-72271098D02*
X140875243Y-72203754D01*
X140875243Y-72203754D02*
X141009930Y-72136411D01*
X141009930Y-72136411D02*
X141077273Y-72136411D01*
X142390471Y-72102739D02*
X141986410Y-72506800D01*
X142188441Y-72304769D02*
X141481334Y-71597663D01*
X141481334Y-71597663D02*
X141515006Y-71766021D01*
X141515006Y-71766021D02*
X141515006Y-71900708D01*
X141515006Y-71900708D02*
X141481334Y-72001724D01*
X143063907Y-71429304D02*
X142659846Y-71833365D01*
X142861876Y-71631334D02*
X142154769Y-70924227D01*
X142154769Y-70924227D02*
X142188441Y-71092586D01*
X142188441Y-71092586D02*
X142188441Y-71227273D01*
X142188441Y-71227273D02*
X142154769Y-71328288D01*
X105574642Y-101454819D02*
X105241309Y-100978628D01*
X105003214Y-101454819D02*
X105003214Y-100454819D01*
X105003214Y-100454819D02*
X105384166Y-100454819D01*
X105384166Y-100454819D02*
X105479404Y-100502438D01*
X105479404Y-100502438D02*
X105527023Y-100550057D01*
X105527023Y-100550057D02*
X105574642Y-100645295D01*
X105574642Y-100645295D02*
X105574642Y-100788152D01*
X105574642Y-100788152D02*
X105527023Y-100883390D01*
X105527023Y-100883390D02*
X105479404Y-100931009D01*
X105479404Y-100931009D02*
X105384166Y-100978628D01*
X105384166Y-100978628D02*
X105003214Y-100978628D01*
X106527023Y-101454819D02*
X105955595Y-101454819D01*
X106241309Y-101454819D02*
X106241309Y-100454819D01*
X106241309Y-100454819D02*
X106146071Y-100597676D01*
X106146071Y-100597676D02*
X106050833Y-100692914D01*
X106050833Y-100692914D02*
X105955595Y-100740533D01*
X107479404Y-101454819D02*
X106907976Y-101454819D01*
X107193690Y-101454819D02*
X107193690Y-100454819D01*
X107193690Y-100454819D02*
X107098452Y-100597676D01*
X107098452Y-100597676D02*
X107003214Y-100692914D01*
X107003214Y-100692914D02*
X106907976Y-100740533D01*
X137033333Y-73219580D02*
X136985714Y-73267200D01*
X136985714Y-73267200D02*
X136842857Y-73314819D01*
X136842857Y-73314819D02*
X136747619Y-73314819D01*
X136747619Y-73314819D02*
X136604762Y-73267200D01*
X136604762Y-73267200D02*
X136509524Y-73171961D01*
X136509524Y-73171961D02*
X136461905Y-73076723D01*
X136461905Y-73076723D02*
X136414286Y-72886247D01*
X136414286Y-72886247D02*
X136414286Y-72743390D01*
X136414286Y-72743390D02*
X136461905Y-72552914D01*
X136461905Y-72552914D02*
X136509524Y-72457676D01*
X136509524Y-72457676D02*
X136604762Y-72362438D01*
X136604762Y-72362438D02*
X136747619Y-72314819D01*
X136747619Y-72314819D02*
X136842857Y-72314819D01*
X136842857Y-72314819D02*
X136985714Y-72362438D01*
X136985714Y-72362438D02*
X137033333Y-72410057D01*
X137509524Y-73314819D02*
X137700000Y-73314819D01*
X137700000Y-73314819D02*
X137795238Y-73267200D01*
X137795238Y-73267200D02*
X137842857Y-73219580D01*
X137842857Y-73219580D02*
X137938095Y-73076723D01*
X137938095Y-73076723D02*
X137985714Y-72886247D01*
X137985714Y-72886247D02*
X137985714Y-72505295D01*
X137985714Y-72505295D02*
X137938095Y-72410057D01*
X137938095Y-72410057D02*
X137890476Y-72362438D01*
X137890476Y-72362438D02*
X137795238Y-72314819D01*
X137795238Y-72314819D02*
X137604762Y-72314819D01*
X137604762Y-72314819D02*
X137509524Y-72362438D01*
X137509524Y-72362438D02*
X137461905Y-72410057D01*
X137461905Y-72410057D02*
X137414286Y-72505295D01*
X137414286Y-72505295D02*
X137414286Y-72743390D01*
X137414286Y-72743390D02*
X137461905Y-72838628D01*
X137461905Y-72838628D02*
X137509524Y-72886247D01*
X137509524Y-72886247D02*
X137604762Y-72933866D01*
X137604762Y-72933866D02*
X137795238Y-72933866D01*
X137795238Y-72933866D02*
X137890476Y-72886247D01*
X137890476Y-72886247D02*
X137938095Y-72838628D01*
X137938095Y-72838628D02*
X137985714Y-72743390D01*
X110655833Y-77229819D02*
X110322500Y-76753628D01*
X110084405Y-77229819D02*
X110084405Y-76229819D01*
X110084405Y-76229819D02*
X110465357Y-76229819D01*
X110465357Y-76229819D02*
X110560595Y-76277438D01*
X110560595Y-76277438D02*
X110608214Y-76325057D01*
X110608214Y-76325057D02*
X110655833Y-76420295D01*
X110655833Y-76420295D02*
X110655833Y-76563152D01*
X110655833Y-76563152D02*
X110608214Y-76658390D01*
X110608214Y-76658390D02*
X110560595Y-76706009D01*
X110560595Y-76706009D02*
X110465357Y-76753628D01*
X110465357Y-76753628D02*
X110084405Y-76753628D01*
X111227262Y-76658390D02*
X111132024Y-76610771D01*
X111132024Y-76610771D02*
X111084405Y-76563152D01*
X111084405Y-76563152D02*
X111036786Y-76467914D01*
X111036786Y-76467914D02*
X111036786Y-76420295D01*
X111036786Y-76420295D02*
X111084405Y-76325057D01*
X111084405Y-76325057D02*
X111132024Y-76277438D01*
X111132024Y-76277438D02*
X111227262Y-76229819D01*
X111227262Y-76229819D02*
X111417738Y-76229819D01*
X111417738Y-76229819D02*
X111512976Y-76277438D01*
X111512976Y-76277438D02*
X111560595Y-76325057D01*
X111560595Y-76325057D02*
X111608214Y-76420295D01*
X111608214Y-76420295D02*
X111608214Y-76467914D01*
X111608214Y-76467914D02*
X111560595Y-76563152D01*
X111560595Y-76563152D02*
X111512976Y-76610771D01*
X111512976Y-76610771D02*
X111417738Y-76658390D01*
X111417738Y-76658390D02*
X111227262Y-76658390D01*
X111227262Y-76658390D02*
X111132024Y-76706009D01*
X111132024Y-76706009D02*
X111084405Y-76753628D01*
X111084405Y-76753628D02*
X111036786Y-76848866D01*
X111036786Y-76848866D02*
X111036786Y-77039342D01*
X111036786Y-77039342D02*
X111084405Y-77134580D01*
X111084405Y-77134580D02*
X111132024Y-77182200D01*
X111132024Y-77182200D02*
X111227262Y-77229819D01*
X111227262Y-77229819D02*
X111417738Y-77229819D01*
X111417738Y-77229819D02*
X111512976Y-77182200D01*
X111512976Y-77182200D02*
X111560595Y-77134580D01*
X111560595Y-77134580D02*
X111608214Y-77039342D01*
X111608214Y-77039342D02*
X111608214Y-76848866D01*
X111608214Y-76848866D02*
X111560595Y-76753628D01*
X111560595Y-76753628D02*
X111512976Y-76706009D01*
X111512976Y-76706009D02*
X111417738Y-76658390D01*
X142713333Y-65909580D02*
X142665714Y-65957200D01*
X142665714Y-65957200D02*
X142522857Y-66004819D01*
X142522857Y-66004819D02*
X142427619Y-66004819D01*
X142427619Y-66004819D02*
X142284762Y-65957200D01*
X142284762Y-65957200D02*
X142189524Y-65861961D01*
X142189524Y-65861961D02*
X142141905Y-65766723D01*
X142141905Y-65766723D02*
X142094286Y-65576247D01*
X142094286Y-65576247D02*
X142094286Y-65433390D01*
X142094286Y-65433390D02*
X142141905Y-65242914D01*
X142141905Y-65242914D02*
X142189524Y-65147676D01*
X142189524Y-65147676D02*
X142284762Y-65052438D01*
X142284762Y-65052438D02*
X142427619Y-65004819D01*
X142427619Y-65004819D02*
X142522857Y-65004819D01*
X142522857Y-65004819D02*
X142665714Y-65052438D01*
X142665714Y-65052438D02*
X142713333Y-65100057D01*
X143046667Y-65004819D02*
X143713333Y-65004819D01*
X143713333Y-65004819D02*
X143284762Y-66004819D01*
X130533333Y-75134580D02*
X130485714Y-75182200D01*
X130485714Y-75182200D02*
X130342857Y-75229819D01*
X130342857Y-75229819D02*
X130247619Y-75229819D01*
X130247619Y-75229819D02*
X130104762Y-75182200D01*
X130104762Y-75182200D02*
X130009524Y-75086961D01*
X130009524Y-75086961D02*
X129961905Y-74991723D01*
X129961905Y-74991723D02*
X129914286Y-74801247D01*
X129914286Y-74801247D02*
X129914286Y-74658390D01*
X129914286Y-74658390D02*
X129961905Y-74467914D01*
X129961905Y-74467914D02*
X130009524Y-74372676D01*
X130009524Y-74372676D02*
X130104762Y-74277438D01*
X130104762Y-74277438D02*
X130247619Y-74229819D01*
X130247619Y-74229819D02*
X130342857Y-74229819D01*
X130342857Y-74229819D02*
X130485714Y-74277438D01*
X130485714Y-74277438D02*
X130533333Y-74325057D01*
X131485714Y-75229819D02*
X130914286Y-75229819D01*
X131200000Y-75229819D02*
X131200000Y-74229819D01*
X131200000Y-74229819D02*
X131104762Y-74372676D01*
X131104762Y-74372676D02*
X131009524Y-74467914D01*
X131009524Y-74467914D02*
X130914286Y-74515533D01*
X129433333Y-63054819D02*
X129100000Y-62578628D01*
X128861905Y-63054819D02*
X128861905Y-62054819D01*
X128861905Y-62054819D02*
X129242857Y-62054819D01*
X129242857Y-62054819D02*
X129338095Y-62102438D01*
X129338095Y-62102438D02*
X129385714Y-62150057D01*
X129385714Y-62150057D02*
X129433333Y-62245295D01*
X129433333Y-62245295D02*
X129433333Y-62388152D01*
X129433333Y-62388152D02*
X129385714Y-62483390D01*
X129385714Y-62483390D02*
X129338095Y-62531009D01*
X129338095Y-62531009D02*
X129242857Y-62578628D01*
X129242857Y-62578628D02*
X128861905Y-62578628D01*
X130290476Y-62388152D02*
X130290476Y-63054819D01*
X130052381Y-62007200D02*
X129814286Y-62721485D01*
X129814286Y-62721485D02*
X130433333Y-62721485D01*
X146013333Y-74699580D02*
X145965714Y-74747200D01*
X145965714Y-74747200D02*
X145822857Y-74794819D01*
X145822857Y-74794819D02*
X145727619Y-74794819D01*
X145727619Y-74794819D02*
X145584762Y-74747200D01*
X145584762Y-74747200D02*
X145489524Y-74651961D01*
X145489524Y-74651961D02*
X145441905Y-74556723D01*
X145441905Y-74556723D02*
X145394286Y-74366247D01*
X145394286Y-74366247D02*
X145394286Y-74223390D01*
X145394286Y-74223390D02*
X145441905Y-74032914D01*
X145441905Y-74032914D02*
X145489524Y-73937676D01*
X145489524Y-73937676D02*
X145584762Y-73842438D01*
X145584762Y-73842438D02*
X145727619Y-73794819D01*
X145727619Y-73794819D02*
X145822857Y-73794819D01*
X145822857Y-73794819D02*
X145965714Y-73842438D01*
X145965714Y-73842438D02*
X146013333Y-73890057D01*
X146870476Y-73794819D02*
X146680000Y-73794819D01*
X146680000Y-73794819D02*
X146584762Y-73842438D01*
X146584762Y-73842438D02*
X146537143Y-73890057D01*
X146537143Y-73890057D02*
X146441905Y-74032914D01*
X146441905Y-74032914D02*
X146394286Y-74223390D01*
X146394286Y-74223390D02*
X146394286Y-74604342D01*
X146394286Y-74604342D02*
X146441905Y-74699580D01*
X146441905Y-74699580D02*
X146489524Y-74747200D01*
X146489524Y-74747200D02*
X146584762Y-74794819D01*
X146584762Y-74794819D02*
X146775238Y-74794819D01*
X146775238Y-74794819D02*
X146870476Y-74747200D01*
X146870476Y-74747200D02*
X146918095Y-74699580D01*
X146918095Y-74699580D02*
X146965714Y-74604342D01*
X146965714Y-74604342D02*
X146965714Y-74366247D01*
X146965714Y-74366247D02*
X146918095Y-74271009D01*
X146918095Y-74271009D02*
X146870476Y-74223390D01*
X146870476Y-74223390D02*
X146775238Y-74175771D01*
X146775238Y-74175771D02*
X146584762Y-74175771D01*
X146584762Y-74175771D02*
X146489524Y-74223390D01*
X146489524Y-74223390D02*
X146441905Y-74271009D01*
X146441905Y-74271009D02*
X146394286Y-74366247D01*
X116198104Y-79625180D02*
X116198104Y-78815657D01*
X116198104Y-78815657D02*
X116150485Y-78720419D01*
X116150485Y-78720419D02*
X116102866Y-78672800D01*
X116102866Y-78672800D02*
X116007628Y-78625180D01*
X116007628Y-78625180D02*
X115817152Y-78625180D01*
X115817152Y-78625180D02*
X115721914Y-78672800D01*
X115721914Y-78672800D02*
X115674295Y-78720419D01*
X115674295Y-78720419D02*
X115626676Y-78815657D01*
X115626676Y-78815657D02*
X115626676Y-79625180D01*
X114674295Y-79625180D02*
X115150485Y-79625180D01*
X115150485Y-79625180D02*
X115198104Y-79148990D01*
X115198104Y-79148990D02*
X115150485Y-79196609D01*
X115150485Y-79196609D02*
X115055247Y-79244228D01*
X115055247Y-79244228D02*
X114817152Y-79244228D01*
X114817152Y-79244228D02*
X114721914Y-79196609D01*
X114721914Y-79196609D02*
X114674295Y-79148990D01*
X114674295Y-79148990D02*
X114626676Y-79053752D01*
X114626676Y-79053752D02*
X114626676Y-78815657D01*
X114626676Y-78815657D02*
X114674295Y-78720419D01*
X114674295Y-78720419D02*
X114721914Y-78672800D01*
X114721914Y-78672800D02*
X114817152Y-78625180D01*
X114817152Y-78625180D02*
X115055247Y-78625180D01*
X115055247Y-78625180D02*
X115150485Y-78672800D01*
X115150485Y-78672800D02*
X115198104Y-78720419D01*
X148733333Y-74189580D02*
X148685714Y-74237200D01*
X148685714Y-74237200D02*
X148542857Y-74284819D01*
X148542857Y-74284819D02*
X148447619Y-74284819D01*
X148447619Y-74284819D02*
X148304762Y-74237200D01*
X148304762Y-74237200D02*
X148209524Y-74141961D01*
X148209524Y-74141961D02*
X148161905Y-74046723D01*
X148161905Y-74046723D02*
X148114286Y-73856247D01*
X148114286Y-73856247D02*
X148114286Y-73713390D01*
X148114286Y-73713390D02*
X148161905Y-73522914D01*
X148161905Y-73522914D02*
X148209524Y-73427676D01*
X148209524Y-73427676D02*
X148304762Y-73332438D01*
X148304762Y-73332438D02*
X148447619Y-73284819D01*
X148447619Y-73284819D02*
X148542857Y-73284819D01*
X148542857Y-73284819D02*
X148685714Y-73332438D01*
X148685714Y-73332438D02*
X148733333Y-73380057D01*
X149066667Y-73284819D02*
X149685714Y-73284819D01*
X149685714Y-73284819D02*
X149352381Y-73665771D01*
X149352381Y-73665771D02*
X149495238Y-73665771D01*
X149495238Y-73665771D02*
X149590476Y-73713390D01*
X149590476Y-73713390D02*
X149638095Y-73761009D01*
X149638095Y-73761009D02*
X149685714Y-73856247D01*
X149685714Y-73856247D02*
X149685714Y-74094342D01*
X149685714Y-74094342D02*
X149638095Y-74189580D01*
X149638095Y-74189580D02*
X149590476Y-74237200D01*
X149590476Y-74237200D02*
X149495238Y-74284819D01*
X149495238Y-74284819D02*
X149209524Y-74284819D01*
X149209524Y-74284819D02*
X149114286Y-74237200D01*
X149114286Y-74237200D02*
X149066667Y-74189580D01*
X110615833Y-76004819D02*
X110282500Y-75528628D01*
X110044405Y-76004819D02*
X110044405Y-75004819D01*
X110044405Y-75004819D02*
X110425357Y-75004819D01*
X110425357Y-75004819D02*
X110520595Y-75052438D01*
X110520595Y-75052438D02*
X110568214Y-75100057D01*
X110568214Y-75100057D02*
X110615833Y-75195295D01*
X110615833Y-75195295D02*
X110615833Y-75338152D01*
X110615833Y-75338152D02*
X110568214Y-75433390D01*
X110568214Y-75433390D02*
X110520595Y-75481009D01*
X110520595Y-75481009D02*
X110425357Y-75528628D01*
X110425357Y-75528628D02*
X110044405Y-75528628D01*
X111092024Y-76004819D02*
X111282500Y-76004819D01*
X111282500Y-76004819D02*
X111377738Y-75957200D01*
X111377738Y-75957200D02*
X111425357Y-75909580D01*
X111425357Y-75909580D02*
X111520595Y-75766723D01*
X111520595Y-75766723D02*
X111568214Y-75576247D01*
X111568214Y-75576247D02*
X111568214Y-75195295D01*
X111568214Y-75195295D02*
X111520595Y-75100057D01*
X111520595Y-75100057D02*
X111472976Y-75052438D01*
X111472976Y-75052438D02*
X111377738Y-75004819D01*
X111377738Y-75004819D02*
X111187262Y-75004819D01*
X111187262Y-75004819D02*
X111092024Y-75052438D01*
X111092024Y-75052438D02*
X111044405Y-75100057D01*
X111044405Y-75100057D02*
X110996786Y-75195295D01*
X110996786Y-75195295D02*
X110996786Y-75433390D01*
X110996786Y-75433390D02*
X111044405Y-75528628D01*
X111044405Y-75528628D02*
X111092024Y-75576247D01*
X111092024Y-75576247D02*
X111187262Y-75623866D01*
X111187262Y-75623866D02*
X111377738Y-75623866D01*
X111377738Y-75623866D02*
X111472976Y-75576247D01*
X111472976Y-75576247D02*
X111520595Y-75528628D01*
X111520595Y-75528628D02*
X111568214Y-75433390D01*
X154023095Y-68979819D02*
X154023095Y-69789342D01*
X154023095Y-69789342D02*
X154070714Y-69884580D01*
X154070714Y-69884580D02*
X154118333Y-69932200D01*
X154118333Y-69932200D02*
X154213571Y-69979819D01*
X154213571Y-69979819D02*
X154404047Y-69979819D01*
X154404047Y-69979819D02*
X154499285Y-69932200D01*
X154499285Y-69932200D02*
X154546904Y-69884580D01*
X154546904Y-69884580D02*
X154594523Y-69789342D01*
X154594523Y-69789342D02*
X154594523Y-68979819D01*
X155499285Y-68979819D02*
X155308809Y-68979819D01*
X155308809Y-68979819D02*
X155213571Y-69027438D01*
X155213571Y-69027438D02*
X155165952Y-69075057D01*
X155165952Y-69075057D02*
X155070714Y-69217914D01*
X155070714Y-69217914D02*
X155023095Y-69408390D01*
X155023095Y-69408390D02*
X155023095Y-69789342D01*
X155023095Y-69789342D02*
X155070714Y-69884580D01*
X155070714Y-69884580D02*
X155118333Y-69932200D01*
X155118333Y-69932200D02*
X155213571Y-69979819D01*
X155213571Y-69979819D02*
X155404047Y-69979819D01*
X155404047Y-69979819D02*
X155499285Y-69932200D01*
X155499285Y-69932200D02*
X155546904Y-69884580D01*
X155546904Y-69884580D02*
X155594523Y-69789342D01*
X155594523Y-69789342D02*
X155594523Y-69551247D01*
X155594523Y-69551247D02*
X155546904Y-69456009D01*
X155546904Y-69456009D02*
X155499285Y-69408390D01*
X155499285Y-69408390D02*
X155404047Y-69360771D01*
X155404047Y-69360771D02*
X155213571Y-69360771D01*
X155213571Y-69360771D02*
X155118333Y-69408390D01*
X155118333Y-69408390D02*
X155070714Y-69456009D01*
X155070714Y-69456009D02*
X155023095Y-69551247D01*
D14*
%TO.C,J6*%
X164110000Y-83860000D02*
X163000000Y-83860000D01*
X164110000Y-83100000D02*
X164110000Y-83860000D01*
X164110000Y-82340000D02*
X164110000Y-81135000D01*
X164110000Y-82340000D02*
X163563471Y-82340000D01*
X164110000Y-81135000D02*
X163307530Y-81135000D01*
X162692470Y-81135000D02*
X161890000Y-81135000D01*
X162436529Y-82340000D02*
X161890000Y-82340000D01*
X161890000Y-82340000D02*
X161890000Y-81135000D01*
%TO.C,R2*%
X152370000Y-75183641D02*
X152370000Y-74876359D01*
X153130000Y-75183641D02*
X153130000Y-74876359D01*
%TO.C,J2*%
X159560000Y-82965000D02*
X159560000Y-84075000D01*
X158800000Y-82965000D02*
X159560000Y-82965000D01*
X158040000Y-82965000D02*
X153025000Y-82965000D01*
X158040000Y-82965000D02*
X158040000Y-83511529D01*
X153025000Y-82965000D02*
X153025000Y-83767470D01*
X153025000Y-84382530D02*
X153025000Y-85185000D01*
X158040000Y-84638471D02*
X158040000Y-85185000D01*
X158040000Y-85185000D02*
X153025000Y-85185000D01*
%TO.C,Q2*%
X129087500Y-87140000D02*
X127412500Y-87140000D01*
X129087500Y-87140000D02*
X129737500Y-87140000D01*
X129087500Y-90260000D02*
X128437500Y-90260000D01*
X129087500Y-90260000D02*
X129737500Y-90260000D01*
%TO.C,BTN2*%
X149000000Y-99975000D02*
X149000000Y-101225000D01*
X149290000Y-100265000D02*
X149290000Y-106235000D01*
X149290000Y-106235000D02*
X161910000Y-106235000D01*
X149300000Y-100275000D02*
X149300000Y-101025000D01*
X149300000Y-101025000D02*
X151100000Y-101025000D01*
X149300000Y-102525000D02*
X150050000Y-102525000D01*
X150050000Y-102525000D02*
X150050000Y-105475000D01*
X150050000Y-105475000D02*
X155600000Y-105475000D01*
X150250000Y-99975000D02*
X149000000Y-99975000D01*
X151100000Y-100275000D02*
X149300000Y-100275000D01*
X151100000Y-101025000D02*
X151100000Y-100275000D01*
X152600000Y-100275000D02*
X152600000Y-101025000D01*
X152600000Y-101025000D02*
X158600000Y-101025000D01*
X158600000Y-100275000D02*
X152600000Y-100275000D01*
X158600000Y-101025000D02*
X158600000Y-100275000D01*
X160100000Y-100275000D02*
X160100000Y-101025000D01*
X160100000Y-101025000D02*
X161900000Y-101025000D01*
X161150000Y-102525000D02*
X161150000Y-105475000D01*
X161150000Y-105475000D02*
X155600000Y-105475000D01*
X161900000Y-100275000D02*
X160100000Y-100275000D01*
X161900000Y-101025000D02*
X161900000Y-100275000D01*
X161900000Y-102525000D02*
X161150000Y-102525000D01*
X161910000Y-100265000D02*
X149290000Y-100265000D01*
X161910000Y-106235000D02*
X161910000Y-100265000D01*
%TO.C,Q6*%
X143112500Y-87140000D02*
X141437500Y-87140000D01*
X143112500Y-87140000D02*
X143762500Y-87140000D01*
X143112500Y-90260000D02*
X142462500Y-90260000D01*
X143112500Y-90260000D02*
X143762500Y-90260000D01*
%TO.C,BTN7*%
X115000000Y-93025000D02*
X115000000Y-94275000D01*
X115290000Y-93315000D02*
X115290000Y-99285000D01*
X115290000Y-99285000D02*
X127910000Y-99285000D01*
X115300000Y-93325000D02*
X115300000Y-94075000D01*
X115300000Y-94075000D02*
X117100000Y-94075000D01*
X115300000Y-95575000D02*
X116050000Y-95575000D01*
X116050000Y-95575000D02*
X116050000Y-98525000D01*
X116050000Y-98525000D02*
X121600000Y-98525000D01*
X116250000Y-93025000D02*
X115000000Y-93025000D01*
X117100000Y-93325000D02*
X115300000Y-93325000D01*
X117100000Y-94075000D02*
X117100000Y-93325000D01*
X118600000Y-93325000D02*
X118600000Y-94075000D01*
X118600000Y-94075000D02*
X124600000Y-94075000D01*
X124600000Y-93325000D02*
X118600000Y-93325000D01*
X124600000Y-94075000D02*
X124600000Y-93325000D01*
X126100000Y-93325000D02*
X126100000Y-94075000D01*
X126100000Y-94075000D02*
X127900000Y-94075000D01*
X127150000Y-95575000D02*
X127150000Y-98525000D01*
X127150000Y-98525000D02*
X121600000Y-98525000D01*
X127900000Y-93325000D02*
X126100000Y-93325000D01*
X127900000Y-94075000D02*
X127900000Y-93325000D01*
X127900000Y-95575000D02*
X127150000Y-95575000D01*
X127910000Y-93315000D02*
X115290000Y-93315000D01*
X127910000Y-99285000D02*
X127910000Y-93315000D01*
%TO.C,BTN0*%
X162500000Y-99975000D02*
X162500000Y-101225000D01*
X162790000Y-100265000D02*
X162790000Y-106235000D01*
X162790000Y-106235000D02*
X175410000Y-106235000D01*
X162800000Y-100275000D02*
X162800000Y-101025000D01*
X162800000Y-101025000D02*
X164600000Y-101025000D01*
X162800000Y-102525000D02*
X163550000Y-102525000D01*
X163550000Y-102525000D02*
X163550000Y-105475000D01*
X163550000Y-105475000D02*
X169100000Y-105475000D01*
X163750000Y-99975000D02*
X162500000Y-99975000D01*
X164600000Y-100275000D02*
X162800000Y-100275000D01*
X164600000Y-101025000D02*
X164600000Y-100275000D01*
X166100000Y-100275000D02*
X166100000Y-101025000D01*
X166100000Y-101025000D02*
X172100000Y-101025000D01*
X172100000Y-100275000D02*
X166100000Y-100275000D01*
X172100000Y-101025000D02*
X172100000Y-100275000D01*
X173600000Y-100275000D02*
X173600000Y-101025000D01*
X173600000Y-101025000D02*
X175400000Y-101025000D01*
X174650000Y-102525000D02*
X174650000Y-105475000D01*
X174650000Y-105475000D02*
X169100000Y-105475000D01*
X175400000Y-100275000D02*
X173600000Y-100275000D01*
X175400000Y-101025000D02*
X175400000Y-100275000D01*
X175400000Y-102525000D02*
X174650000Y-102525000D01*
X175410000Y-100265000D02*
X162790000Y-100265000D01*
X175410000Y-106235000D02*
X175410000Y-100265000D01*
%TO.C,BTN8*%
X108150000Y-99975000D02*
X108150000Y-101225000D01*
X108440000Y-100265000D02*
X108440000Y-106235000D01*
X108440000Y-106235000D02*
X121060000Y-106235000D01*
X108450000Y-100275000D02*
X108450000Y-101025000D01*
X108450000Y-101025000D02*
X110250000Y-101025000D01*
X108450000Y-102525000D02*
X109200000Y-102525000D01*
X109200000Y-102525000D02*
X109200000Y-105475000D01*
X109200000Y-105475000D02*
X114750000Y-105475000D01*
X109400000Y-99975000D02*
X108150000Y-99975000D01*
X110250000Y-100275000D02*
X108450000Y-100275000D01*
X110250000Y-101025000D02*
X110250000Y-100275000D01*
X111750000Y-100275000D02*
X111750000Y-101025000D01*
X111750000Y-101025000D02*
X117750000Y-101025000D01*
X117750000Y-100275000D02*
X111750000Y-100275000D01*
X117750000Y-101025000D02*
X117750000Y-100275000D01*
X119250000Y-100275000D02*
X119250000Y-101025000D01*
X119250000Y-101025000D02*
X121050000Y-101025000D01*
X120300000Y-102525000D02*
X120300000Y-105475000D01*
X120300000Y-105475000D02*
X114750000Y-105475000D01*
X121050000Y-100275000D02*
X119250000Y-100275000D01*
X121050000Y-101025000D02*
X121050000Y-100275000D01*
X121050000Y-102525000D02*
X120300000Y-102525000D01*
X121060000Y-100265000D02*
X108440000Y-100265000D01*
X121060000Y-106235000D02*
X121060000Y-100265000D01*
%TO.C,C12*%
X139241399Y-84567718D02*
X139088896Y-84720221D01*
X138732282Y-84058601D02*
X138579779Y-84211104D01*
%TO.C,R10*%
X102787500Y-100963641D02*
X102787500Y-100656359D01*
X103547500Y-100963641D02*
X103547500Y-100656359D01*
%TO.C,C8*%
X133182282Y-73041399D02*
X133029779Y-72888896D01*
X133691399Y-72532282D02*
X133538896Y-72379779D01*
%TO.C,U4*%
X138062500Y-63740000D02*
X136387500Y-63740000D01*
X138062500Y-63740000D02*
X138712500Y-63740000D01*
X138062500Y-66860000D02*
X137412500Y-66860000D01*
X138062500Y-66860000D02*
X138712500Y-66860000D01*
%TO.C,Q9*%
X124562500Y-62760000D02*
X126237500Y-62760000D01*
X124562500Y-62760000D02*
X123912500Y-62760000D01*
X124562500Y-59640000D02*
X125212500Y-59640000D01*
X124562500Y-59640000D02*
X123912500Y-59640000D01*
%TO.C,BTN6*%
X121750000Y-99975000D02*
X121750000Y-101225000D01*
X122040000Y-100265000D02*
X122040000Y-106235000D01*
X122040000Y-106235000D02*
X134660000Y-106235000D01*
X122050000Y-100275000D02*
X122050000Y-101025000D01*
X122050000Y-101025000D02*
X123850000Y-101025000D01*
X122050000Y-102525000D02*
X122800000Y-102525000D01*
X122800000Y-102525000D02*
X122800000Y-105475000D01*
X122800000Y-105475000D02*
X128350000Y-105475000D01*
X123000000Y-99975000D02*
X121750000Y-99975000D01*
X123850000Y-100275000D02*
X122050000Y-100275000D01*
X123850000Y-101025000D02*
X123850000Y-100275000D01*
X125350000Y-100275000D02*
X125350000Y-101025000D01*
X125350000Y-101025000D02*
X131350000Y-101025000D01*
X131350000Y-100275000D02*
X125350000Y-100275000D01*
X131350000Y-101025000D02*
X131350000Y-100275000D01*
X132850000Y-100275000D02*
X132850000Y-101025000D01*
X132850000Y-101025000D02*
X134650000Y-101025000D01*
X133900000Y-102525000D02*
X133900000Y-105475000D01*
X133900000Y-105475000D02*
X128350000Y-105475000D01*
X134650000Y-100275000D02*
X132850000Y-100275000D01*
X134650000Y-101025000D02*
X134650000Y-100275000D01*
X134650000Y-102525000D02*
X133900000Y-102525000D01*
X134660000Y-100265000D02*
X122040000Y-100265000D01*
X134660000Y-106235000D02*
X134660000Y-100265000D01*
%TO.C,J16*%
X100517500Y-77500000D02*
X100517500Y-78750000D01*
X100807500Y-77790000D02*
X100807500Y-83760000D01*
X100807500Y-83760000D02*
X110927500Y-83760000D01*
X100817500Y-77800000D02*
X100817500Y-78550000D01*
X100817500Y-78550000D02*
X102617500Y-78550000D01*
X100817500Y-80050000D02*
X101567500Y-80050000D01*
X101567500Y-80050000D02*
X101567500Y-83000000D01*
X101567500Y-83000000D02*
X105867500Y-83000000D01*
X101767500Y-77500000D02*
X100517500Y-77500000D01*
X102617500Y-77800000D02*
X100817500Y-77800000D01*
X102617500Y-78550000D02*
X102617500Y-77800000D01*
X104117500Y-77800000D02*
X104117500Y-78550000D01*
X104117500Y-78550000D02*
X107617500Y-78550000D01*
X107617500Y-77800000D02*
X104117500Y-77800000D01*
X107617500Y-78550000D02*
X107617500Y-77800000D01*
X109117500Y-77800000D02*
X109117500Y-78550000D01*
X109117500Y-78550000D02*
X110917500Y-78550000D01*
X110167500Y-80050000D02*
X110167500Y-83000000D01*
X110167500Y-83000000D02*
X105867500Y-83000000D01*
X110917500Y-77800000D02*
X109117500Y-77800000D01*
X110917500Y-78550000D02*
X110917500Y-77800000D01*
X110917500Y-80050000D02*
X110167500Y-80050000D01*
X110927500Y-77790000D02*
X100807500Y-77790000D01*
X110927500Y-83760000D02*
X110927500Y-77790000D01*
%TO.C,R6*%
X131212258Y-67522500D02*
X130737742Y-67522500D01*
X131212258Y-66477500D02*
X130737742Y-66477500D01*
%TO.C,J19*%
X139750000Y-52500000D02*
X139750000Y-53750000D01*
X140040000Y-52790000D02*
X140040000Y-58760000D01*
X140040000Y-58760000D02*
X155160000Y-58760000D01*
X140050000Y-52800000D02*
X140050000Y-53550000D01*
X140050000Y-53550000D02*
X141850000Y-53550000D01*
X140050000Y-55050000D02*
X140800000Y-55050000D01*
X140800000Y-55050000D02*
X140800000Y-58000000D01*
X140800000Y-58000000D02*
X147600000Y-58000000D01*
X141000000Y-52500000D02*
X139750000Y-52500000D01*
X141850000Y-52800000D02*
X140050000Y-52800000D01*
X141850000Y-53550000D02*
X141850000Y-52800000D01*
X143350000Y-52800000D02*
X143350000Y-53550000D01*
X143350000Y-53550000D02*
X151850000Y-53550000D01*
X151850000Y-52800000D02*
X143350000Y-52800000D01*
X151850000Y-53550000D02*
X151850000Y-52800000D01*
X153350000Y-52800000D02*
X153350000Y-53550000D01*
X153350000Y-53550000D02*
X155150000Y-53550000D01*
X154400000Y-55050000D02*
X154400000Y-58000000D01*
X154400000Y-58000000D02*
X147600000Y-58000000D01*
X155150000Y-52800000D02*
X153350000Y-52800000D01*
X155150000Y-53550000D02*
X155150000Y-52800000D01*
X155150000Y-55050000D02*
X154400000Y-55050000D01*
X155160000Y-52790000D02*
X140040000Y-52790000D01*
X155160000Y-58760000D02*
X155160000Y-52790000D01*
%TO.C,Q5*%
X147430000Y-87140000D02*
X145755000Y-87140000D01*
X147430000Y-87140000D02*
X148080000Y-87140000D01*
X147430000Y-90260000D02*
X146780000Y-90260000D01*
X147430000Y-90260000D02*
X148080000Y-90260000D01*
%TO.C,J17*%
X183700000Y-59050000D02*
X183700000Y-57800000D01*
X183410000Y-58760000D02*
X183410000Y-52790000D01*
X183410000Y-52790000D02*
X170790000Y-52790000D01*
X183400000Y-58750000D02*
X183400000Y-58000000D01*
X183400000Y-58000000D02*
X181600000Y-58000000D01*
X183400000Y-56500000D02*
X182650000Y-56500000D01*
X182650000Y-56500000D02*
X182650000Y-53550000D01*
X182650000Y-53550000D02*
X177100000Y-53550000D01*
X182450000Y-59050000D02*
X183700000Y-59050000D01*
X181600000Y-58750000D02*
X183400000Y-58750000D01*
X181600000Y-58000000D02*
X181600000Y-58750000D01*
X180100000Y-58750000D02*
X180100000Y-58000000D01*
X180100000Y-58000000D02*
X174100000Y-58000000D01*
X174100000Y-58750000D02*
X180100000Y-58750000D01*
X174100000Y-58000000D02*
X174100000Y-58750000D01*
X172600000Y-58750000D02*
X172600000Y-58000000D01*
X172600000Y-58000000D02*
X170800000Y-58000000D01*
X171550000Y-56500000D02*
X171550000Y-53550000D01*
X171550000Y-53550000D02*
X177100000Y-53550000D01*
X170800000Y-58750000D02*
X172600000Y-58750000D01*
X170800000Y-58000000D02*
X170800000Y-58750000D01*
X170800000Y-56500000D02*
X171550000Y-56500000D01*
X170790000Y-58760000D02*
X183410000Y-58760000D01*
X170790000Y-52790000D02*
X170790000Y-58760000D01*
%TO.C,U1*%
X122875000Y-75870000D02*
X122875000Y-76130000D01*
X122875000Y-76130000D02*
X121200000Y-76130000D01*
X122875000Y-81320000D02*
X122875000Y-81060000D01*
X125600000Y-75870000D02*
X122875000Y-75870000D01*
X125600000Y-75870000D02*
X128325000Y-75870000D01*
X125600000Y-81320000D02*
X122875000Y-81320000D01*
X125600000Y-81320000D02*
X128325000Y-81320000D01*
X128325000Y-75870000D02*
X128325000Y-76130000D01*
X128325000Y-81320000D02*
X128325000Y-81060000D01*
%TO.C,F1*%
X141397936Y-60990000D02*
X142602064Y-60990000D01*
X141397936Y-62810000D02*
X142602064Y-62810000D01*
%TO.C,C4*%
X132561104Y-73870221D02*
X132408601Y-73717718D01*
X133070221Y-73361104D02*
X132917718Y-73208601D01*
%TO.C,U3*%
X142360000Y-80972500D02*
X141710000Y-80972500D01*
X135140000Y-80322500D02*
X135140000Y-80972500D01*
X142360000Y-80322500D02*
X142360000Y-80972500D01*
X135140000Y-74402500D02*
X135140000Y-73752500D01*
X142360000Y-74402500D02*
X142360000Y-73752500D01*
X135140000Y-73752500D02*
X135790000Y-73752500D01*
X142360000Y-73752500D02*
X141710000Y-73752500D01*
%TO.C,C2*%
X150322164Y-80120000D02*
X150537836Y-80120000D01*
X150322164Y-80840000D02*
X150537836Y-80840000D01*
%TO.C,C14*%
X135447836Y-72085000D02*
X135232164Y-72085000D01*
X135447836Y-71365000D02*
X135232164Y-71365000D01*
%TO.C,J15*%
X100592500Y-68200000D02*
X100592500Y-69450000D01*
X100882500Y-68490000D02*
X100882500Y-74460000D01*
X100882500Y-74460000D02*
X111002500Y-74460000D01*
X100892500Y-68500000D02*
X100892500Y-69250000D01*
X100892500Y-69250000D02*
X102692500Y-69250000D01*
X100892500Y-70750000D02*
X101642500Y-70750000D01*
X101642500Y-70750000D02*
X101642500Y-73700000D01*
X101642500Y-73700000D02*
X105942500Y-73700000D01*
X101842500Y-68200000D02*
X100592500Y-68200000D01*
X102692500Y-68500000D02*
X100892500Y-68500000D01*
X102692500Y-69250000D02*
X102692500Y-68500000D01*
X104192500Y-68500000D02*
X104192500Y-69250000D01*
X104192500Y-69250000D02*
X107692500Y-69250000D01*
X107692500Y-68500000D02*
X104192500Y-68500000D01*
X107692500Y-69250000D02*
X107692500Y-68500000D01*
X109192500Y-68500000D02*
X109192500Y-69250000D01*
X109192500Y-69250000D02*
X110992500Y-69250000D01*
X110242500Y-70750000D02*
X110242500Y-73700000D01*
X110242500Y-73700000D02*
X105942500Y-73700000D01*
X110992500Y-68500000D02*
X109192500Y-68500000D01*
X110992500Y-69250000D02*
X110992500Y-68500000D01*
X110992500Y-70750000D02*
X110242500Y-70750000D01*
X111002500Y-68490000D02*
X100882500Y-68490000D01*
X111002500Y-74460000D02*
X111002500Y-68490000D01*
%TO.C,J21*%
X122250000Y-67450000D02*
X122250000Y-66200000D01*
X121960000Y-67160000D02*
X121960000Y-61190000D01*
X121960000Y-61190000D02*
X111840000Y-61190000D01*
X121950000Y-67150000D02*
X121950000Y-66400000D01*
X121950000Y-66400000D02*
X120150000Y-66400000D01*
X121950000Y-64900000D02*
X121200000Y-64900000D01*
X121200000Y-64900000D02*
X121200000Y-61950000D01*
X121200000Y-61950000D02*
X116900000Y-61950000D01*
X121000000Y-67450000D02*
X122250000Y-67450000D01*
X120150000Y-67150000D02*
X121950000Y-67150000D01*
X120150000Y-66400000D02*
X120150000Y-67150000D01*
X118650000Y-67150000D02*
X118650000Y-66400000D01*
X118650000Y-66400000D02*
X115150000Y-66400000D01*
X115150000Y-67150000D02*
X118650000Y-67150000D01*
X115150000Y-66400000D02*
X115150000Y-67150000D01*
X113650000Y-67150000D02*
X113650000Y-66400000D01*
X113650000Y-66400000D02*
X111850000Y-66400000D01*
X112600000Y-64900000D02*
X112600000Y-61950000D01*
X112600000Y-61950000D02*
X116900000Y-61950000D01*
X111850000Y-67150000D02*
X113650000Y-67150000D01*
X111850000Y-66400000D02*
X111850000Y-67150000D01*
X111850000Y-64900000D02*
X112600000Y-64900000D01*
X111840000Y-67160000D02*
X121960000Y-67160000D01*
X111840000Y-61190000D02*
X111840000Y-67160000D01*
%TO.C,BTN3*%
X142000000Y-93025000D02*
X142000000Y-94275000D01*
X142290000Y-93315000D02*
X142290000Y-99285000D01*
X142290000Y-99285000D02*
X154910000Y-99285000D01*
X142300000Y-93325000D02*
X142300000Y-94075000D01*
X142300000Y-94075000D02*
X144100000Y-94075000D01*
X142300000Y-95575000D02*
X143050000Y-95575000D01*
X143050000Y-95575000D02*
X143050000Y-98525000D01*
X143050000Y-98525000D02*
X148600000Y-98525000D01*
X143250000Y-93025000D02*
X142000000Y-93025000D01*
X144100000Y-93325000D02*
X142300000Y-93325000D01*
X144100000Y-94075000D02*
X144100000Y-93325000D01*
X145600000Y-93325000D02*
X145600000Y-94075000D01*
X145600000Y-94075000D02*
X151600000Y-94075000D01*
X151600000Y-93325000D02*
X145600000Y-93325000D01*
X151600000Y-94075000D02*
X151600000Y-93325000D01*
X153100000Y-93325000D02*
X153100000Y-94075000D01*
X153100000Y-94075000D02*
X154900000Y-94075000D01*
X154150000Y-95575000D02*
X154150000Y-98525000D01*
X154150000Y-98525000D02*
X148600000Y-98525000D01*
X154900000Y-93325000D02*
X153100000Y-93325000D01*
X154900000Y-94075000D02*
X154900000Y-93325000D01*
X154900000Y-95575000D02*
X154150000Y-95575000D01*
X154910000Y-93315000D02*
X142290000Y-93315000D01*
X154910000Y-99285000D02*
X154910000Y-93315000D01*
%TO.C,C10*%
X146072164Y-76110000D02*
X146287836Y-76110000D01*
X146072164Y-76830000D02*
X146287836Y-76830000D01*
%TO.C,R5*%
X131212258Y-65922500D02*
X130737742Y-65922500D01*
X131212258Y-64877500D02*
X130737742Y-64877500D01*
%TO.C,R1*%
X123553641Y-75540000D02*
X123246359Y-75540000D01*
X123553641Y-74780000D02*
X123246359Y-74780000D01*
%TO.C,J18*%
X113450000Y-59100000D02*
X113450000Y-57850000D01*
X113160000Y-58810000D02*
X113160000Y-52840000D01*
X113160000Y-52840000D02*
X100540000Y-52840000D01*
X113150000Y-58800000D02*
X113150000Y-58050000D01*
X113150000Y-58050000D02*
X111350000Y-58050000D01*
X113150000Y-56550000D02*
X112400000Y-56550000D01*
X112400000Y-56550000D02*
X112400000Y-53600000D01*
X112400000Y-53600000D02*
X106850000Y-53600000D01*
X112200000Y-59100000D02*
X113450000Y-59100000D01*
X111350000Y-58800000D02*
X113150000Y-58800000D01*
X111350000Y-58050000D02*
X111350000Y-58800000D01*
X109850000Y-58800000D02*
X109850000Y-58050000D01*
X109850000Y-58050000D02*
X103850000Y-58050000D01*
X103850000Y-58800000D02*
X109850000Y-58800000D01*
X103850000Y-58050000D02*
X103850000Y-58800000D01*
X102350000Y-58800000D02*
X102350000Y-58050000D01*
X102350000Y-58050000D02*
X100550000Y-58050000D01*
X101300000Y-56550000D02*
X101300000Y-53600000D01*
X101300000Y-53600000D02*
X106850000Y-53600000D01*
X100550000Y-58800000D02*
X102350000Y-58800000D01*
X100550000Y-58050000D02*
X100550000Y-58800000D01*
X100550000Y-56550000D02*
X101300000Y-56550000D01*
X100540000Y-58810000D02*
X113160000Y-58810000D01*
X100540000Y-52840000D02*
X100540000Y-58810000D01*
%TO.C,Q8*%
X156037500Y-87140000D02*
X154362500Y-87140000D01*
X156037500Y-87140000D02*
X156687500Y-87140000D01*
X156037500Y-90260000D02*
X155387500Y-90260000D01*
X156037500Y-90260000D02*
X156687500Y-90260000D01*
%TO.C,C15*%
X134577836Y-82410000D02*
X134362164Y-82410000D01*
X134577836Y-81690000D02*
X134362164Y-81690000D01*
%TO.C,J14*%
X122250000Y-74250000D02*
X122250000Y-73000000D01*
X121960000Y-73960000D02*
X121960000Y-67990000D01*
X121960000Y-67990000D02*
X111840000Y-67990000D01*
X121950000Y-73950000D02*
X121950000Y-73200000D01*
X121950000Y-73200000D02*
X120150000Y-73200000D01*
X121950000Y-71700000D02*
X121200000Y-71700000D01*
X121200000Y-71700000D02*
X121200000Y-68750000D01*
X121200000Y-68750000D02*
X116900000Y-68750000D01*
X121000000Y-74250000D02*
X122250000Y-74250000D01*
X120150000Y-73950000D02*
X121950000Y-73950000D01*
X120150000Y-73200000D02*
X120150000Y-73950000D01*
X118650000Y-73950000D02*
X118650000Y-73200000D01*
X118650000Y-73200000D02*
X115150000Y-73200000D01*
X115150000Y-73950000D02*
X118650000Y-73950000D01*
X115150000Y-73200000D02*
X115150000Y-73950000D01*
X113650000Y-73950000D02*
X113650000Y-73200000D01*
X113650000Y-73200000D02*
X111850000Y-73200000D01*
X112600000Y-71700000D02*
X112600000Y-68750000D01*
X112600000Y-68750000D02*
X116900000Y-68750000D01*
X111850000Y-73950000D02*
X113650000Y-73950000D01*
X111850000Y-73200000D02*
X111850000Y-73950000D01*
X111850000Y-71700000D02*
X112600000Y-71700000D01*
X111840000Y-73960000D02*
X121960000Y-73960000D01*
X111840000Y-67990000D02*
X111840000Y-73960000D01*
%TO.C,C13*%
X133027836Y-77260000D02*
X132812164Y-77260000D01*
X133027836Y-76540000D02*
X132812164Y-76540000D01*
%TO.C,R3*%
X136956359Y-62620000D02*
X137263641Y-62620000D01*
X136956359Y-63380000D02*
X137263641Y-63380000D01*
%TO.C,C17*%
X141127836Y-66710000D02*
X140912164Y-66710000D01*
X141127836Y-65990000D02*
X140912164Y-65990000D01*
%TO.C,C16*%
X141127836Y-64710000D02*
X140912164Y-64710000D01*
X141127836Y-63990000D02*
X140912164Y-63990000D01*
%TO.C,BTN9*%
X156950000Y-52550000D02*
X156950000Y-53800000D01*
X157240000Y-52840000D02*
X157240000Y-58810000D01*
X157240000Y-58810000D02*
X169860000Y-58810000D01*
X157250000Y-52850000D02*
X157250000Y-53600000D01*
X157250000Y-53600000D02*
X159050000Y-53600000D01*
X157250000Y-55100000D02*
X158000000Y-55100000D01*
X158000000Y-55100000D02*
X158000000Y-58050000D01*
X158000000Y-58050000D02*
X163550000Y-58050000D01*
X158200000Y-52550000D02*
X156950000Y-52550000D01*
X159050000Y-52850000D02*
X157250000Y-52850000D01*
X159050000Y-53600000D02*
X159050000Y-52850000D01*
X160550000Y-52850000D02*
X160550000Y-53600000D01*
X160550000Y-53600000D02*
X166550000Y-53600000D01*
X166550000Y-52850000D02*
X160550000Y-52850000D01*
X166550000Y-53600000D02*
X166550000Y-52850000D01*
X168050000Y-52850000D02*
X168050000Y-53600000D01*
X168050000Y-53600000D02*
X169850000Y-53600000D01*
X169100000Y-55100000D02*
X169100000Y-58050000D01*
X169100000Y-58050000D02*
X163550000Y-58050000D01*
X169850000Y-52850000D02*
X168050000Y-52850000D01*
X169850000Y-53600000D02*
X169850000Y-52850000D01*
X169850000Y-55100000D02*
X169100000Y-55100000D01*
X169860000Y-52840000D02*
X157240000Y-52840000D01*
X169860000Y-58810000D02*
X169860000Y-52840000D01*
%TO.C,U2*%
X132790000Y-64962500D02*
X132790000Y-66762500D01*
X132790000Y-64962500D02*
X132790000Y-64162500D01*
X135910000Y-64962500D02*
X135910000Y-65762500D01*
X135910000Y-64962500D02*
X135910000Y-64162500D01*
%TO.C,R7*%
X147223641Y-77900000D02*
X146916359Y-77900000D01*
X147223641Y-77140000D02*
X146916359Y-77140000D01*
%TO.C,C5*%
X132277836Y-78285000D02*
X132062164Y-78285000D01*
X132277836Y-77565000D02*
X132062164Y-77565000D01*
%TO.C,C18*%
X161072164Y-68655000D02*
X161287836Y-68655000D01*
X161072164Y-69375000D02*
X161287836Y-69375000D01*
%TO.C,BTN5*%
X128500000Y-93025000D02*
X128500000Y-94275000D01*
X128790000Y-93315000D02*
X128790000Y-99285000D01*
X128790000Y-99285000D02*
X141410000Y-99285000D01*
X128800000Y-93325000D02*
X128800000Y-94075000D01*
X128800000Y-94075000D02*
X130600000Y-94075000D01*
X128800000Y-95575000D02*
X129550000Y-95575000D01*
X129550000Y-95575000D02*
X129550000Y-98525000D01*
X129550000Y-98525000D02*
X135100000Y-98525000D01*
X129750000Y-93025000D02*
X128500000Y-93025000D01*
X130600000Y-93325000D02*
X128800000Y-93325000D01*
X130600000Y-94075000D02*
X130600000Y-93325000D01*
X132100000Y-93325000D02*
X132100000Y-94075000D01*
X132100000Y-94075000D02*
X138100000Y-94075000D01*
X138100000Y-93325000D02*
X132100000Y-93325000D01*
X138100000Y-94075000D02*
X138100000Y-93325000D01*
X139600000Y-93325000D02*
X139600000Y-94075000D01*
X139600000Y-94075000D02*
X141400000Y-94075000D01*
X140650000Y-95575000D02*
X140650000Y-98525000D01*
X140650000Y-98525000D02*
X135100000Y-98525000D01*
X141400000Y-93325000D02*
X139600000Y-93325000D01*
X141400000Y-94075000D02*
X141400000Y-93325000D01*
X141400000Y-95575000D02*
X140650000Y-95575000D01*
X141410000Y-93315000D02*
X128790000Y-93315000D01*
X141410000Y-99285000D02*
X141410000Y-93315000D01*
%TO.C,Q3*%
X114437500Y-87140000D02*
X112762500Y-87140000D01*
X114437500Y-87140000D02*
X115087500Y-87140000D01*
X114437500Y-90260000D02*
X113787500Y-90260000D01*
X114437500Y-90260000D02*
X115087500Y-90260000D01*
%TO.C,J3*%
X172925000Y-73975000D02*
X172925000Y-72725000D01*
X172635000Y-73685000D02*
X172635000Y-67715000D01*
X172635000Y-67715000D02*
X162515000Y-67715000D01*
X172625000Y-73675000D02*
X172625000Y-72925000D01*
X172625000Y-72925000D02*
X170825000Y-72925000D01*
X172625000Y-71425000D02*
X171875000Y-71425000D01*
X171875000Y-71425000D02*
X171875000Y-68475000D01*
X171875000Y-68475000D02*
X167575000Y-68475000D01*
X171675000Y-73975000D02*
X172925000Y-73975000D01*
X170825000Y-73675000D02*
X172625000Y-73675000D01*
X170825000Y-72925000D02*
X170825000Y-73675000D01*
X169325000Y-73675000D02*
X169325000Y-72925000D01*
X169325000Y-72925000D02*
X165825000Y-72925000D01*
X165825000Y-73675000D02*
X169325000Y-73675000D01*
X165825000Y-72925000D02*
X165825000Y-73675000D01*
X164325000Y-73675000D02*
X164325000Y-72925000D01*
X164325000Y-72925000D02*
X162525000Y-72925000D01*
X163275000Y-71425000D02*
X163275000Y-68475000D01*
X163275000Y-68475000D02*
X167575000Y-68475000D01*
X162525000Y-73675000D02*
X164325000Y-73675000D01*
X162525000Y-72925000D02*
X162525000Y-73675000D01*
X162525000Y-71425000D02*
X163275000Y-71425000D01*
X162515000Y-73685000D02*
X172635000Y-73685000D01*
X162515000Y-67715000D02*
X162515000Y-73685000D01*
%TO.C,C11*%
X140158601Y-71482282D02*
X140311104Y-71329779D01*
X140667718Y-71991399D02*
X140820221Y-71838896D01*
%TO.C,Q10*%
X170787500Y-92390000D02*
X169112500Y-92390000D01*
X170787500Y-92390000D02*
X171437500Y-92390000D01*
X170787500Y-95510000D02*
X170137500Y-95510000D01*
X170787500Y-95510000D02*
X171437500Y-95510000D01*
%TO.C,Q11*%
X147930000Y-64410000D02*
X149605000Y-64410000D01*
X147930000Y-64410000D02*
X147280000Y-64410000D01*
X147930000Y-61290000D02*
X148580000Y-61290000D01*
X147930000Y-61290000D02*
X147280000Y-61290000D01*
%TO.C,C19*%
X161057164Y-60630000D02*
X161272836Y-60630000D01*
X161057164Y-61350000D02*
X161272836Y-61350000D01*
%TO.C,J7*%
X103237500Y-105910000D02*
X103237500Y-104800000D01*
X103997500Y-105910000D02*
X103237500Y-105910000D01*
X104757500Y-105910000D02*
X105962500Y-105910000D01*
X104757500Y-105910000D02*
X104757500Y-105363471D01*
X105962500Y-105910000D02*
X105962500Y-105107530D01*
X105962500Y-104492470D02*
X105962500Y-103690000D01*
X104757500Y-104236529D02*
X104757500Y-103690000D01*
X104757500Y-103690000D02*
X105962500Y-103690000D01*
%TO.C,R11*%
X103837500Y-100963641D02*
X103837500Y-100656359D01*
X104597500Y-100963641D02*
X104597500Y-100656359D01*
%TO.C,C9*%
X135447836Y-73060000D02*
X135232164Y-73060000D01*
X135447836Y-72340000D02*
X135232164Y-72340000D01*
%TO.C,J20*%
X170000000Y-90905000D02*
X171000000Y-90905000D01*
X171000000Y-90905000D02*
X170500000Y-90405000D01*
X170500000Y-90405000D02*
X170000000Y-90905000D01*
X166710000Y-90325000D02*
X183450000Y-90325000D01*
X166710000Y-74605000D02*
X166710000Y-90325000D01*
X166710000Y-74595000D02*
X183450000Y-74595000D01*
X183450000Y-74595000D02*
X183450000Y-90325000D01*
%TO.C,R8*%
X108578859Y-76495000D02*
X108886141Y-76495000D01*
X108578859Y-77255000D02*
X108886141Y-77255000D01*
%TO.C,SW1*%
X123395000Y-69045000D02*
X123395000Y-69165000D01*
X123395000Y-70175000D02*
X123395000Y-71315000D01*
X123395000Y-72325000D02*
X123395000Y-72445000D01*
X123395000Y-72445000D02*
X127795000Y-72445000D01*
X127795000Y-69045000D02*
X123395000Y-69045000D01*
X127795000Y-69165000D02*
X127795000Y-69045000D01*
X127795000Y-71315000D02*
X127795000Y-70175000D01*
X127795000Y-72445000D02*
X127795000Y-72325000D01*
%TO.C,BTN1*%
X155500000Y-93025000D02*
X155500000Y-94275000D01*
X155790000Y-93315000D02*
X155790000Y-99285000D01*
X155790000Y-99285000D02*
X168410000Y-99285000D01*
X155800000Y-93325000D02*
X155800000Y-94075000D01*
X155800000Y-94075000D02*
X157600000Y-94075000D01*
X155800000Y-95575000D02*
X156550000Y-95575000D01*
X156550000Y-95575000D02*
X156550000Y-98525000D01*
X156550000Y-98525000D02*
X162100000Y-98525000D01*
X156750000Y-93025000D02*
X155500000Y-93025000D01*
X157600000Y-93325000D02*
X155800000Y-93325000D01*
X157600000Y-94075000D02*
X157600000Y-93325000D01*
X159100000Y-93325000D02*
X159100000Y-94075000D01*
X159100000Y-94075000D02*
X165100000Y-94075000D01*
X165100000Y-93325000D02*
X159100000Y-93325000D01*
X165100000Y-94075000D02*
X165100000Y-93325000D01*
X166600000Y-93325000D02*
X166600000Y-94075000D01*
X166600000Y-94075000D02*
X168400000Y-94075000D01*
X167650000Y-95575000D02*
X167650000Y-98525000D01*
X167650000Y-98525000D02*
X162100000Y-98525000D01*
X168400000Y-93325000D02*
X166600000Y-93325000D01*
X168400000Y-94075000D02*
X168400000Y-93325000D01*
X168400000Y-95575000D02*
X167650000Y-95575000D01*
X168410000Y-93315000D02*
X155790000Y-93315000D01*
X168410000Y-99285000D02*
X168410000Y-93315000D01*
%TO.C,Y1*%
X151450000Y-75630000D02*
X148150000Y-75630000D01*
X148150000Y-75630000D02*
X148150000Y-79630000D01*
%TO.C,J1*%
X138930000Y-58450000D02*
X138930000Y-56450000D01*
X138930000Y-54550000D02*
X138930000Y-52650000D01*
X138930000Y-52650000D02*
X129530000Y-52650000D01*
X129530000Y-58450000D02*
X129530000Y-56450000D01*
X129530000Y-54550000D02*
X129530000Y-52650000D01*
%TO.C,C7*%
X140912164Y-64990000D02*
X141127836Y-64990000D01*
X140912164Y-65710000D02*
X141127836Y-65710000D01*
%TO.C,C1*%
X130440000Y-76537836D02*
X130440000Y-76322164D01*
X131160000Y-76537836D02*
X131160000Y-76322164D01*
%TO.C,R4*%
X131743641Y-62780000D02*
X131436359Y-62780000D01*
X131743641Y-62020000D02*
X131436359Y-62020000D01*
%TO.C,Q7*%
X161812500Y-87140000D02*
X160137500Y-87140000D01*
X161812500Y-87140000D02*
X162462500Y-87140000D01*
X161812500Y-90260000D02*
X161162500Y-90260000D01*
X161812500Y-90260000D02*
X162462500Y-90260000D01*
%TO.C,C6*%
X146072164Y-75140000D02*
X146287836Y-75140000D01*
X146072164Y-75860000D02*
X146287836Y-75860000D01*
D15*
%TO.C,U5*%
X116728703Y-74711200D02*
X114143697Y-74711200D01*
X114143697Y-83448800D02*
X116728703Y-83448800D01*
X115741000Y-83448800D02*
G75*
G03*
X115131400Y-83448800I-304800J0D01*
G01*
G36*
X111727800Y-78000500D02*
G01*
X111473800Y-78000500D01*
X111473800Y-77619500D01*
X111727800Y-77619500D01*
X111727800Y-78000500D01*
G37*
D14*
%TO.C,C3*%
X148792164Y-74630000D02*
X149007836Y-74630000D01*
X148792164Y-75350000D02*
X149007836Y-75350000D01*
%TO.C,J4*%
X172925000Y-67175000D02*
X172925000Y-65925000D01*
X172635000Y-66885000D02*
X172635000Y-60915000D01*
X172635000Y-60915000D02*
X162515000Y-60915000D01*
X172625000Y-66875000D02*
X172625000Y-66125000D01*
X172625000Y-66125000D02*
X170825000Y-66125000D01*
X172625000Y-64625000D02*
X171875000Y-64625000D01*
X171875000Y-64625000D02*
X171875000Y-61675000D01*
X171875000Y-61675000D02*
X167575000Y-61675000D01*
X171675000Y-67175000D02*
X172925000Y-67175000D01*
X170825000Y-66875000D02*
X172625000Y-66875000D01*
X170825000Y-66125000D02*
X170825000Y-66875000D01*
X169325000Y-66875000D02*
X169325000Y-66125000D01*
X169325000Y-66125000D02*
X165825000Y-66125000D01*
X165825000Y-66875000D02*
X169325000Y-66875000D01*
X165825000Y-66125000D02*
X165825000Y-66875000D01*
X164325000Y-66875000D02*
X164325000Y-66125000D01*
X164325000Y-66125000D02*
X162525000Y-66125000D01*
X163275000Y-64625000D02*
X163275000Y-61675000D01*
X163275000Y-61675000D02*
X167575000Y-61675000D01*
X162525000Y-66875000D02*
X164325000Y-66875000D01*
X162525000Y-66125000D02*
X162525000Y-66875000D01*
X162525000Y-64625000D02*
X163275000Y-64625000D01*
X162515000Y-66885000D02*
X172635000Y-66885000D01*
X162515000Y-60915000D02*
X162515000Y-66885000D01*
%TO.C,R9*%
X108618859Y-75070000D02*
X108926141Y-75070000D01*
X108618859Y-75830000D02*
X108926141Y-75830000D01*
%TO.C,U6*%
X158095000Y-68475000D02*
X158095000Y-68205000D01*
X158095000Y-68205000D02*
X160925000Y-68205000D01*
X158095000Y-61845000D02*
X159195000Y-61845000D01*
X158095000Y-61575000D02*
X158095000Y-61845000D01*
X151675000Y-68475000D02*
X158095000Y-68475000D01*
X151675000Y-61575000D02*
X158095000Y-61575000D01*
%TO.C,BTN10*%
X113750000Y-52550000D02*
X113750000Y-53800000D01*
X114040000Y-52840000D02*
X114040000Y-58810000D01*
X114040000Y-58810000D02*
X126660000Y-58810000D01*
X114050000Y-52850000D02*
X114050000Y-53600000D01*
X114050000Y-53600000D02*
X115850000Y-53600000D01*
X114050000Y-55100000D02*
X114800000Y-55100000D01*
X114800000Y-55100000D02*
X114800000Y-58050000D01*
X114800000Y-58050000D02*
X120350000Y-58050000D01*
X115000000Y-52550000D02*
X113750000Y-52550000D01*
X115850000Y-52850000D02*
X114050000Y-52850000D01*
X115850000Y-53600000D02*
X115850000Y-52850000D01*
X117350000Y-52850000D02*
X117350000Y-53600000D01*
X117350000Y-53600000D02*
X123350000Y-53600000D01*
X123350000Y-52850000D02*
X117350000Y-52850000D01*
X123350000Y-53600000D02*
X123350000Y-52850000D01*
X124850000Y-52850000D02*
X124850000Y-53600000D01*
X124850000Y-53600000D02*
X126650000Y-53600000D01*
X125900000Y-55100000D02*
X125900000Y-58050000D01*
X125900000Y-58050000D02*
X120350000Y-58050000D01*
X126650000Y-52850000D02*
X124850000Y-52850000D01*
X126650000Y-53600000D02*
X126650000Y-52850000D01*
X126650000Y-55100000D02*
X125900000Y-55100000D01*
X126660000Y-52840000D02*
X114040000Y-52840000D01*
X126660000Y-58810000D02*
X126660000Y-52840000D01*
%TO.C,BTN4*%
X135400000Y-99975000D02*
X135400000Y-101225000D01*
X135690000Y-100265000D02*
X135690000Y-106235000D01*
X135690000Y-106235000D02*
X148310000Y-106235000D01*
X135700000Y-100275000D02*
X135700000Y-101025000D01*
X135700000Y-101025000D02*
X137500000Y-101025000D01*
X135700000Y-102525000D02*
X136450000Y-102525000D01*
X136450000Y-102525000D02*
X136450000Y-105475000D01*
X136450000Y-105475000D02*
X142000000Y-105475000D01*
X136650000Y-99975000D02*
X135400000Y-99975000D01*
X137500000Y-100275000D02*
X135700000Y-100275000D01*
X137500000Y-101025000D02*
X137500000Y-100275000D01*
X139000000Y-100275000D02*
X139000000Y-101025000D01*
X139000000Y-101025000D02*
X145000000Y-101025000D01*
X145000000Y-100275000D02*
X139000000Y-100275000D01*
X145000000Y-101025000D02*
X145000000Y-100275000D01*
X146500000Y-100275000D02*
X146500000Y-101025000D01*
X146500000Y-101025000D02*
X148300000Y-101025000D01*
X147550000Y-102525000D02*
X147550000Y-105475000D01*
X147550000Y-105475000D02*
X142000000Y-105475000D01*
X148300000Y-100275000D02*
X146500000Y-100275000D01*
X148300000Y-101025000D02*
X148300000Y-100275000D01*
X148300000Y-102525000D02*
X147550000Y-102525000D01*
X148310000Y-100265000D02*
X135690000Y-100265000D01*
X148310000Y-106235000D02*
X148310000Y-100265000D01*
%TO.C,Q1*%
X120562500Y-87140000D02*
X118887500Y-87140000D01*
X120562500Y-87140000D02*
X121212500Y-87140000D01*
X120562500Y-90260000D02*
X119912500Y-90260000D01*
X120562500Y-90260000D02*
X121212500Y-90260000D01*
%TO.C,Q4*%
X134605000Y-87140000D02*
X132930000Y-87140000D01*
X134605000Y-87140000D02*
X135255000Y-87140000D01*
X134605000Y-90260000D02*
X133955000Y-90260000D01*
X134605000Y-90260000D02*
X135255000Y-90260000D01*
%TD*%
D16*
%TO.C,J20*%
X176850000Y-88175000D03*
X176850000Y-76745000D03*
%TD*%
%LPC*%
D17*
%TO.C,J6*%
X163000000Y-83100000D03*
D18*
X163000000Y-81830000D03*
%TD*%
D19*
%TO.C,R2*%
X152750000Y-75540000D03*
X152750000Y-74520000D03*
%TD*%
D17*
%TO.C,J2*%
X158800000Y-84075000D03*
D18*
X157530000Y-84075000D03*
X156260000Y-84075000D03*
X154990000Y-84075000D03*
X153720000Y-84075000D03*
%TD*%
D20*
%TO.C,Q2*%
X128150000Y-87750000D03*
X128150000Y-89650000D03*
X130025000Y-88700000D03*
%TD*%
D21*
%TO.C,BTN2*%
X151850000Y-102725000D03*
D22*
X154350000Y-102725000D03*
X156850000Y-102725000D03*
X159350000Y-102725000D03*
%TD*%
D20*
%TO.C,Q6*%
X142175000Y-87750000D03*
X142175000Y-89650000D03*
X144050000Y-88700000D03*
%TD*%
D21*
%TO.C,BTN7*%
X117850000Y-95775000D03*
D22*
X120350000Y-95775000D03*
X122850000Y-95775000D03*
X125350000Y-95775000D03*
%TD*%
D21*
%TO.C,BTN0*%
X165350000Y-102725000D03*
D22*
X167850000Y-102725000D03*
X170350000Y-102725000D03*
X172850000Y-102725000D03*
%TD*%
D21*
%TO.C,BTN8*%
X111000000Y-102725000D03*
D22*
X113500000Y-102725000D03*
X116000000Y-102725000D03*
X118500000Y-102725000D03*
%TD*%
D23*
%TO.C,C12*%
X139250000Y-84050000D03*
X138571178Y-84728822D03*
%TD*%
D19*
%TO.C,R10*%
X103167500Y-101320000D03*
X103167500Y-100300000D03*
%TD*%
D24*
%TO.C,C8*%
X133700000Y-73050000D03*
X133021178Y-72371178D03*
%TD*%
D20*
%TO.C,U4*%
X137125000Y-64350000D03*
X137125000Y-66250000D03*
X139000000Y-65300000D03*
%TD*%
D25*
%TO.C,Q9*%
X125500000Y-62150000D03*
X125500000Y-60250000D03*
X123625000Y-61200000D03*
%TD*%
D21*
%TO.C,BTN6*%
X124600000Y-102725000D03*
D22*
X127100000Y-102725000D03*
X129600000Y-102725000D03*
X132100000Y-102725000D03*
%TD*%
D21*
%TO.C,J16*%
X103367500Y-80250000D03*
D22*
X105867500Y-80250000D03*
X108367500Y-80250000D03*
%TD*%
D26*
%TO.C,R6*%
X131800000Y-67000000D03*
X130150000Y-67000000D03*
%TD*%
D21*
%TO.C,J19*%
X142600000Y-55250000D03*
D22*
X145100000Y-55250000D03*
X147600000Y-55250000D03*
X150100000Y-55250000D03*
X152600000Y-55250000D03*
%TD*%
D20*
%TO.C,Q5*%
X146492500Y-87750000D03*
X146492500Y-89650000D03*
X148367500Y-88700000D03*
%TD*%
D27*
%TO.C,J17*%
X180850000Y-56300000D03*
D22*
X178350000Y-56300000D03*
X175850000Y-56300000D03*
X173350000Y-56300000D03*
%TD*%
D28*
%TO.C,U1*%
X122000000Y-76690000D03*
X122000000Y-77960000D03*
X122000000Y-79230000D03*
X122000000Y-80500000D03*
X129200000Y-80500000D03*
X129200000Y-79230000D03*
X129200000Y-77960000D03*
X129200000Y-76690000D03*
%TD*%
D29*
%TO.C,F1*%
X140600000Y-61900000D03*
X143400000Y-61900000D03*
%TD*%
D24*
%TO.C,C4*%
X133078822Y-73878822D03*
X132400000Y-73200000D03*
%TD*%
D30*
%TO.C,U3*%
X136150000Y-80800000D03*
X136550000Y-80800000D03*
X136950000Y-80800000D03*
X137350000Y-80800000D03*
X137750000Y-80800000D03*
X138150000Y-80800000D03*
X138550000Y-80800000D03*
X138950000Y-80800000D03*
X139350000Y-80800000D03*
X139750000Y-80800000D03*
X140150000Y-80800000D03*
X140550000Y-80800000D03*
X140950000Y-80800000D03*
X141350000Y-80800000D03*
D31*
X142187500Y-79962500D03*
X142187500Y-79562500D03*
X142187500Y-79162500D03*
X142187500Y-78762500D03*
X142187500Y-78362500D03*
X142187500Y-77962500D03*
X142187500Y-77562500D03*
X142187500Y-77162500D03*
X142187500Y-76762500D03*
X142187500Y-76362500D03*
X142187500Y-75962500D03*
X142187500Y-75562500D03*
X142187500Y-75162500D03*
X142187500Y-74762500D03*
D30*
X141350000Y-73925000D03*
X140950000Y-73925000D03*
X140550000Y-73925000D03*
X140150000Y-73925000D03*
X139750000Y-73925000D03*
X139350000Y-73925000D03*
X138950000Y-73925000D03*
X138550000Y-73925000D03*
X138150000Y-73925000D03*
X137750000Y-73925000D03*
X137350000Y-73925000D03*
X136950000Y-73925000D03*
X136550000Y-73925000D03*
X136150000Y-73925000D03*
D31*
X135312500Y-74762500D03*
X135312500Y-75162500D03*
X135312500Y-75562500D03*
X135312500Y-75962500D03*
X135312500Y-76362500D03*
X135312500Y-76762500D03*
X135312500Y-77162500D03*
X135312500Y-77562500D03*
X135312500Y-77962500D03*
X135312500Y-78362500D03*
X135312500Y-78762500D03*
X135312500Y-79162500D03*
X135312500Y-79562500D03*
X135312500Y-79962500D03*
D32*
X138750000Y-77362500D03*
%TD*%
D33*
%TO.C,C2*%
X149950000Y-80480000D03*
X150910000Y-80480000D03*
%TD*%
D34*
%TO.C,C14*%
X135820000Y-71725000D03*
X134860000Y-71725000D03*
%TD*%
D21*
%TO.C,J15*%
X103442500Y-70950000D03*
D22*
X105942500Y-70950000D03*
X108442500Y-70950000D03*
%TD*%
D27*
%TO.C,J21*%
X119400000Y-64700000D03*
D22*
X116900000Y-64700000D03*
X114400000Y-64700000D03*
%TD*%
D21*
%TO.C,BTN3*%
X144850000Y-95775000D03*
D22*
X147350000Y-95775000D03*
X149850000Y-95775000D03*
X152350000Y-95775000D03*
%TD*%
D33*
%TO.C,C10*%
X145700000Y-76470000D03*
X146660000Y-76470000D03*
%TD*%
D26*
%TO.C,R5*%
X131800000Y-65400000D03*
X130150000Y-65400000D03*
%TD*%
D35*
%TO.C,R1*%
X123910000Y-75160000D03*
X122890000Y-75160000D03*
%TD*%
D27*
%TO.C,J18*%
X110600000Y-56350000D03*
D22*
X108100000Y-56350000D03*
X105600000Y-56350000D03*
X103100000Y-56350000D03*
%TD*%
D20*
%TO.C,Q8*%
X155100000Y-87750000D03*
X155100000Y-89650000D03*
X156975000Y-88700000D03*
%TD*%
D34*
%TO.C,C15*%
X134950000Y-82050000D03*
X133990000Y-82050000D03*
%TD*%
D27*
%TO.C,J14*%
X119400000Y-71500000D03*
D22*
X116900000Y-71500000D03*
X114400000Y-71500000D03*
%TD*%
D34*
%TO.C,C13*%
X133400000Y-76900000D03*
X132440000Y-76900000D03*
%TD*%
D36*
%TO.C,R3*%
X136600000Y-63000000D03*
X137620000Y-63000000D03*
%TD*%
D34*
%TO.C,C17*%
X141500000Y-66350000D03*
X140540000Y-66350000D03*
%TD*%
%TO.C,C16*%
X141500000Y-64350000D03*
X140540000Y-64350000D03*
%TD*%
D21*
%TO.C,BTN9*%
X159800000Y-55300000D03*
D22*
X162300000Y-55300000D03*
X164800000Y-55300000D03*
X167300000Y-55300000D03*
%TD*%
D37*
%TO.C,U2*%
X133400000Y-66100000D03*
X134350000Y-66100000D03*
X135300000Y-66100000D03*
X135300000Y-63825000D03*
X134350000Y-63825000D03*
X133400000Y-63825000D03*
%TD*%
D35*
%TO.C,R7*%
X147580000Y-77520000D03*
X146560000Y-77520000D03*
%TD*%
D34*
%TO.C,C5*%
X132650000Y-77925000D03*
X131690000Y-77925000D03*
%TD*%
D33*
%TO.C,C18*%
X160700000Y-69015000D03*
X161660000Y-69015000D03*
%TD*%
D21*
%TO.C,BTN5*%
X131350000Y-95775000D03*
D22*
X133850000Y-95775000D03*
X136350000Y-95775000D03*
X138850000Y-95775000D03*
%TD*%
D20*
%TO.C,Q3*%
X113500000Y-87750000D03*
X113500000Y-89650000D03*
X115375000Y-88700000D03*
%TD*%
D27*
%TO.C,J3*%
X170075000Y-71225000D03*
D22*
X167575000Y-71225000D03*
X165075000Y-71225000D03*
%TD*%
D38*
%TO.C,C11*%
X140150000Y-72000000D03*
X140828822Y-71321178D03*
%TD*%
D20*
%TO.C,Q10*%
X169850000Y-93000000D03*
X169850000Y-94900000D03*
X171725000Y-93950000D03*
%TD*%
D25*
%TO.C,Q11*%
X148867500Y-63800000D03*
X148867500Y-61900000D03*
X146992500Y-62850000D03*
%TD*%
D33*
%TO.C,C19*%
X160685000Y-60990000D03*
X161645000Y-60990000D03*
%TD*%
D17*
%TO.C,J7*%
X103997500Y-104800000D03*
D18*
X105267500Y-104800000D03*
%TD*%
D19*
%TO.C,R11*%
X104217500Y-101320000D03*
X104217500Y-100300000D03*
%TD*%
D34*
%TO.C,C9*%
X135820000Y-72700000D03*
X134860000Y-72700000D03*
%TD*%
D16*
%TO.C,J20*%
X176850000Y-88175000D03*
X176850000Y-76745000D03*
D39*
X170500000Y-86905000D03*
D40*
X167960000Y-85635000D03*
X170500000Y-84365000D03*
X167960000Y-83095000D03*
X170500000Y-81825000D03*
X167960000Y-80555000D03*
X170500000Y-79285000D03*
X167960000Y-78015000D03*
%TD*%
D36*
%TO.C,R8*%
X108222500Y-76875000D03*
X109242500Y-76875000D03*
%TD*%
D41*
%TO.C,SW1*%
X123520000Y-69670000D03*
X127670000Y-69670000D03*
X123520000Y-71820000D03*
X127670000Y-71820000D03*
%TD*%
D21*
%TO.C,BTN1*%
X158350000Y-95775000D03*
D22*
X160850000Y-95775000D03*
X163350000Y-95775000D03*
X165850000Y-95775000D03*
%TD*%
D42*
%TO.C,Y1*%
X148950000Y-76530000D03*
X148950000Y-78730000D03*
X150650000Y-78730000D03*
X150650000Y-76530000D03*
%TD*%
D43*
%TO.C,J1*%
X137120000Y-59150000D03*
X131340000Y-59150000D03*
D44*
X137480000Y-60595000D03*
X136680000Y-60595000D03*
D45*
X135480000Y-60595000D03*
X134480000Y-60595000D03*
X133980000Y-60595000D03*
X132980000Y-60595000D03*
D44*
X131780000Y-60595000D03*
X130980000Y-60595000D03*
X130980000Y-60595000D03*
X131780000Y-60595000D03*
D45*
X132480000Y-60595000D03*
X133480000Y-60595000D03*
X134980000Y-60595000D03*
X135980000Y-60595000D03*
D44*
X136680000Y-60595000D03*
X137480000Y-60595000D03*
D46*
X138550000Y-59680000D03*
D47*
X138550000Y-55500000D03*
D46*
X129910000Y-59680000D03*
D47*
X129910000Y-55500000D03*
%TD*%
D33*
%TO.C,C7*%
X140540000Y-65350000D03*
X141500000Y-65350000D03*
%TD*%
D48*
%TO.C,C1*%
X130800000Y-76910000D03*
X130800000Y-75950000D03*
%TD*%
D35*
%TO.C,R4*%
X132100000Y-62400000D03*
X131080000Y-62400000D03*
%TD*%
D20*
%TO.C,Q7*%
X160875000Y-87750000D03*
X160875000Y-89650000D03*
X162750000Y-88700000D03*
%TD*%
D33*
%TO.C,C6*%
X145700000Y-75500000D03*
X146660000Y-75500000D03*
%TD*%
D49*
%TO.C,U5*%
X117900000Y-82890000D03*
X117900000Y-81620000D03*
X117900000Y-80350000D03*
X117900000Y-79080000D03*
X117900000Y-77810000D03*
X117900000Y-76540000D03*
X117900000Y-75270000D03*
X112972400Y-75270000D03*
X112972400Y-76540000D03*
X112972400Y-77810000D03*
X112972400Y-79080000D03*
X112972400Y-80350000D03*
X112972400Y-81620000D03*
X112972400Y-82890000D03*
%TD*%
D33*
%TO.C,C3*%
X148420000Y-74990000D03*
X149380000Y-74990000D03*
%TD*%
D27*
%TO.C,J4*%
X170075000Y-64425000D03*
D22*
X167575000Y-64425000D03*
X165075000Y-64425000D03*
%TD*%
D36*
%TO.C,R9*%
X108262500Y-75450000D03*
X109282500Y-75450000D03*
%TD*%
D50*
%TO.C,U6*%
X159825000Y-67305000D03*
D51*
X153525000Y-65025000D03*
D50*
X159825000Y-62745000D03*
%TD*%
D21*
%TO.C,BTN10*%
X116600000Y-55300000D03*
D22*
X119100000Y-55300000D03*
X121600000Y-55300000D03*
X124100000Y-55300000D03*
%TD*%
D21*
%TO.C,BTN4*%
X138250000Y-102725000D03*
D22*
X140750000Y-102725000D03*
X143250000Y-102725000D03*
X145750000Y-102725000D03*
%TD*%
D20*
%TO.C,Q1*%
X119625000Y-87750000D03*
X119625000Y-89650000D03*
X121500000Y-88700000D03*
%TD*%
%TO.C,Q4*%
X133667500Y-87750000D03*
X133667500Y-89650000D03*
X135542500Y-88700000D03*
%TD*%
%LPD*%
M02*
